<?xml version="1.0" encoding="UTF-8"?>
<svg width="80px" height="82px" viewBox="0 0 80 82" version="1.1" xmlns="http://www.w3.org/2000/svg" xmlns:xlink="http://www.w3.org/1999/xlink">
    <!-- Generator: Sketch 53.2 (72643) - https://sketchapp.com -->
    <title>card-4-meng</title>
    <desc>Created with Sketch.</desc>
    <g id="card-4-meng" stroke="none" stroke-width="1" fill="none" fill-rule="evenodd">
        <g id="Group-6">
            <g id="she3">
                <g id="Group" fill="#CEBEE4" fill-rule="nonzero">
                    <rect id="Rectangle_2_copy_12" x="0" y="0" width="80" height="80" rx="39.1111111"></rect>
                </g>
                <g id="组_1" transform="translate(14.876263, 12.613636)">
                    <path d="M6.50995022,9.81997888 C2.9989973,14.0697332 4.34567946,34.6364293 6.35606061,48.9767929 C7.64165872,58.1471656 5.27419118,64.4575132 13.8530843,65.5681818 C14.1020616,62.7817045 48.4960809,74.5077273 49.3118764,56.1993182 C50.2310809,35.5694318 50.4370328,8.37795455 45.0393056,6.61659091 C42.1415783,5.76431818 7.55824568,8.55111524 6.50995022,9.81997888 Z" id="形状_118" fill="#353037"></path>
                    <path d="M22.4604419,53.8097796 C22.4604419,53.8097796 23.4298737,56.2910361 22.5816919,58.1884916 C21.7335101,60.0859471 20.7635101,66.8552997 20.7635101,66.8552997 C20.7635101,66.8552997 36.1535101,68.4607864 35.9112374,67.1471318 C35.6689646,65.8334771 34.6385101,59.3562302 34.0930556,58.0425756 C33.4871465,56.2180781 34.6989646,53.6638636 34.6989646,53.6638636" id="形状_119" fill="#ECD7BA"></path>
                    <path d="M22.5468467,58.3446591 C22.4658618,59.7073857 24.3248108,62.5044741 28.1236937,66.7359242 C32.3724548,62.6823901 34.4072325,59.8853017 34.2280268,58.3446591 C33.9592183,56.0336952 48.2996306,61.9419192 49.3627146,65.615 C50.4257987,69.2880808 6.80953221,69.4778574 6.25926557,66.0121105 C5.70899893,62.5463635 22.668324,56.3005692 22.5468467,58.3446591 Z" id="形状_120" fill="#A78DCA"></path>
                    <path d="M23.258601,58.0053559 C21.6755322,56.9387521 20.1824522,56.5832175 18.7793611,56.9387521 C16.6747243,57.472054 28.5752787,70.6147805 27.2093994,67.6492336 C26.2988132,65.6722023 24.9818804,62.4575764 23.258601,58.0053559 Z" id="Path-11" fill="#FFF892" transform="translate(22.924006, 62.444924) rotate(-11.000000) translate(-22.924006, -62.444924) "></path>
                    <path d="M33.3062261,57.9016431 C31.7231573,56.8350392 30.2300773,56.4795046 28.8269861,56.8350392 C26.7223494,57.3683412 40.0659888,70.3689834 38.1220143,67.4350749 C36.8260313,65.479136 35.2207686,62.3013253 33.3062261,57.9016431 Z" id="Path-11" fill="#FFF892" transform="translate(33.458629, 62.283691) scale(-1, 1) rotate(-8.000000) translate(-33.458629, -62.283691) "></path>
                    <path d="M8.75610749,38.6363636 C8.98400723,40.8797727 10.0648794,46.009791 13.7735669,50.236498 C15.9316513,52.6960178 20.9695274,55.0052322 28.8871954,57.1641414 C36.0409508,54.3828022 40.5170003,51.5802344 42.3153438,48.7564382 C45.0011718,44.5390957 45.5532335,39.8201033 46.3613561,36.8182299 C48.2310287,29.8730951 45.632601,15.2386742 42.038851,12.719697 C19.2945328,-3.22223485 5.20588391,3.68852354 8.75610749,38.6363636 Z" id="形状_85" fill="#FBE9D1"></path>
                    <g id="右" transform="translate(33.078283, 31.136364)">
                        <path d="M0.145113636,1.38443182 C0.450909091,1.95681818 1.70068182,1.12829545 3.46511364,1.08159091 C5.81545455,1.01931818 8.63852273,1.33636364 8.77193182,1.12704545 C9.39170455,0.161704545 -0.969431818,-0.701818182 0.145113636,1.38443182 Z" id="形状_86" fill="#3F3F3F" opacity="0.8"></path>
                        <path d="M6.32090909,4.13340909 C8.14818182,4.14727273 9.25590909,4.77829545 9.23681818,6.74295455 C9.21772727,8.70761364 7.72102273,10.2890909 5.89363636,10.2752273 C4.06625,10.2613636 2.66079545,8.65704545 2.61954545,6.69261364 C2.56920455,4.29613636 4.49352273,4.11954545 6.32090909,4.13340909 Z" id="椭圆_41_拷贝_3" fill="#FFFFFF"></path>
                        <path d="M5.88443182,2.64920455 C3.44943182,2.12477273 2.49329545,3.91056818 2.35352273,4.54261364 C2.21375,5.17465909 3.83159091,5.01204545 5.71522727,5.42215909 C6.71261364,5.63943182 6.64704545,5.00727273 7.32170455,4.91409091 C7.92079545,4.83125 8.89477273,5.29318182 8.96056818,4.99590909 C8.40909091,4.33034091 7.76897727,3.05511364 5.88443182,2.64920455 Z" id="椭圆_43_拷贝" fill="#795F49" opacity="0.3"></path>
                        <path d="M5.22602273,3.15386364 C7.05340909,3.16772727 8.51920455,4.77170455 8.50022727,6.73647727 C8.48125,8.70125 6.98431818,10.2826136 5.15704545,10.26875 C3.32977273,10.2548864 1.86386364,8.65079545 1.88284091,6.68613636 C1.90181818,4.72147727 3.39875,3.14 5.22602273,3.15386364 Z" id="椭圆_41" fill="#484039"></path>
                        <circle id="椭圆_42" fill="#FFFFFF" fill-rule="nonzero" cx="5.19534091" cy="5.625" r="1"></circle>
                        <path d="M5.66534091,3.23715909 C6.59931818,3.48306818 9.15784091,4.87693182 10.0259091,4.83170455 C11.5909091,4.75 8.42659091,6.13636364 7.34613636,5.52625 C5.89568182,4.70727273 3.38761364,4.25079545 2.90829545,4.57704545 C2.38636364,4.18272727 4.59090909,2.95454545 5.66534091,3.23715909 Z" id="形状_87_拷贝_2" fill="#484039"></path>
                    </g>
                    <g id="左" transform="translate(10.919192, 32.045455)">
                        <path d="M9.29215909,1.15284091 C9.21465909,1.41215909 7.71681818,1.05829545 5.95556818,1.19397727 C3.60920455,1.37477273 0.831818182,1.98272727 0.676704545,1.78818182 C-0.0402272727,0.889090909 9.97045455,-1.11875 9.29215909,1.15284091 Z" id="形状_86_拷贝" fill="#3F3F3F" opacity="0.8"></path>
                        <path d="M4.81738636,2.27102273 C7.26056818,1.78170455 8.18636364,3.60897727 8.31522727,4.25215909 C8.44409091,4.89534091 6.82931818,4.7025 4.93886364,5.08556818 C3.93784091,5.28840909 4.01397727,4.64863636 3.34136364,4.5425 C2.74375,4.44806818 1.76181818,4.89943182 1.70136364,4.59693182 C2.26375,3.93181818 2.92613636,2.64977273 4.81738636,2.27102273 Z" id="椭圆_43_拷贝_2" fill="#795F49" opacity="0.3"></path>
                        <path d="M4.675,3.83363636 C6.46568182,3.84784091 7.55113636,4.49011364 7.53238636,6.48988636 C7.51363636,8.48965909 6.04693182,10.0994318 4.25636364,10.0853409 C2.46579545,10.07125 1.08818182,8.43829545 1.04784091,6.43875 C0.998522727,4 2.88431818,3.81954545 4.675,3.83363636 Z" id="椭圆_41_拷贝_2" fill="#FFFFFF"></path>
                        <path d="M5.40579545,2.85090909 C7.19647727,2.865 8.63306818,4.49761364 8.61431818,6.4975 C8.59556818,8.49738636 7.12886364,10.1070455 5.33818182,10.0929545 C3.5475,10.0788636 2.11090909,8.44613636 2.12965909,6.44625 C2.14840909,4.44636364 3.61511364,2.83670455 5.40579545,2.85090909 Z" id="椭圆_41_拷贝" fill="#484039"></path>
                        <path d="M2.86363636,10.91375 C4.26818182,10.9257955 5.4025,11.4302273 5.39772727,12.0403409 C5.39295455,12.6504545 4.25,13.1353409 2.84511364,13.1231818 C1.44022727,13.1110227 0.30625,12.6065909 0.311022727,11.9964773 C0.315795455,11.3863636 1.45920455,10.9015909 2.86363636,10.91375 Z" id="椭圆_50" fill="#F9A698" opacity="0.5"></path>
                        <path d="M30.29375,10.1561364 C31.6982955,10.1682955 32.8327273,10.6727273 32.8278409,11.2828409 C32.8229545,11.8929545 31.6801136,12.3777273 30.2752273,12.3656818 C28.8703409,12.3536364 27.7363636,11.8490909 27.7411364,11.2389773 C27.7459091,10.6288636 28.8893182,10.1440909 30.29375,10.1561364 Z" id="椭圆_50_拷贝" fill="#F9A698" opacity="0.5"></path>
                        <path d="M4.80170455,2.86636364 C3.86897727,3.11397727 1.31443182,4.51784091 0.447613636,4.47238636 C-1.11511364,4.39034091 2.04454545,5.78647727 3.12329545,5.17193182 C4.57170455,4.34693182 7.07602273,3.88715909 7.55511364,4.21590909 C8.07579545,3.81875 5.87397727,2.58159091 4.80170455,2.86636364 Z" id="形状_87" fill="#484039"></path>
                        <path d="M5.23954545,4.63636364 C5.72757011,4.64096209 6.11950404,5.04023884 6.11504428,5.52826478 C6.11058451,6.01629072 5.71141916,6.40833811 5.22339197,6.40401703 C4.73536478,6.39969596 4.34320398,6.00064203 4.34738636,5.51261364 C4.35182237,5.02429915 4.75123019,4.63201361 5.23954545,4.63636364 L5.23954545,4.63636364 Z" id="椭圆_42_拷贝" fill="#FFFFFF"></path>
                    </g>
                    <path d="M9.03061038,64.4318182 C9.02681902,64.8421941 5.49773042,63.9727525 3.6795486,54.2752525 C-1.10647413,39.0869571 -8.14009517,-5.37891783 33.6729419,0.751477273 C35.0383824,0.951670566 37.9646465,2.15909091 37.9646465,2.15909091 C37.9646465,2.15909091 40.7924874,2.34659091 41.7146465,2.72727273 C56.4681692,8.81818182 53.1795379,63.0681818 46.3613561,64.4318182 C46.1715771,55.8576546 46.8875485,43.4538285 41.5786923,29.2502252 C41.3650341,28.6785924 39.1625723,28.8120919 38.9406227,28.2313411 C38.276731,26.4942095 36.7038918,23.8984841 34.2221052,20.4441649 C33.1935637,24.1897723 31.7734733,26.7854977 29.9618339,28.2313411 C23.9216214,27.6242779 17.6777433,28.2804341 11.2301996,30.1998097 C9.85205707,43.4689601 9.11886065,54.8796296 9.03061038,64.4318182 Z" id="形状_117" fill="#594E5D"></path>
                    <path d="M25.790404,47.8308081 C25.9138513,48.0139876 26.6916291,48.1055774 28.1237374,48.1055774 C29.5558456,48.1055774 30.3336234,48.0139876 30.4570707,47.8308081 C30.4570707,49.9601156 29.6769028,51.0247693 28.1165669,51.0247693 C26.556231,51.0247693 25.7808434,49.9601156 25.790404,47.8308081 Z" id="形状_94" fill="#EB9078"></path>
                </g>
            </g>
        </g>
    </g>
</svg>