<?xml version="1.0" encoding="UTF-8"?>
<svg width="80px" height="82px" viewBox="0 0 80 82" version="1.1" xmlns="http://www.w3.org/2000/svg" xmlns:xlink="http://www.w3.org/1999/xlink">
    <!-- Generator: Sketch 53.2 (72643) - https://sketchapp.com -->
    <title>card-3-lei</title>
    <desc>Created with Sketch.</desc>
    <g id="card-3-lei" stroke="none" stroke-width="1" fill="none" fill-rule="evenodd">
        <g id="Group-5">
            <g id="he1-g">
                <g id="Group" fill="#B2B4DE" fill-rule="nonzero">
                    <rect id="Rectangle_2_copy_12" x="0" y="0" width="80" height="80" rx="39.1111111"></rect>
                </g>
                <g id="组_1" transform="translate(17.090909, 7.863636)">
                    <path d="M19.4955682,57.8335227 C19.4955682,57.8335227 20.4888636,59.9463636 19.6197727,61.5619318 C18.7506818,63.1775 17.7571591,67.7759091 17.7571591,67.7759091 C17.7571591,67.7759091 33.5265909,69.1429545 33.2782955,68.0245455 C33.03,66.9061364 31.9745455,62.55625 31.4157955,61.4377273 C30.7948864,59.8842045 32.0365909,57.7093182 32.0365909,57.7093182" id="形状_119" fill="#ECD7BA"></path>
                    <g id="形状_121" transform="translate(2.000000, 60.136364)">
                        <path d="M0.176020555,10.0499326 C-1.53264577,7.35968796 9.65150507,1.29642716 14.1219596,1.05358625 C14.7173005,1.11210898 16.4227551,0.710972612 16.6052551,0.929268066 C18.0621869,2.24165443 19.7184093,4.0356317 24.1119596,4.0356317 C27.0409932,4.0356317 29.3399705,3.08305594 31.0088914,1.17790443 C31.0088914,1.17790443 33.1196869,1.36426807 33.9888914,1.17790443 C34.858096,0.991540793 45.3846869,6.76290443 45.3846869,10.0499326 C45.3846869,13.3369607 1.88468689,12.7401772 0.176020555,10.0499326 Z" id="Mask" fill="#7577A4"></path>
                        <path d="M14.9414043,1.00474413 C15.6474784,0.919706599 16.4807539,0.780347313 16.6052551,0.929268066 C18.0621869,2.24165443 19.7184093,4.0356317 24.1119596,4.0356317 C27.0409932,4.0356317 29.3399705,3.08305594 31.0088914,1.17790443 C31.0088914,1.17790443 31.9837602,1.26397629 32.8812838,1.26063806 C31.7606989,3.34433842 29.4640573,5.89361867 24.8841326,6.19523935 C19.0053497,6.58249618 16.22247,3.49951384 14.9414043,1.00474413 L14.9414043,1.00474413 Z" id="Path" fill="#FFF892"></path>
                    </g>
                    <path d="M8.29725629,42.2214667 C6.86748356,41.6090803 3.26214265,38.6027167 1.5838472,41.4420348 C-0.0944482544,44.281353 2.32975629,50.795103 10.162029,48.9021485 C14.7972563,47.7824894 9.72691538,42.833853 8.29725629,42.2214667 Z" id="形状_124" fill="#F1DEC6"></path>
                    <path d="M39.7077227,42.3147869 C41.1395409,41.6996733 44.7519272,38.6795597 46.4332909,41.5318324 C48.1146545,44.3841051 45.6860182,50.9275142 37.8395409,49.0260369 C33.1960182,47.9004688 38.27545,42.9297869 39.7077227,42.3147869 Z" id="形状_124_拷贝" fill="#F1DEC6"></path>
                    <path d="M3.72332549,41.3882772 C7.90909091,53.0450662 8.39002208,58.6641555 25.0530754,60.1641555 C36.8975072,57.9301782 41.6281018,57.7093182 44.2357155,40.7107464 C45.7174007,31.0519023 44.4184427,23.0100646 41.6281018,19.3347237 C26.11992,-1.09232176 -7.5521391,9.9876375 3.72332549,41.3882772 Z" id="形状_85" fill="#FBE9D1"></path>
                    <path d="M10.6040909,46.7301136 C12.0432955,46.7425 13.2055682,47.2598864 13.2002273,47.8856818 C13.1948864,48.5114773 12.0239773,49.0086364 10.5847727,48.99625 C9.14556818,48.9838636 7.98329545,48.4659091 7.98863636,47.8409091 C7.99397727,47.2159091 9.165,46.7176136 10.6040909,46.7301136 Z" id="椭圆_50" fill="#F998AC" opacity="0.3"></path>
                    <path d="M38.7103409,45.9530682 C40.1495455,45.9655682 41.3119318,46.4829545 41.3065909,47.10875 C41.30125,47.7345455 40.1302273,48.2317045 38.6910227,48.2192045 C37.2518182,48.2067045 36.0895455,47.6894318 36.0948864,47.0636364 C36.1002273,46.4378409 37.27125,45.9406818 38.7103409,45.9530682 Z" id="椭圆_50_拷贝" fill="#F998AC" opacity="0.3"></path>
                    <path d="M19.4090909,42.1363636 C19.4090909,41.8602213 19.6329485,41.6363636 19.9090909,41.6363636 C20.1852333,41.6363636 20.4090909,41.8602213 20.4090909,42.1363636 L20.4090909,43.3863636 C20.4090909,45.7463595 18.3030863,47.6363636 15.7305195,47.6363636 L11.0876623,47.6363636 C8.51509554,47.6363636 6.40909091,45.7463595 6.40909091,43.3863636 L6.40909091,42.1363636 C6.40909091,41.8602213 6.63294853,41.6363636 6.90909091,41.6363636 C7.18523328,41.6363636 7.40909091,41.8602213 7.40909091,42.1363636 L7.40909091,43.3863636 C7.40909091,45.1685034 9.04470659,46.6363636 11.0876623,46.6363636 L15.7305195,46.6363636 C17.7734752,46.6363636 19.4090909,45.1685034 19.4090909,43.3863636 L19.4090909,42.1363636 Z" id="Path" fill="#7A75B4" fill-rule="nonzero"></path>
                    <path d="M41.4090909,42.1363636 C41.4090909,41.8602213 41.6329485,41.6363636 41.9090909,41.6363636 C42.1852333,41.6363636 42.4090909,41.8602213 42.4090909,42.1363636 L42.4090909,43.3863636 C42.4090909,45.7463595 40.3030863,47.6363636 37.7305195,47.6363636 L33.0876623,47.6363636 C30.5150955,47.6363636 28.4090909,45.7463595 28.4090909,43.3863636 L28.4090909,42.1363636 C28.4090909,41.8602213 28.6329485,41.6363636 28.9090909,41.6363636 C29.1852333,41.6363636 29.4090909,41.8602213 29.4090909,42.1363636 L29.4090909,43.3863636 C29.4090909,45.1685034 31.0447066,46.6363636 33.0876623,46.6363636 L37.7305195,46.6363636 C39.7734752,46.6363636 41.4090909,45.1685034 41.4090909,43.3863636 L41.4090909,42.1363636 Z" id="Path" fill="#7A75B4" fill-rule="nonzero"></path>
                    <polygon id="Path-9" fill="#7A75B4" fill-rule="nonzero" points="19.9090909 43.8863636 19.9090909 42.8863636 28.9090909 42.8863636 28.9090909 43.8863636"></polygon>
                    <polygon id="Path-10" fill="#7A75B4" fill-rule="nonzero" points="41.9090909 43.6363636 41.9090909 42.6363636 43.9090909 42.6363636 43.9090909 43.6363636"></polygon>
                    <polygon id="Path-10" fill="#7A75B4" fill-rule="nonzero" points="4.90909091 43.6363636 4.90909091 42.6363636 6.90909091 42.6363636 6.90909091 43.6363636"></polygon>
                    <path d="M21.7184093,50.1363636 L27.7184093,50.1363636 C27.7184093,50.1363636 27.6671597,54.2340401 24.795354,54.2340401 C21.9235483,54.2340401 21.7184093,50.1363636 21.7184093,50.1363636 Z" id="形状_127" fill="#EB9078"></path>
                    <path d="M35.3609669,37.8720496 C33.7044786,37.8859964 32.7744698,39.3767889 32.7917302,41.3407992 C32.8089907,43.3048094 34.1658871,44.8856615 35.8225809,44.8718228 C37.4792747,44.8579841 38.7532594,43.2542118 38.790657,41.2905259 C38.8361711,38.894922 37.0176607,37.8582109 35.3609669,37.8720496 Z" id="椭圆_41_拷贝_4" fill="#FFFFFF"></path>
                    <g id="右" transform="translate(30.977273, 34.522727)">
                        <path d="M4.13917306,3.18199809 C5.79589336,3.19562321 7.12492952,4.77341213 7.10763536,6.70654418 C7.0903412,8.63967624 5.73335284,10.195229 4.07643145,10.1818218 C2.41951006,10.1684147 1.09067499,8.5904078 1.10796915,6.65727575 C1.12526331,4.72414369 2.48245276,3.16826397 4.13917306,3.18199809 Z" id="椭圆_41" fill="#646452"></path>
                        <circle id="椭圆_42" fill="#FFFFFF" fill-rule="nonzero" cx="4.72125" cy="5.42045455" r="1"></circle>
                        <path d="M0.142954545,1.40227273 C0.2225,1.66784091 1.75170455,1.62272727 3.56340909,1.76170455 C5.97727273,1.94681818 9.00590909,2.30715909 9.00590909,2.05284091 C9.00613636,0.201704545 -0.554886364,-0.923636364 0.142954545,1.40227273 Z" id="形状_86_拷贝_2" fill="#646452"></path>
                    </g>
                    <g id="左" transform="translate(7.909091, 34.750000)">
                        <path d="M9.28181818,1.40068182 C9.20227273,1.66670455 7.67954545,1.62147727 5.87477273,1.76068182 C3.47045455,1.94613636 0.454318182,2.3075 0.454318182,2.05238636 C0.454545455,0.198068182 9.97727273,-0.929204545 9.28181818,1.40068182 Z" id="形状_86_拷贝" fill="#646452"></path>
                        <path d="M5.37757118,3.13068618 C7.03409798,3.14461391 7.96403474,4.63542507 7.94679849,6.59945261 C7.92956224,8.56348016 6.57261789,10.1443863 4.91609109,10.1304586 C3.2595643,10.1165309 1.98521032,8.51288333 1.94786511,6.54918221 C1.90251735,4.15350385 3.72094179,3.11686726 5.37757118,3.13068618 Z" id="椭圆_41_拷贝_2" fill="#FFFFFF"></path>
                        <path d="M5.97389962,3.13836707 C7.63073091,3.15207457 8.9598283,4.73004335 8.94248734,6.66301495 C8.92514638,8.59598654 7.56813928,10.1518948 5.9114106,10.1381873 C4.25468192,10.1244798 2.92548192,8.54651104 2.94282288,6.61353944 C2.96016384,4.68056785 4.31717095,3.12465957 5.97389962,3.13836707 Z" id="椭圆_41_拷贝" fill="#646452"></path>
                        <circle id="椭圆_42_拷贝" fill="#FFFFFF" fill-rule="nonzero" cx="7.12079545" cy="5.44886364" r="1"></circle>
                    </g>
                    <path d="M4.90909091,35.8650316 C5.52915607,28.4919611 8.78273691,23.6401234 16.1838111,22.1105148 C16.27356,22.091966 15.4090909,23.6363636 16.1838111,23.6363636 C16.9585312,23.6363636 20.2805855,21.1840511 20.9090909,21.1363636 C21.5098905,21.0907783 19.181536,23.6877458 19.9090909,23.6363636 C22.0873982,23.4825249 25.524955,21.4156802 27.7623729,21.2909343 C28.8372751,21.2310038 26.0964409,23.1688177 26.9090909,23.1363636 C28.0883631,23.0892681 32.6266145,21.090822 32.7914942,21.1363636 C38.9833215,22.8466172 43.9090909,28.7483243 43.9090909,34.5227273 C43.9090909,38.3723292 43.9090909,41.0768747 43.9090909,42.6363636 C46.6363636,39.059404 48.3333333,33.1388727 49,24.8747697 C50,12.4786151 45.0974347,8.07310084 33.5875246,3.30881636 C32.9058061,3.02663336 31.6729531,1.31565852 30.9090909,1.14790243 C29.959771,0.939416926 31.1939211,2.93558055 30.1657434,2.83232583 C29.878964,2.80352602 26.3708589,0.591447174 25.5390127,0.553901628 C23.9549947,0.482406662 26.9090909,2.83232583 24.1317908,2.62438444 C23.0395342,2.54260524 11.0345835,3.51571722 4.90909091,9.80644531 C-1.21640165,16.0971734 0.242705531,25.2690977 1.45725689,33.1363636 C2.2669578,38.3812076 3.41756914,42.0223294 4.90909091,44.0597289 C4.88286163,38.9084845 4.88286163,36.1769187 4.90909091,35.8650316 Z" id="形状_129" fill="#555461"></path>
                </g>
            </g>
        </g>
    </g>
</svg>