<?xml version="1.0" encoding="UTF-8"?>
<svg width="360px" height="360px" viewBox="0 0 360 360" version="1.1" xmlns="http://www.w3.org/2000/svg" xmlns:xlink="http://www.w3.org/1999/xlink">
    <!-- Generator: Sketch 52.2 (67145) - http://www.bohemiancoding.com/sketch -->
    <title>background_Phone</title>
    <desc>Created with Sketch.</desc>
    <g id="background_Phone" stroke="none" stroke-width="1" fill="none" fill-rule="evenodd">
        <g id="gt_bakerhill_1_dribbble" fill-rule="nonzero">
            <rect id="Mask" fill="#F26B82" x="0" y="0" width="360" height="360"></rect>
            <g id="round-chrome_reader_mode-24px" opacity="0.100000001" transform="translate(178.000000, 16.000000)" fill="#FFFFFF">
                <path d="M119.333333,0.833333333 L32.6666667,0.833333333 C14.6833333,0.833333333 0.166666667,15.35 0.166666667,33.3333333 L0.166666667,206.666667 C0.166666667,224.65 14.6833333,239.166667 32.6666667,239.166667 L119.333333,239.166667 C137.316667,239.166667 151.833333,224.65 151.833333,206.666667 L151.833333,33.3333333 C151.833333,15.35 137.316667,0.833333333 119.333333,0.833333333 Z M92.25,217.5 L59.75,217.5 C56.7166667,217.5 54.3333333,215.116667 54.3333333,212.083333 C54.3333333,209.05 56.7166667,206.666667 59.75,206.666667 L92.25,206.666667 C95.2833333,206.666667 97.6666667,209.05 97.6666667,212.083333 C97.6666667,215.116667 95.2833333,217.5 92.25,217.5 Z M130.166667,185 L21.8333333,185 L21.8333333,33.3333333 L130.166667,33.3333333 L130.166667,185 Z" id="Shape"></path>
            </g>
        </g>
    </g>
</svg>