<?xml version="1.0" encoding="UTF-8"?>
<svg width="246px" height="235px" viewBox="0 0 246 235" version="1.1" xmlns="http://www.w3.org/2000/svg" xmlns:xlink="http://www.w3.org/1999/xlink">
    <!-- Generator: Sketch 56.3 (81716) - https://sketch.com -->
    <title>background_Sports</title>
    <desc>Created with Sketch.</desc>
    <defs>
        <rect id="path-1" x="0" y="0" width="360" height="360"></rect>
    </defs>
    <g id="页面-1" stroke="none" stroke-width="1" fill="none" fill-rule="evenodd">
        <g id="background_Sports" transform="translate(-114.000000, 0.000000)">
            <g id="Mask" fill-rule="nonzero">
                <rect id="path-1" x="0" y="0" width="360" height="360"></rect>
            </g>
            <g id="round-chrome_reader_mode-24px-Clipped">
                <mask id="mask-2" fill="white">
                    <use xlink:href="#path-1"></use>
                </mask>
                <g id="path-1"></g>
                <g id="round-chrome_reader_mode-24px" opacity="0.119999997" mask="url(#mask-2)">
                    <g transform="translate(104.000000, -15.000000)" id="编组">
                        <g>
                            <polygon id="Path" points="-4.54747351e-13 -3.41060513e-13 260 -3.41060513e-13 260 260 -4.54747351e-13 260"></polygon>
                            <path d="M130,227.5 C183.847763,227.5 227.5,183.847763 227.5,130 C227.5,76.1522369 183.847763,32.5 130,32.5 C76.1522369,32.5 32.5,76.1522369 32.5,130 C32.5,183.847763 76.1522369,227.5 130,227.5 Z M130,249.166667 C64.1860673,249.166667 10.8333333,195.813933 10.8333333,130 C10.8333333,64.1860673 64.1860673,10.8333333 130,10.8333333 C195.813933,10.8333333 249.166667,64.1860673 249.166667,130 C249.166667,195.813933 195.813933,249.166667 130,249.166667 Z" id="Oval" fill="#FFFFFF" fill-rule="nonzero"></path>
                            <path d="M88.0964978,63.6686878 C90.5614248,61.1543024 93.1479854,58.7593817 95.8466293,56.4935353 L88.880544,48.1968633 L80.3797751,54.9123706 C80.8740478,55.5380416 81.3752717,56.1583421 81.8833612,56.7731708 L73.5338652,63.6686938 L81.886879,70.5671191 C83.858245,68.1800747 85.9299796,65.8787284 88.0956057,63.6695977 C89.4156472,65.0152492 90.7719957,66.3283205 92.1635334,67.6074861 C90.7738716,66.3298202 89.4176491,65.0163478 88.0964978,63.6686878 Z M92.1635334,67.6074861 C92.4039847,67.82852 92.6454868,68.0485416 92.8880337,68.267544 C92.6455933,68.0486378 92.4041515,67.8286558 92.163716,67.6076058 L92.1635334,67.6074861 Z M92.8880337,68.267544 C102.848106,77.2607701 114.241288,84.236056 126.51961,88.9630355 C114.119869,84.1704694 102.775469,77.1951835 92.8880337,68.267544 Z M204.87378,88.7809381 C217.283731,83.936638 228.776353,76.7914873 238.78156,67.5880853 C239.006787,67.3809073 239.231091,67.1728434 239.454465,66.9638992 C239.230945,67.1729642 239.006694,67.3809927 238.78156,67.5880853 C228.849546,76.7241595 217.406487,83.8693101 205.003019,88.7304422 L204.87378,88.7809381 Z M239.454465,66.9638992 C240.603848,65.8887697 241.728642,64.7903337 242.828207,63.6693571 C244.993919,65.8785613 247.065732,68.1799879 249.03717,70.567119 L257.390184,63.6686937 L249.040347,56.7728718 C249.548417,56.1580733 250.049614,55.5378189 250.543851,54.9122098 L242.043174,48.196586 L235.077119,56.4932831 C237.775872,58.759204 240.362533,61.1542093 242.827551,63.6686881 C241.727208,64.7911093 240.602515,65.8898383 239.454306,66.9640064 L239.454465,66.9638992 Z" id="Combined-Shape" stroke="#FFFFFF" stroke-width="21.6666667" transform="translate(165.462025, 68.579811) rotate(30.000000) translate(-165.462025, -68.579811) "></path>
                            <path d="M175.625411,213.015723 C157.77028,190.393617 130.105164,175.873275 99.0486409,175.873275 C67.9921179,175.873275 40.3270024,190.393617 22.471871,213.015723 C16.8967319,208.335188 11.7564828,203.153474 7.12048659,197.539942 C28.9776391,171.074036 62.0433406,154.206608 99.0486409,154.206608 C136.053942,154.206608 169.119643,171.074036 190.976796,197.539942 C186.340799,203.153474 181.20055,208.335188 175.62541,213.015723 L175.625411,213.015723 Z" id="Combined-Shape" fill="#FFFFFF" fill-rule="nonzero" transform="translate(99.048641, 183.611166) rotate(30.000000) translate(-99.048641, -183.611166) "></path>
                        </g>
                    </g>
                </g>
            </g>
        </g>
    </g>
</svg>