<?xml version="1.0" encoding="UTF-8"?>
<svg width="256px" height="223px" viewBox="0 0 256 223" version="1.1" xmlns="http://www.w3.org/2000/svg" xmlns:xlink="http://www.w3.org/1999/xlink">
    <!-- Generator: Sketch 56.3 (81716) - https://sketch.com -->
    <title>background_bike</title>
    <desc>Created with Sketch.</desc>
    <defs>
        <rect id="path-1" x="0" y="0" width="360" height="360"></rect>
    </defs>
    <g id="页面-1" stroke="none" stroke-width="1" fill="none" fill-rule="evenodd">
        <g id="background_bike" transform="translate(-104.000000, -1.000000)">
            <g id="Mask" fill-rule="nonzero">
                <rect id="path-1" x="0" y="0" width="360" height="360"></rect>
            </g>
            <g id="round-directions_bike-24px-Clipped">
                <mask id="mask-2" fill="white">
                    <use xlink:href="#path-1"></use>
                </mask>
                <g id="path-1"></g>
                <g id="round-directions_bike-24px" opacity="0.119999997" mask="url(#mask-2)">
                    <g transform="translate(104.000000, -15.000000)" id="编组">
                        <g>
                            <polygon id="Path" points="0 0 260 0 260 260 0 260"></polygon>
                            <path d="M167.916667,59.5833333 C179.833333,59.5833333 189.583333,49.8333333 189.583333,37.9166667 C189.583333,26 179.833333,16.25 167.916667,16.25 C156,16.25 146.25,26 146.25,37.9166667 C146.25,49.8333333 156,59.5833333 167.916667,59.5833333 Z M54.1666667,130 C23.8333333,130 0,153.833333 0,184.166667 C0,214.5 23.8333333,238.333333 54.1666667,238.333333 C84.5,238.333333 108.333333,214.5 108.333333,184.166667 C108.333333,153.833333 84.5,130 54.1666667,130 Z M54.1666667,222.083333 C33.5833333,222.083333 16.25,204.75 16.25,184.166667 C16.25,163.583333 33.5833333,146.25 54.1666667,146.25 C74.75,146.25 92.0833333,163.583333 92.0833333,184.166667 C92.0833333,204.75 74.75,222.083333 54.1666667,222.083333 Z M117,113.75 L143,87.75 L151.666667,96.4166667 C163.15,107.9 177.45,115.7 194.566667,118.3 C201.066667,119.275 206.916667,114.075 206.916667,107.466667 C206.916667,102.158333 202.908333,97.6083333 197.708333,96.7416667 C185.683333,94.7916667 175.825,89.05 167.916667,81.25 L147.333333,60.6666667 C141.916667,56.3333333 136.5,54.1666667 130,54.1666667 C123.5,54.1666667 118.083333,56.3333333 114.833333,60.6666667 L84.5,91 C80.1666667,95.3333333 78,100.75 78,106.166667 C78,112.666667 80.1666667,118.083333 84.5,121.333333 L119.166667,151.666667 L119.166667,195 C119.166667,200.958333 124.041667,205.833333 130,205.833333 C135.958333,205.833333 140.833333,200.958333 140.833333,195 L140.833333,147.333333 C140.833333,141.7 138.666667,136.391667 134.875,132.383333 L117,113.75 Z M205.833333,130 C175.5,130 151.666667,153.833333 151.666667,184.166667 C151.666667,214.5 175.5,238.333333 205.833333,238.333333 C236.166667,238.333333 260,214.5 260,184.166667 C260,153.833333 236.166667,130 205.833333,130 Z M205.833333,222.083333 C185.25,222.083333 167.916667,204.75 167.916667,184.166667 C167.916667,163.583333 185.25,146.25 205.833333,146.25 C226.416667,146.25 243.75,163.583333 243.75,184.166667 C243.75,204.75 226.416667,222.083333 205.833333,222.083333 Z" id="Shape" fill="#FFFFFF" fill-rule="nonzero"></path>
                        </g>
                    </g>
                </g>
            </g>
        </g>
    </g>
</svg>