<?xml version="1.0" encoding="UTF-8"?>
<svg width="360px" height="360px" viewBox="0 0 360 360" version="1.1" xmlns="http://www.w3.org/2000/svg" xmlns:xlink="http://www.w3.org/1999/xlink">
    <!-- Generator: Sketch 52.2 (67145) - http://www.bohemiancoding.com/sketch -->
    <title>background_Others</title>
    <desc>Created with Sketch.</desc>
    <g id="background_Others" stroke="none" stroke-width="1" fill="none" fill-rule="evenodd">
        <g id="gt_bakerhill_1_dribbble" fill-rule="nonzero">
            <rect id="Mask" fill="#FD9719" x="0" y="0" width="360" height="360"></rect>
            <g id="round-chrome_reader_mode-24px" opacity="0.119999997" transform="translate(110.000000, 32.000000)" fill="#FFFFFF">
                <g id="round-devices_other-24px" transform="translate(0.833333, 0.166667)">
                    <path d="M21.6666667,32.5 C21.6666667,26.5416667 26.5416667,21.6666667 32.5,21.6666667 L205.833333,21.6666667 C211.791667,21.6666667 216.666667,16.7916667 216.666667,10.8333333 C216.666667,4.875 211.791667,0 205.833333,0 L21.6666667,0 C9.75,0 0,9.75 0,21.6666667 L0,151.666667 C0,163.583333 9.75,173.333333 21.6666667,173.333333 L54.1666667,173.333333 C60.125,173.333333 65,168.458333 65,162.5 C65,156.541667 60.125,151.666667 54.1666667,151.666667 L32.5,151.666667 C26.5416667,151.666667 21.6666667,146.791667 21.6666667,140.833333 L21.6666667,32.5 Z M119.166667,86.6666667 L97.5,86.6666667 C91.5416667,86.6666667 86.6666667,91.5416667 86.6666667,97.5 L86.6666667,105.95 C80.0583333,111.908333 75.8333333,120.358333 75.8333333,130 C75.8333333,139.641667 80.0583333,148.091667 86.6666667,154.05 L86.6666667,162.5 C86.6666667,168.458333 91.5416667,173.333333 97.5,173.333333 L119.166667,173.333333 C125.125,173.333333 130,168.458333 130,162.5 L130,154.05 C136.608333,148.091667 140.833333,139.533333 140.833333,130 C140.833333,120.466667 136.608333,111.908333 130,105.95 L130,97.5 C130,91.5416667 125.125,86.6666667 119.166667,86.6666667 Z M108.333333,146.25 C99.3416667,146.25 92.0833333,138.991667 92.0833333,130 C92.0833333,121.008333 99.3416667,113.75 108.333333,113.75 C117.325,113.75 124.583333,121.008333 124.583333,130 C124.583333,138.991667 117.325,146.25 108.333333,146.25 Z M227.5,43.3333333 L162.5,43.3333333 C157.083333,43.3333333 151.666667,48.75 151.666667,54.1666667 L151.666667,162.5 C151.666667,167.916667 157.083333,173.333333 162.5,173.333333 L227.5,173.333333 C232.916667,173.333333 238.333333,167.916667 238.333333,162.5 L238.333333,54.1666667 C238.333333,48.75 232.916667,43.3333333 227.5,43.3333333 Z M216.666667,151.666667 L173.333333,151.666667 L173.333333,65 L216.666667,65 L216.666667,151.666667 Z" id="Shape"></path>
                </g>
            </g>
        </g>
    </g>
</svg>