<?xml version="1.0" encoding="UTF-8"?>
<svg width="141px" height="228px" viewBox="0 0 141 228" version="1.1" xmlns="http://www.w3.org/2000/svg" xmlns:xlink="http://www.w3.org/1999/xlink">
    <!-- Generator: Sketch 56.3 (81716) - https://sketch.com -->
    <title>background_Hike</title>
    <desc>Created with Sketch.</desc>
    <defs>
        <rect id="path-1" x="0" y="0" width="360" height="360"></rect>
    </defs>
    <g id="页面-1" stroke="none" stroke-width="1" fill="none" fill-rule="evenodd">
        <g id="background_Hike" transform="translate(-165.000000, 0.000000)">
            <g id="Mask" fill-rule="nonzero">
                <rect id="path-1" x="0" y="0" width="360" height="360"></rect>
            </g>
            <g id="round-directions_walk-24px-Clipped">
                <mask id="mask-2" fill="white">
                    <use xlink:href="#path-1"></use>
                </mask>
                <g id="path-1"></g>
                <g id="round-directions_walk-24px" opacity="0.119999997" mask="url(#mask-2)">
                    <g transform="translate(100.000000, -22.000000)" id="编组">
                        <g>
                            <polygon id="Path" points="0 0 260 0 260 260 0 260"></polygon>
                            <path d="M146.25,59.5833333 C158.166667,59.5833333 167.916667,49.8333333 167.916667,37.9166667 C167.916667,26 158.166667,16.25 146.25,16.25 C134.333333,16.25 124.583333,26 124.583333,37.9166667 C124.583333,49.8333333 134.333333,59.5833333 146.25,59.5833333 Z M106.166667,96.4166667 L78.4333333,236.275 C77.025,242.883333 82.225,249.166667 89.05,249.166667 L89.9166667,249.166667 C95.0083333,249.166667 99.3416667,245.7 100.533333,240.716667 L118.083333,162.5 L140.833333,184.166667 L140.833333,238.333333 C140.833333,244.291667 145.708333,249.166667 151.666667,249.166667 C157.625,249.166667 162.5,244.291667 162.5,238.333333 L162.5,177.233333 C162.5,171.275 160.116667,165.641667 155.783333,161.525 L139.75,146.25 L146.25,113.75 C157.841667,127.183333 174.633333,136.825 193.483333,139.858333 C199.983333,140.833333 205.833333,135.633333 205.833333,129.025 C205.833333,123.716667 201.933333,119.275 196.625,118.408333 C180.158333,115.7 166.508333,105.95 159.25,93.1666667 L148.416667,75.8333333 C142.35,66.1916667 130.216667,62.2916667 119.708333,66.7333333 L78.2166667,84.2833333 C70.2,87.75 65,95.55 65,104.325 L65,130 C65,135.958333 69.875,140.833333 75.8333333,140.833333 C81.7916667,140.833333 86.6666667,135.958333 86.6666667,130 L86.6666667,104 L106.166667,96.4166667 L106.166667,96.4166667 Z" id="Shape" fill="#FFFFFF" fill-rule="nonzero"></path>
                        </g>
                    </g>
                </g>
            </g>
        </g>
    </g>
</svg>