<?xml version="1.0" encoding="UTF-8"?>
<svg width="173px" height="227px" viewBox="0 0 173 227" version="1.1" xmlns="http://www.w3.org/2000/svg" xmlns:xlink="http://www.w3.org/1999/xlink">
    <!-- Generator: Sketch 56.3 (81716) - https://sketch.com -->
    <title>background_Run</title>
    <desc>Created with Sketch.</desc>
    <defs>
        <rect id="path-1" x="0" y="0" width="360" height="360"></rect>
    </defs>
    <g id="页面-1" stroke="none" stroke-width="1" fill="none" fill-rule="evenodd">
        <g id="background_Run" transform="translate(-133.000000, 0.000000)">
            <g id="Mask" fill-rule="nonzero">
                <rect id="path-1" x="0" y="0" width="360" height="360"></rect>
            </g>
            <g id="round-directions_run-24px-Clipped">
                <mask id="mask-2" fill="white">
                    <use xlink:href="#path-1"></use>
                </mask>
                <g id="path-1"></g>
                <g id="round-directions_run-24px" opacity="0.119999997" mask="url(#mask-2)">
                    <g transform="translate(100.000000, -22.000000)" id="编组">
                        <g>
                            <polygon id="Path" points="0 0 260 0 260 260 0 260"></polygon>
                            <path d="M146.141667,59.3666667 C158.058333,59.3666667 167.808333,49.6166667 167.808333,37.7 C167.808333,25.7833333 158.058333,16.0333333 146.141667,16.0333333 C134.225,16.0333333 124.475,25.7833333 124.475,37.7 C124.475,49.6166667 134.225,59.3666667 146.141667,59.3666667 Z M111.8,189.366667 L117.975,162.283333 L140.725,183.95 L140.725,238.116667 C140.725,244.075 145.6,248.95 151.558333,248.95 C157.516667,248.95 162.391667,244.075 162.391667,238.116667 L162.391667,177.016667 C162.391667,171.058333 160.008333,165.425 155.675,161.308333 L139.641667,146.033333 L146.141667,113.533333 C157.733333,126.966667 174.525,136.608333 193.375,139.641667 C199.875,140.616667 205.725,135.416667 205.725,128.808333 C205.725,123.5 201.825,119.058333 196.516667,118.191667 C180.05,115.483333 166.4,105.733333 159.141667,92.95 L148.308333,75.6166667 C143.975,69.1166667 137.475,64.7833333 129.891667,64.7833333 C126.641667,64.7833333 124.475,65.8666667 121.225,65.8666667 L78.1083333,84.0666667 C70.0916667,87.5333333 64.8916667,95.3333333 64.8916667,104.108333 L64.8916667,129.783333 C64.8916667,135.741667 69.7666667,140.616667 75.725,140.616667 C81.6833333,140.616667 86.5583333,135.741667 86.5583333,129.783333 L86.5583333,103.783333 L106.058333,96.2 L88.725,183.95 L46.2583333,175.283333 C40.4083333,174.091667 34.6666667,177.883333 33.475,183.733333 L33.475,184.166667 C32.2833333,190.016667 36.075,195.758333 41.925,196.95 L86.45,205.833333 C97.9333333,208.108333 109.2,200.85 111.8,189.366667 Z" id="Shape" fill="#FFFFFF" fill-rule="nonzero"></path>
                        </g>
                    </g>
                </g>
            </g>
        </g>
    </g>
</svg>