<?xml version="1.0" encoding="UTF-8"?>
<svg width="360px" height="360px" viewBox="0 0 360 360" version="1.1" xmlns="http://www.w3.org/2000/svg" xmlns:xlink="http://www.w3.org/1999/xlink">
    <!-- Generator: Sketch 52.2 (67145) - http://www.bohemiancoding.com/sketch -->
    <title>background_Watching TV</title>
    <desc>Created with Sketch.</desc>
    <g id="background_Watching-TV" stroke="none" stroke-width="1" fill="none" fill-rule="evenodd">
        <g id="gt_bakerhill_1_dribbble">
            <rect id="Mask" fill="#4F7CEC" fill-rule="nonzero" x="0" y="0" width="360" height="360"></rect>
            <g id="round-tv-24px" opacity="0.100000001" transform="translate(110.833333, 28.333333)" fill="#FFFFFF">
                <path d="M216.666667,0 L21.6666667,0 C9.75,0 0,9.75 0,21.6666667 L0,151.666667 C0,163.583333 9.75,173.333333 21.6666667,173.333333 L75.8333333,173.333333 L75.8333333,184.166667 C75.8333333,190.125 80.7083333,195 86.6666667,195 L151.666667,195 C157.625,195 162.5,190.125 162.5,184.166667 L162.5,173.333333 L216.666667,173.333333 C228.583333,173.333333 238.225,163.583333 238.225,151.666667 L238.333333,21.6666667 C238.333333,9.75 228.583333,0 216.666667,0 Z M205.833333,151.666667 L32.5,151.666667 C26.5416667,151.666667 21.6666667,146.791667 21.6666667,140.833333 L21.6666667,32.5 C21.6666667,26.5416667 26.5416667,21.6666667 32.5,21.6666667 L205.833333,21.6666667 C211.791667,21.6666667 216.666667,26.5416667 216.666667,32.5 L216.666667,140.833333 C216.666667,146.791667 211.791667,151.666667 205.833333,151.666667 Z" id="Shape" fill-rule="nonzero"></path>
                <path d="M110.161829,121.446296 L153.278496,96.7462958 C160.536829,92.6296291 160.536829,82.1212958 153.278496,77.8962958 L110.161829,53.1962958 C102.903496,49.0796291 93.9118289,54.3879624 93.9118289,62.6212958 L93.9118289,111.912962 C93.9118289,120.254629 102.903496,125.562962 110.161829,121.446296 Z" id="Path"></path>
            </g>
        </g>
    </g>
</svg>