<?xml version="1.0" encoding="UTF-8"?>
<svg width="218px" height="196px" viewBox="0 0 218 196" version="1.1" xmlns="http://www.w3.org/2000/svg" xmlns:xlink="http://www.w3.org/1999/xlink">
    <!-- Generator: Sketch 56.3 (81716) - https://sketch.com -->
    <title>background_Swim</title>
    <desc>Created with Sketch.</desc>
    <defs>
        <rect id="path-1" x="0" y="0" width="360" height="360"></rect>
    </defs>
    <g id="页面-1" stroke="none" stroke-width="1" fill="none" fill-rule="evenodd">
        <g id="background_Swim" transform="translate(-125.000000, -17.000000)">
            <g id="Mask" fill-rule="nonzero">
                <rect id="path-1" x="0" y="0" width="360" height="360"></rect>
            </g>
            <g id="round-pool-24px-Clipped">
                <mask id="mask-2" fill="white">
                    <use xlink:href="#path-1"></use>
                </mask>
                <g id="path-1"></g>
                <g id="round-pool-24px" opacity="0.119999997" mask="url(#mask-2)">
                    <g transform="translate(104.000000, -15.000000)" id="编组">
                        <g>
                            <polygon id="Path" points="0 0 260 0 260 260 0 260"></polygon>
                            <path d="M66.1916667,60.2333333 C79.0833333,61.75 88.1833333,66.5166667 97.5,75.8333333 L108.333333,86.6666667 L73.125,121.875 C76.4833333,123.175 79.1916667,124.8 81.4666667,126.1 C85.475,128.591667 87.8583333,130 93.925,130 C99.9916667,130 102.375,128.591667 106.383333,126.1 C111.366667,123.175 118.083333,119.166667 130.108333,119.166667 C142.133333,119.166667 148.85,123.175 153.725,126.1 C157.733333,128.483333 160.225,130 166.183333,130 C172.141667,130 174.633333,128.591667 178.641667,126.1 C179.941667,125.341667 181.458333,124.475 183.083333,123.608333 L113.533333,54.1666667 C99.8833333,40.5166667 87.1,34.6666667 68.25,33.0416667 C60.6666667,32.3916667 54.1666667,38.5666667 54.1666667,46.15 L54.1666667,47.125 C54.1666667,53.95 59.475,59.3666667 66.1916667,60.2333333 Z M231.291667,204.858333 C229.45,204.208333 227.825,203.233333 225.875,201.933333 C221,199.008333 214.283333,195 202.258333,195 C190.233333,195 183.516667,199.008333 178.641667,201.933333 C174.633333,204.425 172.141667,205.833333 166.183333,205.833333 C160.225,205.833333 157.733333,204.316667 153.725,201.933333 C148.85,199.008333 142.133333,195 130.108333,195 C118.083333,195 111.366667,199.008333 106.383333,201.933333 C102.375,204.425 99.9916667,205.833333 93.925,205.833333 C87.8583333,205.833333 85.475,204.425 81.4666667,201.933333 C76.5916667,199.008333 69.875,195 57.85,195 C45.825,195 39.1083333,199.008333 34.125,201.933333 C32.175,203.125 30.55,204.1 28.7083333,204.858333 C24.5916667,206.266667 21.6666667,209.733333 21.6666667,214.066667 L21.6666667,215.366667 C21.6666667,222.625 28.8166667,227.608333 35.75,225.225 C39.7583333,223.816667 42.7916667,221.975 45.3916667,220.458333 C49.4,218.075 51.8916667,216.666667 57.85,216.666667 C63.8083333,216.666667 66.3,218.075 70.3083333,220.566667 C75.1833333,223.491667 81.9,227.5 93.925,227.5 C105.95,227.5 112.666667,223.491667 117.65,220.566667 C121.658333,218.075 124.041667,216.666667 130.108333,216.666667 C136.066667,216.666667 138.558333,218.183333 142.566667,220.566667 C147.441667,223.491667 154.158333,227.5 166.183333,227.5 C178.208333,227.5 184.816667,223.491667 189.8,220.566667 C193.808333,218.075 196.191667,216.666667 202.258333,216.666667 C208.216667,216.666667 210.708333,218.183333 214.716667,220.566667 C217.208333,222.083333 220.241667,223.925 224.25,225.333333 C231.075,227.716667 238.333333,222.733333 238.333333,215.475 L238.333333,214.175 C238.333333,209.733333 235.408333,206.266667 231.291667,204.858333 Z M33.6916667,177.125 C38.7833333,175.716667 42.4666667,173.55 45.5,171.816667 C49.5083333,169.325 52,167.916667 57.9583333,167.916667 C63.9166667,167.916667 66.4083333,169.433333 70.4166667,171.816667 C75.2916667,174.741667 82.0083333,178.75 94.0333333,178.75 C106.058333,178.75 112.775,174.741667 117.65,171.816667 C121.658333,169.325 124.041667,167.916667 130.108333,167.916667 C136.066667,167.916667 138.558333,169.433333 142.566667,171.816667 C147.441667,174.741667 154.158333,178.75 166.183333,178.75 C178.208333,178.75 184.925,174.741667 189.8,171.816667 C193.808333,169.325 196.191667,167.916667 202.258333,167.916667 C208.216667,167.916667 210.708333,169.433333 214.716667,171.816667 C217.208333,173.333333 220.133333,175.066667 223.925,176.475 C230.75,178.966667 238.116667,173.875 238.116667,166.616667 L238.116667,165.316667 C238.116667,160.983333 235.191667,157.516667 231.183333,156 C229.341667,155.35 227.716667,154.375 225.658333,153.183333 C220.783333,150.258333 214.066667,146.25 202.041667,146.25 C190.016667,146.25 183.3,150.258333 178.425,153.183333 C174.416667,155.675 171.925,157.083333 165.966667,157.083333 C160.008333,157.083333 157.516667,155.566667 153.508333,153.183333 C148.633333,150.258333 141.916667,146.25 129.891667,146.25 C117.866667,146.25 111.15,150.258333 106.275,153.183333 C102.266667,155.675 99.8833333,157.083333 93.8166667,157.083333 C87.8583333,157.083333 85.3666667,155.566667 81.3583333,153.183333 C76.4833333,150.258333 69.7666667,146.25 57.7416667,146.25 C45.7166667,146.25 39,150.258333 34.125,153.183333 C32.175,154.375 30.55,155.35 28.7083333,156.108333 C24.5916667,157.516667 21.6666667,160.983333 21.6666667,165.316667 L21.6666667,167.808333 C21.6666667,174.091667 27.625,178.858333 33.6916667,177.125 L33.6916667,177.125 Z" id="Shape" fill="#FFFFFF" fill-rule="nonzero"></path>
                            <circle id="Oval" fill="#FFFFFF" fill-rule="nonzero" cx="178.75" cy="59.5833333" r="27.0833333"></circle>
                        </g>
                    </g>
                </g>
            </g>
        </g>
    </g>
</svg>