<?xml version="1.0" encoding="UTF-8"?>
<svg width="240px" height="130px" viewBox="0 0 240 130" version="1.1" xmlns="http://www.w3.org/2000/svg" xmlns:xlink="http://www.w3.org/1999/xlink">
    <!-- Generator: Sketch 56.3 (81716) - https://sketch.com -->
    <title>game</title>
    <desc>Created with Sketch.</desc>
    <defs>
        <rect id="path-1" x="0" y="0" width="360" height="360"></rect>
    </defs>
    <g id="页面-1" stroke="none" stroke-width="1" fill="none" fill-rule="evenodd">
        <g id="game" transform="translate(-110.000000, -43.000000)">
            <g id="Mask" fill-rule="nonzero">
                <rect id="path-1" x="0" y="0" width="360" height="360"></rect>
            </g>
            <g id="round-directions_walk-24px-Clipped">
                <mask id="mask-2" fill="white">
                    <use xlink:href="#path-1"></use>
                </mask>
                <g id="path-1"></g>
                <g id="round-directions_walk-24px" opacity="0.119999997" mask="url(#mask-2)">
                    <g transform="translate(100.000000, -22.000000)" id="编组">
                        <g>
                            <polygon id="Path" points="0 0 260 0 260 260 0 260"></polygon>
                            <g id="round-videogame_asset-24px" transform="translate(10.833333, 65.000000)" fill="#FFFFFF" fill-rule="nonzero">
                                <path d="M216.666667,0 L21.6666667,0 C9.75,0 0,9.75 0,21.6666667 L0,108.333333 C0,120.25 9.75,130 21.6666667,130 L216.666667,130 C228.583333,130 238.333333,120.25 238.333333,108.333333 L238.333333,21.6666667 C238.333333,9.75 228.583333,0 216.666667,0 Z M97.5,75.8333333 L75.8333333,75.8333333 L75.8333333,97.5 C75.8333333,103.458333 70.9583333,108.333333 65,108.333333 C59.0416667,108.333333 54.1666667,103.458333 54.1666667,97.5 L54.1666667,75.8333333 L32.5,75.8333333 C26.5416667,75.8333333 21.6666667,70.9583333 21.6666667,65 C21.6666667,59.0416667 26.5416667,54.1666667 32.5,54.1666667 L54.1666667,54.1666667 L54.1666667,32.5 C54.1666667,26.5416667 59.0416667,21.6666667 65,21.6666667 C70.9583333,21.6666667 75.8333333,26.5416667 75.8333333,32.5 L75.8333333,54.1666667 L97.5,54.1666667 C103.458333,54.1666667 108.333333,59.0416667 108.333333,65 C108.333333,70.9583333 103.458333,75.8333333 97.5,75.8333333 Z M157.083333,97.5 C148.091667,97.5 140.833333,90.2416667 140.833333,81.25 C140.833333,72.2583333 148.091667,65 157.083333,65 C166.075,65 173.333333,72.2583333 173.333333,81.25 C173.333333,90.2416667 166.075,97.5 157.083333,97.5 Z M200.416667,65 C191.425,65 184.166667,57.7416667 184.166667,48.75 C184.166667,39.7583333 191.425,32.5 200.416667,32.5 C209.408333,32.5 216.666667,39.7583333 216.666667,48.75 C216.666667,57.7416667 209.408333,65 200.416667,65 Z" id="Shape"></path>
                            </g>
                        </g>
                    </g>
                </g>
            </g>
        </g>
    </g>
</svg>