<?xml version="1.0" encoding="UTF-8"?>
<svg width="324px" height="324px" viewBox="0 0 324 324" version="1.1" xmlns="http://www.w3.org/2000/svg" xmlns:xlink="http://www.w3.org/1999/xlink">
    <!-- Generator: Sketch 53.2 (72643) - https://sketchapp.com -->
    <title>eye exercise-3</title>
    <desc>Created with Sketch.</desc>
    <defs>
        <path d="M82.8423892,0.0311374805 L127.238331,0.0311374805 C165.131642,0.0311374805 207.85024,30.8560164 207.85024,68.8804316 L207.85024,111 L2.23048005,111 L2.23048005,68.8399322 C2.25276101,30.8313341 44.964834,0.0311310792 82.8423892,0.0311374805 Z" id="path-1"></path>
    </defs>
    <g id="eye-exercise-3" stroke="none" stroke-width="1" fill="none" fill-rule="evenodd">
        <g id="Group-4">
            <g id="Group">
                <g id="小助手">
                    <g transform="translate(57.000000, 42.000000)">
                        <g id="Path-+-Path-+-Path-2-Mask" transform="translate(0.000000, 213.000000)">
                            <mask id="mask-2" fill="white">
                                <use xlink:href="#path-1"></use>
                            </mask>
                            <use id="Mask" fill="#D0F0FE" xlink:href="#path-1"></use>
                            <path d="M158.27513,47.2131537 L164.773081,35.9542692 C165.014938,35.4273788 165.014938,34.8206767 164.773081,34.2937863 L153.431936,5.25558401 C152.180778,4.72908939 150.929619,4.24309445 149.638101,3.79759888 L149.234502,3.79759888 C142.149504,1.38741838 134.719384,0.156180916 127.238331,0.152636215 L82.8423892,0.152636215 C75.3613358,0.156180916 67.9312158,1.38741838 60.8462182,3.79759888 L60.4426187,3.79759888 C59.1511005,4.24309445 57.8999422,4.72908939 56.648784,5.25558401 L45.1058391,34.2937863 C44.8639818,34.8206767 44.8639818,35.4273788 45.1058391,35.9542692 L51.6037906,47.2131537 C51.8248168,47.702176 51.8248168,48.2631159 51.6037906,48.7521382 L46.8816767,64.3444781 C46.6118852,65.237263 46.9982447,66.1980753 47.8099555,66.6529547 L105,95.8126557 L162.190044,66.6529547 C163.001755,66.1980753 163.388115,65.237263 163.118323,64.3444781 L158.11369,48.7521382 C157.942589,48.2399197 158.001493,47.6783958 158.27513,47.2131537 Z" id="Path" fill="#EFFCFF" mask="url(#mask-2)"></path>
                            <path d="M105,95.8126557 C75.9811982,80.5443123 63.3888951,40.4092236 60.8462182,3.67610014 C67.9312158,1.26591965 75.3613358,0.0346821814 82.8423892,0.0311374805 L127.238331,0.0311374805 C134.692294,0.0434967176 142.094441,1.27461675 149.153782,3.67610014 C146.611105,40.4092236 134.018802,80.6253113 105,95.8126557 Z" id="Path" fill="#2A5F85" mask="url(#mask-2)"></path>
                            <polygon id="Path-4" fill="#5D82DD" fill-rule="nonzero" mask="url(#mask-2)" points="99.7235177 31.5 90 87 105 96 120 87 109.5 31.5"></polygon>
                            <polygon id="Path-3" fill="#7D9FF3" fill-rule="nonzero" mask="url(#mask-2)" points="97.5 42 112.21519 42 117 27 93 27"></polygon>
                        </g>
                        <g id="Group-2" transform="translate(12.000000, 54.000000)" fill="#2A5F85" fill-rule="nonzero">
                            <path d="M21,78 C6.70686209,74 0.633577615,56 2.78014657,24 C4.92671552,-8 11,-7 21,27 L21,78 Z" id="Path-8"></path>
                            <path d="M183,78 C168.706862,74 162.633578,56 164.780147,24 C166.926716,-8 173,-7 183,27 L183,78 Z" id="Path-8" transform="translate(173.679862, 39.363636) scale(-1, 1) translate(-173.679862, -39.363636) "></path>
                        </g>
                        <path d="M31.9054626,120.246589 L178.129186,120.246589 C181.775487,120.19245 185.287849,121.909419 187.882023,125.014126 C190.476196,128.118832 191.936135,132.352715 191.935861,136.770419 C191.935861,141.152811 190.498844,145.355712 187.940937,148.454532 C185.38303,151.553351 181.913764,153.29425 178.296337,153.29425 L31.9054626,153.29425 C24.3725614,153.29425 18.2659385,145.896279 18.2659385,136.770419 C18.2659387,127.64456 24.3725615,120.246589 31.9054626,120.246589 L31.9054626,120.246589 Z" id="Path" fill="#F4C4B3"></path>
                        <polygon id="Path" fill="#F2AC94" points="80.4207925 187.678397 80.4207925 214.324094 105 240 129.579208 214.324094 129.579208 187.678397"></polygon>
                        <path d="M178.777983,76.0615414 L178.777983,132.76096 C176.935198,172.259029 144.485716,203.332019 105.08072,203.332019 C65.6757239,203.332019 33.2262414,172.259029 31.3834573,132.76096 L31.3834573,84.1614585 C39.4474027,87.7164437 48.1638692,89.5375072 56.9716634,89.5074034 C74.2905198,89.9533512 90.8797225,82.5085398 102.094084,69.257611 C105.905881,70.1423144 109.80532,70.590671 113.717749,70.5940974 C126.723227,70.9224859 139.249416,65.6618515 148.144783,56.1357455 C148.211287,68.2626701 158.015319,78.0644527 170.100594,78.0865205 C173.101739,78.0229639 176.056857,77.3333495 178.777983,76.0615414 Z" id="Path" fill="#FFD2C0"></path>
                        <path d="M93.2990952,166.324867 C90.1958223,163.90668 88.4524218,160.626914 88.4524219,157.207081 L88.4524219,150.445333 C88.4522785,150.122848 88.6193904,149.814005 88.9157999,149.588953 C89.2122095,149.363902 89.6127561,149.241747 90.0264599,149.250233 L119.97354,149.250233 C120.387244,149.241747 120.787791,149.363902 121.0842,149.588953 C121.38061,149.814005 121.547722,150.122848 121.547578,150.445333 L121.547578,157.301431 C121.481052,164.385991 114.091898,170.101767 105,170.101578 C100.611309,170.101578 96.4023681,168.743054 93.2990952,166.324867 Z" id="Path" fill="#EC735A"></path>
                        <path d="M60,216.393525 L87,244.5 L105,240 L80.4074421,213 C76.6233289,212.820761 73.1519582,213.045026 69.9933298,213.672794 C66.8347015,214.300561 63.5035916,215.207472 60,216.393525 Z" id="Path-2" fill="#3B83B2" fill-rule="nonzero"></path>
                        <path d="M105,216.393525 L132,244.5 L150,240 L125.407442,213 C121.623329,212.820761 118.151958,213.045026 114.99333,213.672794 C111.834702,214.300561 108.503592,215.207472 105,216.393525 Z" id="Path-2" fill="#3B83B2" fill-rule="nonzero" transform="translate(127.500000, 228.720143) scale(-1, 1) translate(-127.500000, -228.720143) "></path>
                    </g>
                    <path d="M188.13216,169.804957 C195.13216,174.308521 202.13216,174.308521 209.13216,169.804957" id="Path-6" stroke="#2B2F52" stroke-width="6" stroke-linecap="round" fill-rule="nonzero"></path>
                    <path d="M186.256999,160.5 C194.561857,155.267464 203.142857,155.542663 212,161.325598" id="Path-11" stroke="#F3BDA6" fill-rule="nonzero"></path>
                    <path d="M112,160.728316 C120.304858,155.495779 128.885858,155.770979 137.743001,161.553913" id="Path-11" stroke="#F3BDA6" fill-rule="nonzero"></path>
                    <path d="M114.63216,169.804957 C121.63216,174.308521 128.63216,174.308521 135.63216,169.804957" id="Path-6" stroke="#2B2F52" stroke-width="6" stroke-linecap="round" fill-rule="nonzero"></path>
                    <path d="M204,201 C203.447715,201 203,200.552285 203,200 C203,199.447715 203.447715,199 204,199 C204.624865,199 205.243902,198.955987 205.854122,198.868909 C206.400869,198.790889 206.907342,199.170867 206.985362,199.717613 C207.063382,200.264359 206.683405,200.770832 206.136658,200.848852 C205.432923,200.949275 204.719472,201 204,201 Z M211.263006,199.127291 C210.779981,199.39507 210.171335,199.220578 209.903556,198.737553 C209.635777,198.254529 209.810269,197.645882 210.293293,197.378103 C210.835389,197.077577 211.355383,196.738515 211.849305,196.363803 C212.289301,196.030003 212.916586,196.116091 213.250386,196.556087 C213.584186,196.996082 213.498098,197.623367 213.058103,197.957167 C212.488409,198.389363 211.888528,198.780515 211.263006,199.127291 Z M216.708551,193.971709 C216.414663,194.439307 215.797356,194.580127 215.329757,194.286239 C214.862159,193.992351 214.721339,193.375044 215.015227,192.907446 C215.344955,192.382824 215.636822,191.835245 215.888316,191.268676 C216.112387,190.763888 216.703243,190.536322 217.208031,190.760392 C217.712819,190.984463 217.940386,191.575319 217.716315,192.080107 C217.425956,192.734229 217.08906,193.366289 216.708551,193.971709 Z M218.971682,186.928778 C218.937973,187.480033 218.463765,187.899587 217.91251,187.865877 C217.361255,187.832168 216.941701,187.35796 216.975411,186.806705 C216.991492,186.543724 216.999708,186.279504 216.999992,186.015318 C216.999999,185.644742 216.985769,185.28945 216.957047,184.934882 C216.912454,184.384401 217.322558,183.901998 217.873039,183.857405 C218.423521,183.812812 218.905924,184.222916 218.950517,184.773398 C218.983612,185.181948 219,185.591122 218.999991,186.016411 C218.999664,186.32166 218.990205,186.625874 218.971682,186.928778 Z M217.556843,179.572685 C217.793758,180.071574 217.581387,180.66806 217.082499,180.904976 C216.58361,181.141891 215.987124,180.92952 215.750208,180.430632 C215.484324,179.870743 215.178567,179.330738 214.835557,178.814595 C214.529875,178.35462 214.654953,177.733933 215.114928,177.42825 C215.574903,177.122568 216.195591,177.247647 216.501273,177.707621 C216.897047,178.303161 217.249918,178.926375 217.556843,179.572685 Z M212.753297,173.817583 C213.201558,174.140198 213.303415,174.765116 212.9808,175.213377 C212.658185,175.661639 212.033267,175.763495 211.585006,175.440881 C211.081831,175.078744 210.553467,174.752931 210.003894,174.46622 C209.514238,174.210769 209.324378,173.60674 209.57983,173.117084 C209.835282,172.627428 210.439311,172.437568 210.928967,172.693019 C211.563219,173.023907 212.172851,173.399834 212.753297,173.817583 Z M205.854176,171.113573 C206.402306,171.181193 206.791836,171.680356 206.724216,172.228486 C206.656596,172.776616 206.157432,173.166145 205.609302,173.098525 C205.087455,173.034148 204.559545,173.001124 204.029228,173.00003 C203.912222,173.000003 203.820491,173.000876 203.726162,173.002823 C203.173995,173.014216 202.717139,172.575832 202.705746,172.023664 C202.694353,171.471497 203.132737,171.014641 203.684904,171.003248 C203.793618,171.001005 203.899202,170.999999 204.031525,171.000032 C204.644194,171.001295 205.252501,171.039347 205.854176,171.113573 Z M198.428594,172.069057 C198.941331,171.863825 199.523359,172.113107 199.72859,172.625843 C199.933822,173.138579 199.684541,173.720607 199.171804,173.925839 C198.596342,174.156178 198.038575,174.427537 197.502442,174.737564 C197.024339,175.014034 196.412636,174.850579 196.136166,174.372476 C195.859696,173.894372 196.023151,173.28267 196.501254,173.006199 C197.120102,172.648341 197.76407,172.335045 198.428594,172.069057 Z M192.388582,176.503285 C192.738463,176.075966 193.368508,176.013191 193.795827,176.363072 C194.223146,176.712954 194.285922,177.342999 193.93604,177.770318 C193.543195,178.250109 193.184977,178.757266 192.864423,179.287843 C192.578829,179.760553 191.964103,179.912241 191.491393,179.626648 C191.018682,179.341055 190.866994,178.726328 191.152588,178.253618 C191.52239,177.641526 191.935554,177.05658 192.388582,176.503285 Z M189.255713,183.228465 C189.357169,182.685579 189.879512,182.327729 190.422397,182.429186 C190.965283,182.530642 191.323133,183.052985 191.221676,183.595871 C191.108401,184.201998 191.038075,184.818239 191.011766,185.44146 C190.988472,185.993254 190.522272,186.421687 189.970478,186.398393 C189.418685,186.375099 188.990252,185.908899 189.013545,185.357106 C189.043869,184.638781 189.12499,183.927952 189.255713,183.228465 Z M189.751211,190.699551 C189.578305,190.17503 189.863344,189.609654 190.387864,189.436747 C190.912385,189.26384 191.477761,189.548879 191.650668,190.0734 C191.844877,190.662541 192.081103,191.236106 192.357258,191.790232 C192.603599,192.284534 192.402587,192.884944 191.908285,193.131285 C191.413983,193.377626 190.813573,193.176614 190.567232,192.682312 C190.248356,192.042464 189.975532,191.380038 189.751211,190.699551 Z M193.798705,196.997064 C193.393887,196.621377 193.370273,195.988652 193.74596,195.583835 C194.121648,195.179017 194.754372,195.155402 195.15919,195.53109 C195.613653,195.95285 196.097575,196.341831 196.607093,196.694761 C197.0611,197.00924 197.17421,197.632219 196.859732,198.086226 C196.545254,198.540232 195.922274,198.653343 195.468267,198.338864 C194.880665,197.931848 194.322677,197.483332 193.798705,196.997064 Z M200.323019,200.545786 C199.787484,200.410804 199.462771,199.867242 199.597754,199.331706 C199.732736,198.796171 200.276298,198.471458 200.811833,198.606441 C201.410325,198.757291 202.020892,198.865503 202.640199,198.929816 C203.18953,198.986861 203.588606,199.478426 203.53156,200.027757 C203.474515,200.577088 202.98295,200.976164 202.433619,200.919118 C201.719014,200.84491 201.014131,200.719981 200.323019,200.545786 Z" id="Oval" fill="#FF3232" fill-rule="nonzero" opacity="0.5"></path>
                    <circle id="Oval" fill="#FF4E4E" fill-rule="nonzero" opacity="0.503603981" cx="204" cy="184" r="7"></circle>
                    <path d="M120,201 C119.447715,201 119,200.552285 119,200 C119,199.447715 119.447715,199 120,199 C120.624865,199 121.243902,198.955987 121.854122,198.868909 C122.400869,198.790889 122.907342,199.170867 122.985362,199.717613 C123.063382,200.264359 122.683405,200.770832 122.136658,200.848852 C121.432923,200.949275 120.719472,201 120,201 Z M127.263006,199.127291 C126.779981,199.39507 126.171335,199.220578 125.903556,198.737553 C125.635777,198.254529 125.810269,197.645882 126.293293,197.378103 C126.835389,197.077577 127.355383,196.738515 127.849305,196.363803 C128.289301,196.030003 128.916586,196.116091 129.250386,196.556087 C129.584186,196.996082 129.498098,197.623367 129.058103,197.957167 C128.488409,198.389363 127.888528,198.780515 127.263006,199.127291 Z M132.708551,193.971709 C132.414663,194.439307 131.797356,194.580127 131.329757,194.286239 C130.862159,193.992351 130.721339,193.375044 131.015227,192.907446 C131.344955,192.382824 131.636822,191.835245 131.888316,191.268676 C132.112387,190.763888 132.703243,190.536322 133.208031,190.760392 C133.712819,190.984463 133.940386,191.575319 133.716315,192.080107 C133.425956,192.734229 133.08906,193.366289 132.708551,193.971709 Z M134.971682,186.928778 C134.937973,187.480033 134.463765,187.899587 133.91251,187.865877 C133.361255,187.832168 132.941701,187.35796 132.975411,186.806705 C132.991492,186.543724 132.999708,186.279504 132.999992,186.015318 C132.999999,185.644742 132.985769,185.28945 132.957047,184.934882 C132.912454,184.384401 133.322558,183.901998 133.873039,183.857405 C134.423521,183.812812 134.905924,184.222916 134.950517,184.773398 C134.983612,185.181948 135,185.591122 134.999991,186.016411 C134.999664,186.32166 134.990205,186.625874 134.971682,186.928778 Z M133.556843,179.572685 C133.793758,180.071574 133.581387,180.66806 133.082499,180.904976 C132.58361,181.141891 131.987124,180.92952 131.750208,180.430632 C131.484324,179.870743 131.178567,179.330738 130.835557,178.814595 C130.529875,178.35462 130.654953,177.733933 131.114928,177.42825 C131.574903,177.122568 132.195591,177.247647 132.501273,177.707621 C132.897047,178.303161 133.249918,178.926375 133.556843,179.572685 Z M128.753297,173.817583 C129.201558,174.140198 129.303415,174.765116 128.9808,175.213377 C128.658185,175.661639 128.033267,175.763495 127.585006,175.440881 C127.081831,175.078744 126.553467,174.752931 126.003894,174.46622 C125.514238,174.210769 125.324378,173.60674 125.57983,173.117084 C125.835282,172.627428 126.439311,172.437568 126.928967,172.693019 C127.563219,173.023907 128.172851,173.399834 128.753297,173.817583 Z M121.854176,171.113573 C122.402306,171.181193 122.791836,171.680356 122.724216,172.228486 C122.656596,172.776616 122.157432,173.166145 121.609302,173.098525 C121.087455,173.034148 120.559545,173.001124 120.029228,173.00003 C119.912222,173.000003 119.820491,173.000876 119.726162,173.002823 C119.173995,173.014216 118.717139,172.575832 118.705746,172.023664 C118.694353,171.471497 119.132737,171.014641 119.684904,171.003248 C119.793618,171.001005 119.899202,170.999999 120.031525,171.000032 C120.644194,171.001295 121.252501,171.039347 121.854176,171.113573 Z M114.428594,172.069057 C114.941331,171.863825 115.523359,172.113107 115.72859,172.625843 C115.933822,173.138579 115.684541,173.720607 115.171804,173.925839 C114.596342,174.156178 114.038575,174.427537 113.502442,174.737564 C113.024339,175.014034 112.412636,174.850579 112.136166,174.372476 C111.859696,173.894372 112.023151,173.28267 112.501254,173.006199 C113.120102,172.648341 113.76407,172.335045 114.428594,172.069057 Z M108.388582,176.503285 C108.738463,176.075966 109.368508,176.013191 109.795827,176.363072 C110.223146,176.712954 110.285922,177.342999 109.93604,177.770318 C109.543195,178.250109 109.184977,178.757266 108.864423,179.287843 C108.578829,179.760553 107.964103,179.912241 107.491393,179.626648 C107.018682,179.341055 106.866994,178.726328 107.152588,178.253618 C107.52239,177.641526 107.935554,177.05658 108.388582,176.503285 Z M105.255713,183.228465 C105.357169,182.685579 105.879512,182.327729 106.422397,182.429186 C106.965283,182.530642 107.323133,183.052985 107.221676,183.595871 C107.108401,184.201998 107.038075,184.818239 107.011766,185.44146 C106.988472,185.993254 106.522272,186.421687 105.970478,186.398393 C105.418685,186.375099 104.990252,185.908899 105.013545,185.357106 C105.043869,184.638781 105.12499,183.927952 105.255713,183.228465 Z M105.751211,190.699551 C105.578305,190.17503 105.863344,189.609654 106.387864,189.436747 C106.912385,189.26384 107.477761,189.548879 107.650668,190.0734 C107.844877,190.662541 108.081103,191.236106 108.357258,191.790232 C108.603599,192.284534 108.402587,192.884944 107.908285,193.131285 C107.413983,193.377626 106.813573,193.176614 106.567232,192.682312 C106.248356,192.042464 105.975532,191.380038 105.751211,190.699551 Z M109.798705,196.997064 C109.393887,196.621377 109.370273,195.988652 109.74596,195.583835 C110.121648,195.179017 110.754372,195.155402 111.15919,195.53109 C111.613653,195.95285 112.097575,196.341831 112.607093,196.694761 C113.0611,197.00924 113.17421,197.632219 112.859732,198.086226 C112.545254,198.540232 111.922274,198.653343 111.468267,198.338864 C110.880665,197.931848 110.322677,197.483332 109.798705,196.997064 Z M116.323019,200.545786 C115.787484,200.410804 115.462771,199.867242 115.597754,199.331706 C115.732736,198.796171 116.276298,198.471458 116.811833,198.606441 C117.410325,198.757291 118.020892,198.865503 118.640199,198.929816 C119.18953,198.986861 119.588606,199.478426 119.53156,200.027757 C119.474515,200.577088 118.98295,200.976164 118.433619,200.919118 C117.719014,200.84491 117.014131,200.719981 116.323019,200.545786 Z" id="Oval" fill="#FF3232" fill-rule="nonzero" opacity="0.5"></path>
                    <circle id="Oval" fill="#FF4E4E" fill-rule="nonzero" opacity="0.503603981" cx="120" cy="184" r="7"></circle>
                </g>
                <path d="M128.001478,61.4634213 C136.531099,51.3928518 149.268984,45 163.5,45 C177.248091,45 189.60267,50.9663352 198.115741,60.4510092 C203.125142,58.2324218 208.668647,57 214.5,57 C236.867532,57 255,75.1324676 255,97.5 C255,119.867532 236.867532,138 214.5,138 C205.281178,138 196.781763,134.919852 189.97474,129.732539 C182.461202,134.945232 173.33734,138 163.5,138 C152.965882,138 143.249894,134.497169 135.453267,128.592737 C128.425006,134.465585 119.375256,138 109.5,138 C87.1324676,138 69,119.867532 69,97.5 C69,75.1324676 87.1324676,57 109.5,57 C116.165906,57 122.455678,58.6104199 128.001478,61.4634213 Z" id="Combined-Shape" fill="#34709B" fill-rule="nonzero"></path>
            </g>
            <polygon id="Path-5" fill="#DEF5FF" fill-rule="nonzero" points="218.515542 267 252 324 203 324 190 274.69271"></polygon>
            <g id="手" transform="translate(201.222797, 233.115299) scale(-1, 1) rotate(-323.000000) translate(-201.222797, -233.115299) translate(164.722797, 193.115299)">
                <path d="M24.0564065,56.7452877 C26.289358,58.7364534 37.2511201,63.7143678 39.4840717,61.7232021 C41.7170232,59.5329197 36.0331466,52.3647231 33.5971994,50.5726739 L20.1994902,40.6168452 C12.4856576,34.8424646 2.78224853,38.2350277 5.98979856,41.6124281 C8.12816524,43.8640284 14.1503679,48.9083149 24.0564065,56.7452877 Z" id="Path" fill="#FFDFD2"></path>
                <path d="M22.5106977,21.0747707 C23.32268,16.4950895 30.9638143,15.3070866 33.3997615,19.4885347 C33.6027571,14.7097369 40.3016117,13.5150374 43.3465456,16.9000192 C44.3615236,12.5194546 51.2633738,12.1212214 53.4963254,16.7009026 L61.0071624,36.0152103 C63.6461051,41.9887075 63.8491007,51.1480699 62.6311271,55.329518 C58.9772064,67.6747455 42.5345632,68.0729787 36.647691,64.2897638 C32.1817879,61.3030152 28.5278672,59.7100826 27.106898,56.5242174 L1.7324487,7.54154023 C-1.71847641,0.174227002 6.76020978,-2.73068163 9.39915251,3.44193216 L22.5106977,21.0747707 Z" id="Path" fill="#FFDFD2"></path>
                <path d="M68.9239906,55.1304014 C71.7659289,63.0950643 72.9839024,67.0773958 72.9839024,67.0773958 C72.9839024,67.0773958 53.0903342,74.0464759 42.3315676,79.0243902 L37.662669,67.0773958 L68.9239906,55.1304014 Z" id="Path" fill="#2A5F85"></path>
            </g>
            <g id="Group-3" transform="translate(124.500000, 251.500000) scale(-1, 1) translate(-124.500000, -251.500000) translate(71.000000, 179.000000)">
                <polygon id="Path-5" fill="#DEF5FF" fill-rule="nonzero" points="70.5155418 88 106.640277 144.5 53 145 42 95.6927103"></polygon>
                <g id="手" transform="translate(53.578117, 54.115299) scale(-1, 1) rotate(-323.000000) translate(-53.578117, -54.115299) translate(17.078117, 14.115299)">
                    <path d="M24.0564065,56.7452877 C26.289358,58.7364534 37.2511201,63.7143678 39.4840717,61.7232021 C41.7170232,59.5329197 36.0331466,52.3647231 33.5971994,50.5726739 L20.1994902,40.6168452 C12.4856576,34.8424646 2.78224853,38.2350277 5.98979856,41.6124281 C8.12816524,43.8640284 14.1503679,48.9083149 24.0564065,56.7452877 Z" id="Path" fill="#FFDFD2"></path>
                    <path d="M22.5106977,21.0747707 C23.32268,16.4950895 30.9638143,15.3070866 33.3997615,19.4885347 C33.6027571,14.7097369 40.3016117,13.5150374 43.3465456,16.9000192 C44.3615236,12.5194546 51.2633738,12.1212214 53.4963254,16.7009026 L61.0071624,36.0152103 C63.6461051,41.9887075 63.8491007,51.1480699 62.6311271,55.329518 C58.9772064,67.6747455 42.5345632,68.0729787 36.647691,64.2897638 C32.1817879,61.3030152 28.5278672,59.7100826 27.106898,56.5242174 L1.7324487,7.54154023 C-1.71847641,0.174227002 6.76020978,-2.73068163 9.39915251,3.44193216 L22.5106977,21.0747707 Z" id="Path" fill="#FFDFD2"></path>
                    <path d="M68.9239906,55.1304014 C71.7659289,63.0950643 72.9839024,67.0773958 72.9839024,67.0773958 C72.9839024,67.0773958 53.0903342,74.0464759 42.3315676,79.0243902 L37.662669,67.0773958 L68.9239906,55.1304014 Z" id="Path" fill="#2A5F85"></path>
                </g>
            </g>
        </g>
    </g>
</svg>