<?xml version="1.0" encoding="UTF-8"?>
<svg width="324px" height="325px" viewBox="0 0 324 325" version="1.1" xmlns="http://www.w3.org/2000/svg" xmlns:xlink="http://www.w3.org/1999/xlink">
    <!-- Generator: Sketch 53.2 (72643) - https://sketchapp.com -->
    <title>eye exercise-2</title>
    <desc>Created with Sketch.</desc>
    <defs>
        <path d="M82.8423892,0.0311374805 L127.238331,0.0311374805 C165.131642,0.0311374805 207.85024,30.8560164 207.85024,68.8804316 L207.85024,111 L2.23048005,111 L2.23048005,68.8399322 C2.25276101,30.8313341 44.964834,0.0311310792 82.8423892,0.0311374805 Z" id="path-1"></path>
    </defs>
    <g id="eye-exercise-2" stroke="none" stroke-width="1" fill="none" fill-rule="evenodd">
        <g id="Group-4">
            <g id="Group">
                <g id="小助手">
                    <g transform="translate(57.000000, 42.000000)">
                        <g id="Path-+-Path-+-Path-2-Mask" transform="translate(0.000000, 213.000000)">
                            <mask id="mask-2" fill="white">
                                <use xlink:href="#path-1"></use>
                            </mask>
                            <use id="Mask" fill="#D0F0FE" xlink:href="#path-1"></use>
                            <path d="M158.27513,47.2131537 L164.773081,35.9542692 C165.014938,35.4273788 165.014938,34.8206767 164.773081,34.2937863 L153.431936,5.25558401 C152.180778,4.72908939 150.929619,4.24309445 149.638101,3.79759888 L149.234502,3.79759888 C142.149504,1.38741838 134.719384,0.156180916 127.238331,0.152636215 L82.8423892,0.152636215 C75.3613358,0.156180916 67.9312158,1.38741838 60.8462182,3.79759888 L60.4426187,3.79759888 C59.1511005,4.24309445 57.8999422,4.72908939 56.648784,5.25558401 L45.1058391,34.2937863 C44.8639818,34.8206767 44.8639818,35.4273788 45.1058391,35.9542692 L51.6037906,47.2131537 C51.8248168,47.702176 51.8248168,48.2631159 51.6037906,48.7521382 L46.8816767,64.3444781 C46.6118852,65.237263 46.9982447,66.1980753 47.8099555,66.6529547 L105,95.8126557 L162.190044,66.6529547 C163.001755,66.1980753 163.388115,65.237263 163.118323,64.3444781 L158.11369,48.7521382 C157.942589,48.2399197 158.001493,47.6783958 158.27513,47.2131537 Z" id="Path" fill="#EFFCFF" mask="url(#mask-2)"></path>
                            <path d="M105,95.8126557 C75.9811982,80.5443123 63.3888951,40.4092236 60.8462182,3.67610014 C67.9312158,1.26591965 75.3613358,0.0346821814 82.8423892,0.0311374805 L127.238331,0.0311374805 C134.692294,0.0434967176 142.094441,1.27461675 149.153782,3.67610014 C146.611105,40.4092236 134.018802,80.6253113 105,95.8126557 Z" id="Path" fill="#2A5F85" mask="url(#mask-2)"></path>
                            <polygon id="Path-4" fill="#5D82DD" fill-rule="nonzero" mask="url(#mask-2)" points="99.7235177 31.5 90 87 105 96 120 87 109.5 31.5"></polygon>
                            <polygon id="Path-3" fill="#7D9FF3" fill-rule="nonzero" mask="url(#mask-2)" points="97.5 42 112.21519 42 117 27 93 27"></polygon>
                        </g>
                        <g id="Group-2" transform="translate(12.000000, 54.000000)" fill="#2A5F85" fill-rule="nonzero">
                            <path d="M21,78 C6.70686209,74 0.633577615,56 2.78014657,24 C4.92671552,-8 11,-7 21,27 L21,78 Z" id="Path-8"></path>
                            <path d="M183,78 C168.706862,74 162.633578,56 164.780147,24 C166.926716,-8 173,-7 183,27 L183,78 Z" id="Path-8" transform="translate(173.679862, 39.363636) scale(-1, 1) translate(-173.679862, -39.363636) "></path>
                        </g>
                        <path d="M31.9054626,120.246589 L178.129186,120.246589 C181.775487,120.19245 185.287849,121.909419 187.882023,125.014126 C190.476196,128.118832 191.936135,132.352715 191.935861,136.770419 C191.935861,141.152811 190.498844,145.355712 187.940937,148.454532 C185.38303,151.553351 181.913764,153.29425 178.296337,153.29425 L31.9054626,153.29425 C24.3725614,153.29425 18.2659385,145.896279 18.2659385,136.770419 C18.2659387,127.64456 24.3725615,120.246589 31.9054626,120.246589 L31.9054626,120.246589 Z" id="Path" fill="#F4C4B3"></path>
                        <polygon id="Path" fill="#F2AC94" points="80.4207925 187.678397 80.4207925 214.324094 105 240 129.579208 214.324094 129.579208 187.678397"></polygon>
                        <path d="M178.777983,76.0615414 L178.777983,132.76096 C176.935198,172.259029 144.485716,203.332019 105.08072,203.332019 C65.6757239,203.332019 33.2262414,172.259029 31.3834573,132.76096 L31.3834573,84.1614585 C39.4474027,87.7164437 48.1638692,89.5375072 56.9716634,89.5074034 C74.2905198,89.9533512 90.8797225,82.5085398 102.094084,69.257611 C105.905881,70.1423144 109.80532,70.590671 113.717749,70.5940974 C126.723227,70.9224859 139.249416,65.6618515 148.144783,56.1357455 C148.211287,68.2626701 158.015319,78.0644527 170.100594,78.0865205 C173.101739,78.0229639 176.056857,77.3333495 178.777983,76.0615414 Z" id="Path" fill="#FFD2C0"></path>
                        <path d="M93.2990952,166.324867 C90.1958223,163.90668 88.4524218,160.626914 88.4524219,157.207081 L88.4524219,150.445333 C88.4522785,150.122848 88.6193904,149.814005 88.9157999,149.588953 C89.2122095,149.363902 89.6127561,149.241747 90.0264599,149.250233 L119.97354,149.250233 C120.387244,149.241747 120.787791,149.363902 121.0842,149.588953 C121.38061,149.814005 121.547722,150.122848 121.547578,150.445333 L121.547578,157.301431 C121.481052,164.385991 114.091898,170.101767 105,170.101578 C100.611309,170.101578 96.4023681,168.743054 93.2990952,166.324867 Z" id="Path" fill="#EC735A"></path>
                        <path d="M60,216.393525 L87,244.5 L105,240 L80.4074421,213 C76.6233289,212.820761 73.1519582,213.045026 69.9933298,213.672794 C66.8347015,214.300561 63.5035916,215.207472 60,216.393525 Z" id="Path-2" fill="#3B83B2" fill-rule="nonzero"></path>
                        <path d="M105,216.393525 L132,244.5 L150,240 L125.407442,213 C121.623329,212.820761 118.151958,213.045026 114.99333,213.672794 C111.834702,214.300561 108.503592,215.207472 105,216.393525 Z" id="Path-2" fill="#3B83B2" fill-rule="nonzero" transform="translate(127.500000, 228.720143) scale(-1, 1) translate(-127.500000, -228.720143) "></path>
                    </g>
                    <path d="M186.508979,172.327908 C185.115591,171.43145 184.712751,169.575163 185.609209,168.181775 C186.505668,166.788388 188.361954,166.385548 189.755342,167.282006 C195.76669,171.149505 201.497631,171.149505 207.508979,167.282006 C208.902366,166.385548 210.758653,166.788388 211.655111,168.181775 C212.55157,169.575163 212.148729,171.43145 210.755342,172.327908 C202.76669,177.467537 194.497631,177.467537 186.508979,172.327908 Z" id="Path-6" fill="#2B2F52" fill-rule="nonzero"></path>
                    <path d="M113.008979,172.327908 C111.615591,171.43145 111.212751,169.575163 112.109209,168.181775 C113.005668,166.788388 114.861954,166.385548 116.255342,167.282006 C122.26669,171.149505 127.997631,171.149505 134.008979,167.282006 C135.402366,166.385548 137.258653,166.788388 138.155111,168.181775 C139.05157,169.575163 138.648729,171.43145 137.255342,172.327908 C129.26669,177.467537 120.997631,177.467537 113.008979,172.327908 Z" id="Path-6" fill="#2B2F52" fill-rule="nonzero"></path>
                    <path d="M186.523535,160.923035 L185.990463,160.076965 C194.464779,154.737661 203.256329,155.019612 212.273351,160.906934 L211.726649,161.744262 C203.029385,156.065714 194.658935,155.797267 186.523535,160.923035 Z" id="Path-11" fill="#F3BDA6" fill-rule="nonzero"></path>
                    <path d="M179,186 C178.447715,186 178,185.552285 178,185 C178,184.447715 178.447715,184 179,184 C179.624865,184 180.243902,183.955987 180.854122,183.868909 C181.400869,183.790889 181.907342,184.170867 181.985362,184.717613 C182.063382,185.264359 181.683405,185.770832 181.136658,185.848852 C180.432923,185.949275 179.719472,186 179,186 Z M186.263006,184.127291 C185.779981,184.39507 185.171335,184.220578 184.903556,183.737553 C184.635777,183.254529 184.810269,182.645882 185.293293,182.378103 C185.835389,182.077577 186.355383,181.738515 186.849305,181.363803 C187.289301,181.030003 187.916586,181.116091 188.250386,181.556087 C188.584186,181.996082 188.498098,182.623367 188.058103,182.957167 C187.488409,183.389363 186.888528,183.780515 186.263006,184.127291 Z M191.708551,178.971709 C191.414663,179.439307 190.797356,179.580127 190.329757,179.286239 C189.862159,178.992351 189.721339,178.375044 190.015227,177.907446 C190.344955,177.382824 190.636822,176.835245 190.888316,176.268676 C191.112387,175.763888 191.703243,175.536322 192.208031,175.760392 C192.712819,175.984463 192.940386,176.575319 192.716315,177.080107 C192.425956,177.734229 192.08906,178.366289 191.708551,178.971709 Z M193.971682,171.928778 C193.937973,172.480033 193.463765,172.899587 192.91251,172.865877 C192.361255,172.832168 191.941701,172.35796 191.975411,171.806705 C191.991492,171.543724 191.999708,171.279504 191.999992,171.015318 C191.999999,170.644742 191.985769,170.28945 191.957047,169.934882 C191.912454,169.384401 192.322558,168.901998 192.873039,168.857405 C193.423521,168.812812 193.905924,169.222916 193.950517,169.773398 C193.983612,170.181948 194,170.591122 193.999991,171.016411 C193.999664,171.32166 193.990205,171.625874 193.971682,171.928778 Z M192.556843,164.572685 C192.793758,165.071574 192.581387,165.66806 192.082499,165.904976 C191.58361,166.141891 190.987124,165.92952 190.750208,165.430632 C190.484324,164.870743 190.178567,164.330738 189.835557,163.814595 C189.529875,163.35462 189.654953,162.733933 190.114928,162.42825 C190.574903,162.122568 191.195591,162.247647 191.501273,162.707621 C191.897047,163.303161 192.249918,163.926375 192.556843,164.572685 Z M187.753297,158.817583 C188.201558,159.140198 188.303415,159.765116 187.9808,160.213377 C187.658185,160.661639 187.033267,160.763495 186.585006,160.440881 C186.081831,160.078744 185.553467,159.752931 185.003894,159.46622 C184.514238,159.210769 184.324378,158.60674 184.57983,158.117084 C184.835282,157.627428 185.439311,157.437568 185.928967,157.693019 C186.563219,158.023907 187.172851,158.399834 187.753297,158.817583 Z M180.854176,156.113573 C181.402306,156.181193 181.791836,156.680356 181.724216,157.228486 C181.656596,157.776616 181.157432,158.166145 180.609302,158.098525 C180.087455,158.034148 179.559545,158.001124 179.029228,158.00003 C178.912222,158.000003 178.820491,158.000876 178.726162,158.002823 C178.173995,158.014216 177.717139,157.575832 177.705746,157.023664 C177.694353,156.471497 178.132737,156.014641 178.684904,156.003248 C178.793618,156.001005 178.899202,155.999999 179.031525,156.000032 C179.644194,156.001295 180.252501,156.039347 180.854176,156.113573 Z M173.428594,157.069057 C173.941331,156.863825 174.523359,157.113107 174.72859,157.625843 C174.933822,158.138579 174.684541,158.720607 174.171804,158.925839 C173.596342,159.156178 173.038575,159.427537 172.502442,159.737564 C172.024339,160.014034 171.412636,159.850579 171.136166,159.372476 C170.859696,158.894372 171.023151,158.28267 171.501254,158.006199 C172.120102,157.648341 172.76407,157.335045 173.428594,157.069057 Z M167.388582,161.503285 C167.738463,161.075966 168.368508,161.013191 168.795827,161.363072 C169.223146,161.712954 169.285922,162.342999 168.93604,162.770318 C168.543195,163.250109 168.184977,163.757266 167.864423,164.287843 C167.578829,164.760553 166.964103,164.912241 166.491393,164.626648 C166.018682,164.341055 165.866994,163.726328 166.152588,163.253618 C166.52239,162.641526 166.935554,162.05658 167.388582,161.503285 Z M164.255713,168.228465 C164.357169,167.685579 164.879512,167.327729 165.422397,167.429186 C165.965283,167.530642 166.323133,168.052985 166.221676,168.595871 C166.108401,169.201998 166.038075,169.818239 166.011766,170.44146 C165.988472,170.993254 165.522272,171.421687 164.970478,171.398393 C164.418685,171.375099 163.990252,170.908899 164.013545,170.357106 C164.043869,169.638781 164.12499,168.927952 164.255713,168.228465 Z M164.751211,175.699551 C164.578305,175.17503 164.863344,174.609654 165.387864,174.436747 C165.912385,174.26384 166.477761,174.548879 166.650668,175.0734 C166.844877,175.662541 167.081103,176.236106 167.357258,176.790232 C167.603599,177.284534 167.402587,177.884944 166.908285,178.131285 C166.413983,178.377626 165.813573,178.176614 165.567232,177.682312 C165.248356,177.042464 164.975532,176.380038 164.751211,175.699551 Z M168.798705,181.997064 C168.393887,181.621377 168.370273,180.988652 168.74596,180.583835 C169.121648,180.179017 169.754372,180.155402 170.15919,180.53109 C170.613653,180.95285 171.097575,181.341831 171.607093,181.694761 C172.0611,182.00924 172.17421,182.632219 171.859732,183.086226 C171.545254,183.540232 170.922274,183.653343 170.468267,183.338864 C169.880665,182.931848 169.322677,182.483332 168.798705,181.997064 Z M175.323019,185.545786 C174.787484,185.410804 174.462771,184.867242 174.597754,184.331706 C174.732736,183.796171 175.276298,183.471458 175.811833,183.606441 C176.410325,183.757291 177.020892,183.865503 177.640199,183.929816 C178.18953,183.986861 178.588606,184.478426 178.53156,185.027757 C178.474515,185.577088 177.98295,185.976164 177.433619,185.919118 C176.719014,185.84491 176.014131,185.719981 175.323019,185.545786 Z" id="Oval" fill="#FF3232" fill-rule="nonzero" opacity="0.5"></path>
                    <circle id="Oval" fill="#FF4E4E" fill-rule="nonzero" opacity="0.503603981" cx="174" cy="169" r="7"></circle>
                    <path d="M151,185 C150.447715,185 150,184.552285 150,184 C150,183.447715 150.447715,183 151,183 C151.624865,183 152.243902,182.955987 152.854122,182.868909 C153.400869,182.790889 153.907342,183.170867 153.985362,183.717613 C154.063382,184.264359 153.683405,184.770832 153.136658,184.848852 C152.432923,184.949275 151.719472,185 151,185 Z M158.263006,183.127291 C157.779981,183.39507 157.171335,183.220578 156.903556,182.737553 C156.635777,182.254529 156.810269,181.645882 157.293293,181.378103 C157.835389,181.077577 158.355383,180.738515 158.849305,180.363803 C159.289301,180.030003 159.916586,180.116091 160.250386,180.556087 C160.584186,180.996082 160.498098,181.623367 160.058103,181.957167 C159.488409,182.389363 158.888528,182.780515 158.263006,183.127291 Z M163.708551,177.971709 C163.414663,178.439307 162.797356,178.580127 162.329757,178.286239 C161.862159,177.992351 161.721339,177.375044 162.015227,176.907446 C162.344955,176.382824 162.636822,175.835245 162.888316,175.268676 C163.112387,174.763888 163.703243,174.536322 164.208031,174.760392 C164.712819,174.984463 164.940386,175.575319 164.716315,176.080107 C164.425956,176.734229 164.08906,177.366289 163.708551,177.971709 Z M165.971682,170.928778 C165.937973,171.480033 165.463765,171.899587 164.91251,171.865877 C164.361255,171.832168 163.941701,171.35796 163.975411,170.806705 C163.991492,170.543724 163.999708,170.279504 163.999992,170.015318 C163.999999,169.644742 163.985769,169.28945 163.957047,168.934882 C163.912454,168.384401 164.322558,167.901998 164.873039,167.857405 C165.423521,167.812812 165.905924,168.222916 165.950517,168.773398 C165.983612,169.181948 166,169.591122 165.999991,170.016411 C165.999664,170.32166 165.990205,170.625874 165.971682,170.928778 Z M164.556843,163.572685 C164.793758,164.071574 164.581387,164.66806 164.082499,164.904976 C163.58361,165.141891 162.987124,164.92952 162.750208,164.430632 C162.484324,163.870743 162.178567,163.330738 161.835557,162.814595 C161.529875,162.35462 161.654953,161.733933 162.114928,161.42825 C162.574903,161.122568 163.195591,161.247647 163.501273,161.707621 C163.897047,162.303161 164.249918,162.926375 164.556843,163.572685 Z M159.753297,157.817583 C160.201558,158.140198 160.303415,158.765116 159.9808,159.213377 C159.658185,159.661639 159.033267,159.763495 158.585006,159.440881 C158.081831,159.078744 157.553467,158.752931 157.003894,158.46622 C156.514238,158.210769 156.324378,157.60674 156.57983,157.117084 C156.835282,156.627428 157.439311,156.437568 157.928967,156.693019 C158.563219,157.023907 159.172851,157.399834 159.753297,157.817583 Z M152.854176,155.113573 C153.402306,155.181193 153.791836,155.680356 153.724216,156.228486 C153.656596,156.776616 153.157432,157.166145 152.609302,157.098525 C152.087455,157.034148 151.559545,157.001124 151.029228,157.00003 C150.912222,157.000003 150.820491,157.000876 150.726162,157.002823 C150.173995,157.014216 149.717139,156.575832 149.705746,156.023664 C149.694353,155.471497 150.132737,155.014641 150.684904,155.003248 C150.793618,155.001005 150.899202,154.999999 151.031525,155.000032 C151.644194,155.001295 152.252501,155.039347 152.854176,155.113573 Z M145.428594,156.069057 C145.941331,155.863825 146.523359,156.113107 146.72859,156.625843 C146.933822,157.138579 146.684541,157.720607 146.171804,157.925839 C145.596342,158.156178 145.038575,158.427537 144.502442,158.737564 C144.024339,159.014034 143.412636,158.850579 143.136166,158.372476 C142.859696,157.894372 143.023151,157.28267 143.501254,157.006199 C144.120102,156.648341 144.76407,156.335045 145.428594,156.069057 Z M139.388582,160.503285 C139.738463,160.075966 140.368508,160.013191 140.795827,160.363072 C141.223146,160.712954 141.285922,161.342999 140.93604,161.770318 C140.543195,162.250109 140.184977,162.757266 139.864423,163.287843 C139.578829,163.760553 138.964103,163.912241 138.491393,163.626648 C138.018682,163.341055 137.866994,162.726328 138.152588,162.253618 C138.52239,161.641526 138.935554,161.05658 139.388582,160.503285 Z M136.255713,167.228465 C136.357169,166.685579 136.879512,166.327729 137.422397,166.429186 C137.965283,166.530642 138.323133,167.052985 138.221676,167.595871 C138.108401,168.201998 138.038075,168.818239 138.011766,169.44146 C137.988472,169.993254 137.522272,170.421687 136.970478,170.398393 C136.418685,170.375099 135.990252,169.908899 136.013545,169.357106 C136.043869,168.638781 136.12499,167.927952 136.255713,167.228465 Z M136.751211,174.699551 C136.578305,174.17503 136.863344,173.609654 137.387864,173.436747 C137.912385,173.26384 138.477761,173.548879 138.650668,174.0734 C138.844877,174.662541 139.081103,175.236106 139.357258,175.790232 C139.603599,176.284534 139.402587,176.884944 138.908285,177.131285 C138.413983,177.377626 137.813573,177.176614 137.567232,176.682312 C137.248356,176.042464 136.975532,175.380038 136.751211,174.699551 Z M140.798705,180.997064 C140.393887,180.621377 140.370273,179.988652 140.74596,179.583835 C141.121648,179.179017 141.754372,179.155402 142.15919,179.53109 C142.613653,179.95285 143.097575,180.341831 143.607093,180.694761 C144.0611,181.00924 144.17421,181.632219 143.859732,182.086226 C143.545254,182.540232 142.922274,182.653343 142.468267,182.338864 C141.880665,181.931848 141.322677,181.483332 140.798705,180.997064 Z M147.323019,184.545786 C146.787484,184.410804 146.462771,183.867242 146.597754,183.331706 C146.732736,182.796171 147.276298,182.471458 147.811833,182.606441 C148.410325,182.757291 149.020892,182.865503 149.640199,182.929816 C150.18953,182.986861 150.588606,183.478426 150.53156,184.027757 C150.474515,184.577088 149.98295,184.976164 149.433619,184.919118 C148.719014,184.84491 148.014131,184.719981 147.323019,184.545786 Z" id="Oval" fill="#FF3232" fill-rule="nonzero" opacity="0.5"></path>
                    <circle id="Oval" fill="#FF4E4E" fill-rule="nonzero" opacity="0.503603981" cx="156" cy="169" r="7"></circle>
                    <path d="M112.266536,161.15135 L111.733464,160.305281 C120.20778,154.965976 128.99933,155.247928 138.016351,161.13525 L137.46965,161.972577 C128.772386,156.29403 120.401936,156.025583 112.266536,161.15135 Z" id="Path-11" fill="#F3BDA6" fill-rule="nonzero"></path>
                </g>
                <path d="M128.001478,61.4634213 C136.531099,51.3928518 149.268984,45 163.5,45 C177.248091,45 189.60267,50.9663352 198.115741,60.4510092 C203.125142,58.2324218 208.668647,57 214.5,57 C236.867532,57 255,75.1324676 255,97.5 C255,119.867532 236.867532,138 214.5,138 C205.281178,138 196.781763,134.919852 189.97474,129.732539 C182.461202,134.945232 173.33734,138 163.5,138 C152.965882,138 143.249894,134.497169 135.453267,128.592737 C128.425006,134.465585 119.375256,138 109.5,138 C87.1324676,138 69,119.867532 69,97.5 C69,75.1324676 87.1324676,57 109.5,57 C116.165906,57 122.455678,58.6104199 128.001478,61.4634213 Z" id="Combined-Shape" fill="#34709B" fill-rule="nonzero"></path>
            </g>
            <g id="Group-3" transform="translate(151.500000, 239.500000) scale(-1, 1) translate(-151.500000, -239.500000) translate(84.000000, 154.000000)">
                <polygon id="Path-5" fill="#DEF5FF" fill-rule="nonzero" points="73.5475782 88.7217506 135 170 69 170 43.8618236 96.5897132"></polygon>
                <g id="手" transform="translate(53.821227, 54.107782) scale(-1, 1) rotate(-323.000000) translate(-53.821227, -54.107782) translate(17.821227, 13.607782)">
                    <polygon id="Path" fill="#FFDFD2" points="38.5590084 53.1521595 42.3129929 79.0842036 67.8806107 69.2566155 61.1634141 48.5473445"></polygon>
                    <path d="M12.7328072,33.2805386 C14.9657587,35.2717043 39.6831489,51.5475471 41.9161005,49.5563814 C43.5825888,47.9217378 35.3780606,33.6156432 32.8664612,30.7397946 C32.0127327,29.7622525 17.4849592,24.723688 16.8669994,24.2690745 C13.6540457,21.0281444 11.238195,18.7753272 9.6194474,17.510623 C7.19132599,15.6135666 0.694806233,15.1030427 3.53073632,19.0613175 C5.42135638,21.7001674 8.48871334,26.4399077 12.7328072,33.2805386 Z" id="Path" fill="#FFDFD2" transform="translate(22.482492, 32.898739) rotate(10.000000) translate(-22.482492, -32.898739) "></path>
                    <path d="M29.8198556,8.73980211 C30.6318379,4.16012092 35.7665561,3.89280763 38.2025032,8.07425568 C38.4054988,3.29545791 45.4494375,3.26569171 47.3940929,7.34159267 C47.809275,2.98032565 53.3307715,4.5222206 55.5637231,9.1019018 L62.6938934,25.7049761 C65.3328362,31.6784733 65.5501697,38.5413011 64.3321961,42.7227491 C60.6782754,55.0679767 45.8084197,57.2917797 39.9215474,53.5085648 C35.4556443,50.5218162 31.8017236,48.9288836 30.3807545,45.7430184 L19.6514035,11.7001614 L14.6224025,8.95125704 C9.82694987,6.91912915 7.89324017,2.803146 16.8609805,3.63454249 C21.336972,3.92693949 23.8849924,4.19523057 24.5050416,4.43941572 C25.879588,4.98073375 27.6511927,6.41419588 29.8198556,8.73980211 Z" id="Path" fill="#FFDFD2" transform="translate(37.812374, 29.354717) rotate(6.000000) translate(-37.812374, -29.354717) "></path>
                    <path d="M67.1942137,56.6933759 C70.0361521,64.6580388 71.2541256,68.6403703 71.2541256,68.6403703 C71.2541256,68.6403703 51.3605574,75.6094504 40.6017908,80.5873647 L35.9328922,68.6403703 L67.1942137,56.6933759 Z" id="Path" fill="#2A5F85"></path>
                </g>
            </g>
        </g>
    </g>
</svg>