<?xml version="1.0" encoding="UTF-8"?>
<svg width="324px" height="324px" viewBox="0 0 324 324" version="1.1" xmlns="http://www.w3.org/2000/svg" xmlns:xlink="http://www.w3.org/1999/xlink">
    <!-- Generator: Sketch 53.2 (72643) - https://sketchapp.com -->
    <title>eye exercise-1</title>
    <desc>Created with Sketch.</desc>
    <defs>
        <path d="M80.8423892,0.0311374805 L125.238331,0.0311374805 C163.131642,0.0311374805 205.85024,30.8560164 205.85024,68.8804316 L205.85024,111 L0.230480045,111 L0.230480045,68.8399322 C0.252761014,30.8313341 42.964834,0.0311310792 80.8423892,0.0311374805 Z" id="path-1"></path>
    </defs>
    <g id="eye-exercise-1" stroke="none" stroke-width="1" fill="none" fill-rule="evenodd">
        <g id="Group-4">
            <g id="Group">
                <g id="小助手">
                    <g transform="translate(59.000000, 42.000000)">
                        <g id="Path-+-Path-+-Path-2-Mask" transform="translate(0.000000, 213.000000)">
                            <mask id="mask-2" fill="white">
                                <use xlink:href="#path-1"></use>
                            </mask>
                            <use id="Mask" fill="#D0F0FE" xlink:href="#path-1"></use>
                            <path d="M156.27513,47.2131537 L162.773081,35.9542692 C163.014938,35.4273788 163.014938,34.8206767 162.773081,34.2937863 L151.431936,5.25558401 C150.180778,4.72908939 148.929619,4.24309445 147.638101,3.79759888 L147.234502,3.79759888 C140.149504,1.38741838 132.719384,0.156180916 125.238331,0.152636215 L80.8423892,0.152636215 C73.3613358,0.156180916 65.9312158,1.38741838 58.8462182,3.79759888 L58.4426187,3.79759888 C57.1511005,4.24309445 55.8999422,4.72908939 54.648784,5.25558401 L43.1058391,34.2937863 C42.8639818,34.8206767 42.8639818,35.4273788 43.1058391,35.9542692 L49.6037906,47.2131537 C49.8248168,47.702176 49.8248168,48.2631159 49.6037906,48.7521382 L44.8816767,64.3444781 C44.6118852,65.237263 44.9982447,66.1980753 45.8099555,66.6529547 L103,95.8126557 L160.190044,66.6529547 C161.001755,66.1980753 161.388115,65.237263 161.118323,64.3444781 L156.11369,48.7521382 C155.942589,48.2399197 156.001493,47.6783958 156.27513,47.2131537 Z" id="Path" fill="#EFFCFF" mask="url(#mask-2)"></path>
                            <path d="M103,95.8126557 C73.9811982,80.5443123 61.3888951,40.4092236 58.8462182,3.67610014 C65.9312158,1.26591965 73.3613358,0.0346821814 80.8423892,0.0311374805 L125.238331,0.0311374805 C132.692294,0.0434967176 140.094441,1.27461675 147.153782,3.67610014 C144.611105,40.4092236 132.018802,80.6253113 103,95.8126557 Z" id="Path" fill="#2A5F85" mask="url(#mask-2)"></path>
                            <polygon id="Path-4" fill="#5D82DD" fill-rule="nonzero" mask="url(#mask-2)" points="97.7235177 31.5 88 87 103 96 118 87 107.5 31.5"></polygon>
                            <polygon id="Path-3" fill="#7D9FF3" fill-rule="nonzero" mask="url(#mask-2)" points="95.5 42 110.21519 42 115 27 91 27"></polygon>
                        </g>
                        <g id="Group-2" transform="translate(10.000000, 54.000000)" fill="#2A5F85" fill-rule="nonzero">
                            <path d="M21,78 C6.70686209,74 0.633577615,56 2.78014657,24 C4.92671552,-8 11,-7 21,27 L21,78 Z" id="Path-8"></path>
                            <path d="M183,78 C168.706862,74 162.633578,56 164.780147,24 C166.926716,-8 173,-7 183,27 L183,78 Z" id="Path-8" transform="translate(173.679862, 39.363636) scale(-1, 1) translate(-173.679862, -39.363636) "></path>
                        </g>
                        <path d="M29.9054626,120.246589 L176.129186,120.246589 C179.775487,120.19245 183.287849,121.909419 185.882023,125.014126 C188.476196,128.118832 189.936135,132.352715 189.935861,136.770419 C189.935861,141.152811 188.498844,145.355712 185.940937,148.454532 C183.38303,151.553351 179.913764,153.29425 176.296337,153.29425 L29.9054626,153.29425 C22.3725614,153.29425 16.2659385,145.896279 16.2659385,136.770419 C16.2659387,127.64456 22.3725615,120.246589 29.9054626,120.246589 L29.9054626,120.246589 Z" id="Path" fill="#F4C4B3"></path>
                        <polygon id="Path" fill="#F2AC94" points="78.4207925 187.678397 78.4207925 214.324094 103 240 127.579208 214.324094 127.579208 187.678397"></polygon>
                        <path d="M176.777983,76.0615414 L176.777983,132.76096 C174.935198,172.259029 142.485716,203.332019 103.08072,203.332019 C63.6757239,203.332019 31.2262414,172.259029 29.3834573,132.76096 L29.3834573,84.1614585 C37.4474027,87.7164437 46.1638692,89.5375072 54.9716634,89.5074034 C72.2905198,89.9533512 88.8797225,82.5085398 100.094084,69.257611 C103.905881,70.1423144 107.80532,70.590671 111.717749,70.5940974 C124.723227,70.9224859 137.249416,65.6618515 146.144783,56.1357455 C146.211287,68.2626701 156.015319,78.0644527 168.100594,78.0865205 C171.101739,78.0229639 174.056857,77.3333495 176.777983,76.0615414 Z" id="Path" fill="#FFD2C0"></path>
                        <path d="M91.2990952,166.324867 C88.1958223,163.90668 86.4524218,160.626914 86.4524219,157.207081 L86.4524219,150.445333 C86.4522785,150.122848 86.6193904,149.814005 86.9157999,149.588953 C87.2122095,149.363902 87.6127561,149.241747 88.0264599,149.250233 L117.97354,149.250233 C118.387244,149.241747 118.787791,149.363902 119.0842,149.588953 C119.38061,149.814005 119.547722,150.122848 119.547578,150.445333 L119.547578,157.301431 C119.481052,164.385991 112.091898,170.101767 103,170.101578 C98.6113094,170.101578 94.4023681,168.743054 91.2990952,166.324867 Z" id="Path" fill="#EC735A"></path>
                        <path d="M58,216.393525 L85,244.5 L103,240 L78.4074421,213 C74.6233289,212.820761 71.1519582,213.045026 67.9933298,213.672794 C64.8347015,214.300561 61.5035916,215.207472 58,216.393525 Z" id="Path-2" fill="#3B83B2" fill-rule="nonzero"></path>
                        <path d="M103,216.393525 L130,244.5 L148,240 L123.407442,213 C119.623329,212.820761 116.151958,213.045026 112.99333,213.672794 C109.834702,214.300561 106.503592,215.207472 103,216.393525 Z" id="Path-2" fill="#3B83B2" fill-rule="nonzero" transform="translate(125.500000, 228.720143) scale(-1, 1) translate(-125.500000, -228.720143) "></path>
                    </g>
                    <path d="M186.508979,172.327908 C185.115591,171.43145 184.712751,169.575163 185.609209,168.181775 C186.505668,166.788388 188.361954,166.385548 189.755342,167.282006 C195.76669,171.149505 201.497631,171.149505 207.508979,167.282006 C208.902366,166.385548 210.758653,166.788388 211.655111,168.181775 C212.55157,169.575163 212.148729,171.43145 210.755342,172.327908 C202.76669,177.467537 194.497631,177.467537 186.508979,172.327908 Z" id="Path-6" fill="#2B2F52" fill-rule="nonzero"></path>
                    <path d="M113.008979,172.327908 C111.615591,171.43145 111.212751,169.575163 112.109209,168.181775 C113.005668,166.788388 114.861954,166.385548 116.255342,167.282006 C122.26669,171.149505 127.997631,171.149505 134.008979,167.282006 C135.402366,166.385548 137.258653,166.788388 138.155111,168.181775 C139.05157,169.575163 138.648729,171.43145 137.255342,172.327908 C129.26669,177.467537 120.997631,177.467537 113.008979,172.327908 Z" id="Path-6" fill="#2B2F52" fill-rule="nonzero"></path>
                    <path d="M186.523535,160.923035 L185.990463,160.076965 C194.464779,154.737661 203.256329,155.019612 212.273351,160.906934 L211.726649,161.744262 C203.029385,156.065714 194.658935,155.797267 186.523535,160.923035 Z" id="Path-11" fill="#F3BDA6" fill-rule="nonzero"></path>
                    <path d="M191,179 C190.447715,179 190,178.552285 190,178 C190,177.447715 190.447715,177 191,177 C191.624865,177 192.243902,176.955987 192.854122,176.868909 C193.400869,176.790889 193.907342,177.170867 193.985362,177.717613 C194.063382,178.264359 193.683405,178.770832 193.136658,178.848852 C192.432923,178.949275 191.719472,179 191,179 Z M198.263006,177.127291 C197.779981,177.39507 197.171335,177.220578 196.903556,176.737553 C196.635777,176.254529 196.810269,175.645882 197.293293,175.378103 C197.835389,175.077577 198.355383,174.738515 198.849305,174.363803 C199.289301,174.030003 199.916586,174.116091 200.250386,174.556087 C200.584186,174.996082 200.498098,175.623367 200.058103,175.957167 C199.488409,176.389363 198.888528,176.780515 198.263006,177.127291 Z M203.708551,171.971709 C203.414663,172.439307 202.797356,172.580127 202.329757,172.286239 C201.862159,171.992351 201.721339,171.375044 202.015227,170.907446 C202.344955,170.382824 202.636822,169.835245 202.888316,169.268676 C203.112387,168.763888 203.703243,168.536322 204.208031,168.760392 C204.712819,168.984463 204.940386,169.575319 204.716315,170.080107 C204.425956,170.734229 204.08906,171.366289 203.708551,171.971709 Z M205.971682,164.928778 C205.937973,165.480033 205.463765,165.899587 204.91251,165.865877 C204.361255,165.832168 203.941701,165.35796 203.975411,164.806705 C203.991492,164.543724 203.999708,164.279504 203.999992,164.015318 C203.999999,163.644742 203.985769,163.28945 203.957047,162.934882 C203.912454,162.384401 204.322558,161.901998 204.873039,161.857405 C205.423521,161.812812 205.905924,162.222916 205.950517,162.773398 C205.983612,163.181948 206,163.591122 205.999991,164.016411 C205.999664,164.32166 205.990205,164.625874 205.971682,164.928778 Z M204.556843,157.572685 C204.793758,158.071574 204.581387,158.66806 204.082499,158.904976 C203.58361,159.141891 202.987124,158.92952 202.750208,158.430632 C202.484324,157.870743 202.178567,157.330738 201.835557,156.814595 C201.529875,156.35462 201.654953,155.733933 202.114928,155.42825 C202.574903,155.122568 203.195591,155.247647 203.501273,155.707621 C203.897047,156.303161 204.249918,156.926375 204.556843,157.572685 Z M199.753297,151.817583 C200.201558,152.140198 200.303415,152.765116 199.9808,153.213377 C199.658185,153.661639 199.033267,153.763495 198.585006,153.440881 C198.081831,153.078744 197.553467,152.752931 197.003894,152.46622 C196.514238,152.210769 196.324378,151.60674 196.57983,151.117084 C196.835282,150.627428 197.439311,150.437568 197.928967,150.693019 C198.563219,151.023907 199.172851,151.399834 199.753297,151.817583 Z M192.854176,149.113573 C193.402306,149.181193 193.791836,149.680356 193.724216,150.228486 C193.656596,150.776616 193.157432,151.166145 192.609302,151.098525 C192.087455,151.034148 191.559545,151.001124 191.029228,151.00003 C190.912222,151.000003 190.820491,151.000876 190.726162,151.002823 C190.173995,151.014216 189.717139,150.575832 189.705746,150.023664 C189.694353,149.471497 190.132737,149.014641 190.684904,149.003248 C190.793618,149.001005 190.899202,148.999999 191.031525,149.000032 C191.644194,149.001295 192.252501,149.039347 192.854176,149.113573 Z M185.428594,150.069057 C185.941331,149.863825 186.523359,150.113107 186.72859,150.625843 C186.933822,151.138579 186.684541,151.720607 186.171804,151.925839 C185.596342,152.156178 185.038575,152.427537 184.502442,152.737564 C184.024339,153.014034 183.412636,152.850579 183.136166,152.372476 C182.859696,151.894372 183.023151,151.28267 183.501254,151.006199 C184.120102,150.648341 184.76407,150.335045 185.428594,150.069057 Z M179.388582,154.503285 C179.738463,154.075966 180.368508,154.013191 180.795827,154.363072 C181.223146,154.712954 181.285922,155.342999 180.93604,155.770318 C180.543195,156.250109 180.184977,156.757266 179.864423,157.287843 C179.578829,157.760553 178.964103,157.912241 178.491393,157.626648 C178.018682,157.341055 177.866994,156.726328 178.152588,156.253618 C178.52239,155.641526 178.935554,155.05658 179.388582,154.503285 Z M176.255713,161.228465 C176.357169,160.685579 176.879512,160.327729 177.422397,160.429186 C177.965283,160.530642 178.323133,161.052985 178.221676,161.595871 C178.108401,162.201998 178.038075,162.818239 178.011766,163.44146 C177.988472,163.993254 177.522272,164.421687 176.970478,164.398393 C176.418685,164.375099 175.990252,163.908899 176.013545,163.357106 C176.043869,162.638781 176.12499,161.927952 176.255713,161.228465 Z M176.751211,168.699551 C176.578305,168.17503 176.863344,167.609654 177.387864,167.436747 C177.912385,167.26384 178.477761,167.548879 178.650668,168.0734 C178.844877,168.662541 179.081103,169.236106 179.357258,169.790232 C179.603599,170.284534 179.402587,170.884944 178.908285,171.131285 C178.413983,171.377626 177.813573,171.176614 177.567232,170.682312 C177.248356,170.042464 176.975532,169.380038 176.751211,168.699551 Z M180.798705,174.997064 C180.393887,174.621377 180.370273,173.988652 180.74596,173.583835 C181.121648,173.179017 181.754372,173.155402 182.15919,173.53109 C182.613653,173.95285 183.097575,174.341831 183.607093,174.694761 C184.0611,175.00924 184.17421,175.632219 183.859732,176.086226 C183.545254,176.540232 182.922274,176.653343 182.468267,176.338864 C181.880665,175.931848 181.322677,175.483332 180.798705,174.997064 Z M187.323019,178.545786 C186.787484,178.410804 186.462771,177.867242 186.597754,177.331706 C186.732736,176.796171 187.276298,176.471458 187.811833,176.606441 C188.410325,176.757291 189.020892,176.865503 189.640199,176.929816 C190.18953,176.986861 190.588606,177.478426 190.53156,178.027757 C190.474515,178.577088 189.98295,178.976164 189.433619,178.919118 C188.719014,178.84491 188.014131,178.719981 187.323019,178.545786 Z" id="Oval" fill="#FF3232" fill-rule="nonzero" opacity="0.5"></path>
                    <circle id="Oval" fill="#FF4E4E" fill-rule="nonzero" opacity="0.503603981" cx="191" cy="162" r="7"></circle>
                    <path d="M112.266536,161.15135 L111.733464,160.305281 C120.20778,154.965976 128.99933,155.247928 138.016351,161.13525 L137.46965,161.972577 C128.772386,156.29403 120.401936,156.025583 112.266536,161.15135 Z" id="Path-11" fill="#F3BDA6" fill-rule="nonzero"></path>
                    <path d="M131,179 C130.447715,179 130,178.552285 130,178 C130,177.447715 130.447715,177 131,177 C131.624865,177 132.243902,176.955987 132.854122,176.868909 C133.400869,176.790889 133.907342,177.170867 133.985362,177.717613 C134.063382,178.264359 133.683405,178.770832 133.136658,178.848852 C132.432923,178.949275 131.719472,179 131,179 Z M138.263006,177.127291 C137.779981,177.39507 137.171335,177.220578 136.903556,176.737553 C136.635777,176.254529 136.810269,175.645882 137.293293,175.378103 C137.835389,175.077577 138.355383,174.738515 138.849305,174.363803 C139.289301,174.030003 139.916586,174.116091 140.250386,174.556087 C140.584186,174.996082 140.498098,175.623367 140.058103,175.957167 C139.488409,176.389363 138.888528,176.780515 138.263006,177.127291 Z M143.708551,171.971709 C143.414663,172.439307 142.797356,172.580127 142.329757,172.286239 C141.862159,171.992351 141.721339,171.375044 142.015227,170.907446 C142.344955,170.382824 142.636822,169.835245 142.888316,169.268676 C143.112387,168.763888 143.703243,168.536322 144.208031,168.760392 C144.712819,168.984463 144.940386,169.575319 144.716315,170.080107 C144.425956,170.734229 144.08906,171.366289 143.708551,171.971709 Z M145.971682,164.928778 C145.937973,165.480033 145.463765,165.899587 144.91251,165.865877 C144.361255,165.832168 143.941701,165.35796 143.975411,164.806705 C143.991492,164.543724 143.999708,164.279504 143.999992,164.015318 C143.999999,163.644742 143.985769,163.28945 143.957047,162.934882 C143.912454,162.384401 144.322558,161.901998 144.873039,161.857405 C145.423521,161.812812 145.905924,162.222916 145.950517,162.773398 C145.983612,163.181948 146,163.591122 145.999991,164.016411 C145.999664,164.32166 145.990205,164.625874 145.971682,164.928778 Z M144.556843,157.572685 C144.793758,158.071574 144.581387,158.66806 144.082499,158.904976 C143.58361,159.141891 142.987124,158.92952 142.750208,158.430632 C142.484324,157.870743 142.178567,157.330738 141.835557,156.814595 C141.529875,156.35462 141.654953,155.733933 142.114928,155.42825 C142.574903,155.122568 143.195591,155.247647 143.501273,155.707621 C143.897047,156.303161 144.249918,156.926375 144.556843,157.572685 Z M139.753297,151.817583 C140.201558,152.140198 140.303415,152.765116 139.9808,153.213377 C139.658185,153.661639 139.033267,153.763495 138.585006,153.440881 C138.081831,153.078744 137.553467,152.752931 137.003894,152.46622 C136.514238,152.210769 136.324378,151.60674 136.57983,151.117084 C136.835282,150.627428 137.439311,150.437568 137.928967,150.693019 C138.563219,151.023907 139.172851,151.399834 139.753297,151.817583 Z M132.854176,149.113573 C133.402306,149.181193 133.791836,149.680356 133.724216,150.228486 C133.656596,150.776616 133.157432,151.166145 132.609302,151.098525 C132.087455,151.034148 131.559545,151.001124 131.029228,151.00003 C130.912222,151.000003 130.820491,151.000876 130.726162,151.002823 C130.173995,151.014216 129.717139,150.575832 129.705746,150.023664 C129.694353,149.471497 130.132737,149.014641 130.684904,149.003248 C130.793618,149.001005 130.899202,148.999999 131.031525,149.000032 C131.644194,149.001295 132.252501,149.039347 132.854176,149.113573 Z M125.428594,150.069057 C125.941331,149.863825 126.523359,150.113107 126.72859,150.625843 C126.933822,151.138579 126.684541,151.720607 126.171804,151.925839 C125.596342,152.156178 125.038575,152.427537 124.502442,152.737564 C124.024339,153.014034 123.412636,152.850579 123.136166,152.372476 C122.859696,151.894372 123.023151,151.28267 123.501254,151.006199 C124.120102,150.648341 124.76407,150.335045 125.428594,150.069057 Z M119.388582,154.503285 C119.738463,154.075966 120.368508,154.013191 120.795827,154.363072 C121.223146,154.712954 121.285922,155.342999 120.93604,155.770318 C120.543195,156.250109 120.184977,156.757266 119.864423,157.287843 C119.578829,157.760553 118.964103,157.912241 118.491393,157.626648 C118.018682,157.341055 117.866994,156.726328 118.152588,156.253618 C118.52239,155.641526 118.935554,155.05658 119.388582,154.503285 Z M116.255713,161.228465 C116.357169,160.685579 116.879512,160.327729 117.422397,160.429186 C117.965283,160.530642 118.323133,161.052985 118.221676,161.595871 C118.108401,162.201998 118.038075,162.818239 118.011766,163.44146 C117.988472,163.993254 117.522272,164.421687 116.970478,164.398393 C116.418685,164.375099 115.990252,163.908899 116.013545,163.357106 C116.043869,162.638781 116.12499,161.927952 116.255713,161.228465 Z M116.751211,168.699551 C116.578305,168.17503 116.863344,167.609654 117.387864,167.436747 C117.912385,167.26384 118.477761,167.548879 118.650668,168.0734 C118.844877,168.662541 119.081103,169.236106 119.357258,169.790232 C119.603599,170.284534 119.402587,170.884944 118.908285,171.131285 C118.413983,171.377626 117.813573,171.176614 117.567232,170.682312 C117.248356,170.042464 116.975532,169.380038 116.751211,168.699551 Z M120.798705,174.997064 C120.393887,174.621377 120.370273,173.988652 120.74596,173.583835 C121.121648,173.179017 121.754372,173.155402 122.15919,173.53109 C122.613653,173.95285 123.097575,174.341831 123.607093,174.694761 C124.0611,175.00924 124.17421,175.632219 123.859732,176.086226 C123.545254,176.540232 122.922274,176.653343 122.468267,176.338864 C121.880665,175.931848 121.322677,175.483332 120.798705,174.997064 Z M127.323019,178.545786 C126.787484,178.410804 126.462771,177.867242 126.597754,177.331706 C126.732736,176.796171 127.276298,176.471458 127.811833,176.606441 C128.410325,176.757291 129.020892,176.865503 129.640199,176.929816 C130.18953,176.986861 130.588606,177.478426 130.53156,178.027757 C130.474515,178.577088 129.98295,178.976164 129.433619,178.919118 C128.719014,178.84491 128.014131,178.719981 127.323019,178.545786 Z" id="Oval" fill="#FF3232" fill-rule="nonzero" opacity="0.5"></path>
                    <circle id="Oval" fill="#FF4E4E" fill-rule="nonzero" opacity="0.503603981" cx="131" cy="162" r="7"></circle>
                </g>
                <path d="M128.001478,61.4634213 C136.531099,51.3928518 149.268984,45 163.5,45 C177.248091,45 189.60267,50.9663352 198.115741,60.4510092 C203.125142,58.2324218 208.668647,57 214.5,57 C236.867532,57 255,75.1324676 255,97.5 C255,119.867532 236.867532,138 214.5,138 C205.281178,138 196.781763,134.919852 189.97474,129.732539 C182.461202,134.945232 173.33734,138 163.5,138 C152.965882,138 143.249894,134.497169 135.453267,128.592737 C128.425006,134.465585 119.375256,138 109.5,138 C87.1324676,138 69,119.867532 69,97.5 C69,75.1324676 87.1324676,57 109.5,57 C116.165906,57 122.455678,58.6104199 128.001478,61.4634213 Z" id="Combined-Shape" fill="#34709B" fill-rule="nonzero"></path>
            </g>
            <g id="Group-3" transform="translate(147.000000, 113.000000)">
                <g id="手" transform="translate(74.433944, 80.955680) scale(-1, 1) rotate(-323.000000) translate(-74.433944, -80.955680) translate(35.433944, 9.455680)">
                    <path d="M39.3308553,52.8805366 C41.5638069,54.8717024 52.525569,59.8496167 54.7585205,57.858451 C56.9914721,55.6681687 51.3075954,48.499972 48.8716483,46.7079228 L35.473939,36.7520941 C27.7601064,30.9777135 18.0566974,34.3702766 21.2642474,37.747677 C23.4026141,39.9992773 29.4248167,45.0435638 39.3308553,52.8805366 Z" id="Path" fill="#FEDED1" transform="translate(37.951257, 45.977007) scale(-1, 1) rotate(46.000000) translate(-37.951257, -45.977007) "></path>
                    <path d="M35.4463129,15.3830142 L30.7679508,25.1690912 L32.7284778,42.1291764 L40.9148425,56.6646206 L40.1387351,75.2050847 L77.0230018,131.80474 L45.8276617,142.981879 L14.5730713,76.5145689 L0.166756487,52.6112199 C0.119804856,37.075087 0.98622676,28.0746202 2.7660222,25.6098196 C3.37963938,24.7600342 8.00387455,19.1242768 16.6387277,8.70254725 L7.77476983,34.6382953 L21.7477473,32.410561 L26.733848,16.5951982 L31.3893635,11.9726149 C34.5456752,7.6451718 36.5045304,6.54053542 37.2659292,8.65870578 C38.0273279,10.7768761 37.4207892,13.0183123 35.4463129,15.3830142 Z" id="Path-7" fill="#FFE7DD" fill-rule="nonzero"></path>
                    <path d="M20.4368734,4.04200556 L10.3189042,14.4134083 C9.58149714,15.1692859 9.05664268,16.1063923 8.79736276,17.1300593 L4,36.0705987 L14.0983845,35.3476663 L18.7577266,17.4370401 C20.9694347,13.7403236 22.6231169,10.6803775 23.718773,8.25720198 C24.4997668,6.52994006 24.3593755,5.12403319 23.2975991,4.03948134 L23.2975884,4.03949176 C22.5248771,3.25020552 21.2586278,3.23676893 20.4693416,4.0094803 C20.4583946,4.02019734 20.4475712,4.03103981 20.4368734,4.04200556 Z" id="Path-9" fill="#FFE7DD" fill-rule="nonzero"></path>
                    <path d="M27.6110123,5.00984829 C27.826526,4.83719702 28.1411959,4.87194387 28.3138471,5.08745756 C28.4864984,5.30297124 28.4517516,5.61764112 28.2362379,5.79029239 L19.0752746,13.1292401 C18.0960654,13.9314456 17.322671,15.0354067 17.0492446,16.0891039 L11.7895897,35.776842 C11.7183168,36.043628 11.4442659,36.2021227 11.1774798,36.1308498 C10.9106938,36.0595768 10.7521991,35.7855259 10.823472,35.5187399 L16.0822133,15.8344719 C16.412071,14.5632446 17.3080757,13.2842667 18.4457983,12.3522397 L27.6110123,5.00984829 Z" id="Path" fill="#FFD2C0" fill-rule="nonzero"></path>
                    <path d="M32.8420647,1.66273375 L18.9661008,13.0304508 C17.9824007,13.8363353 17.2801855,14.9339228 16.960793,16.1648184 L12,35.283048 L22.0983845,34.5601156 L26.7577266,16.6494894 C33.3436312,10.4345187 36.5343887,6.36059624 36.3299992,4.42772203 C36.2666397,3.82854361 36.1762083,3.27327785 36.0587048,2.76192477 L36.0586832,2.76192972 C35.8113147,1.68542817 34.738106,1.01328306 33.6616044,1.2606516 C33.3610809,1.32970869 33.0805953,1.46732034 32.8420647,1.66273375 Z" id="Path-9" fill="#FFE7DD" fill-rule="nonzero"></path>
                    <path d="M7.56984134,19.6290043 C7.63402583,19.3604248 7.90378437,19.1947299 8.1723639,19.2589144 C8.44094342,19.3230989 8.60663834,19.5928574 8.54245384,19.861437 L5.0753882,34.3693471 C5.0112037,34.6379266 4.74144517,34.8036215 4.47286564,34.739437 C4.20428611,34.6752525 4.0385912,34.405494 4.10277569,34.1369145 L7.56984134,19.6290043 Z" id="Path-10" fill="#FFD2C0" fill-rule="nonzero"></path>
                    <path d="M37.9899599,5.69625903 C38.1981305,5.51482141 38.5139703,5.53649278 38.695408,5.74466339 C38.8768456,5.952834 38.8551742,6.26867387 38.6470036,6.45011149 L26.5249052,17.0151973 C25.6635369,17.720863 24.0843363,20.3376337 23.7763734,21.524479 L20.6482543,33.5021612 C20.5784766,33.7693422 20.3053177,33.9293693 20.0381367,33.8595917 C19.7709557,33.7898141 19.6109286,33.5166552 19.6807062,33.2494741 L22.8086268,21.2725544 C23.1675222,19.88942 24.8582399,17.0878628 25.8795198,16.2514927 L37.9899599,5.69625903 Z" id="Path" fill="#FFD2C0" fill-rule="nonzero" transform="translate(29.241424, 19.724559) rotate(-5.000000) translate(-29.241424, -19.724559) "></path>
                </g>
                <polygon id="Path-5" fill="#DEF5FF" fill-rule="nonzero" points="108 110.728674 131 210 78 210.5 77.0440456 114.569165"></polygon>
                <path d="M105.496081,94.6673597 C107.390706,99.977135 108.74634,104.098505 109.562981,107.03147 L78.9036577,118.561349 L74.234759,106.614354 L105.496081,94.6673597 Z" id="Path" fill="#2A5F85" transform="translate(91.898870, 106.614354) rotate(13.000000) translate(-91.898870, -106.614354) "></path>
            </g>
            <g id="Group-3" transform="translate(101.500000, 218.500000) scale(-1, 1) translate(-101.500000, -218.500000) translate(27.000000, 113.000000)">
                <g id="手" transform="translate(74.433944, 80.955680) scale(-1, 1) rotate(-323.000000) translate(-74.433944, -80.955680) translate(35.433944, 9.455680)">
                    <path d="M39.3308553,52.8805366 C41.5638069,54.8717024 52.525569,59.8496167 54.7585205,57.858451 C56.9914721,55.6681687 51.3075954,48.499972 48.8716483,46.7079228 L35.473939,36.7520941 C27.7601064,30.9777135 18.0566974,34.3702766 21.2642474,37.747677 C23.4026141,39.9992773 29.4248167,45.0435638 39.3308553,52.8805366 Z" id="Path" fill="#FEDED1" transform="translate(37.951257, 45.977007) scale(-1, 1) rotate(46.000000) translate(-37.951257, -45.977007) "></path>
                    <path d="M35.4463129,15.3830142 L30.7679508,25.1690912 L32.7284778,42.1291764 L40.8189974,57.7189646 L40.1387351,75.2050847 L77.0230018,131.80474 L45.8276617,142.981879 L14.5730713,76.5145689 L0.166756487,52.6112199 C0.119804856,37.075087 0.98622676,28.0746202 2.7660222,25.6098196 C3.37963938,24.7600342 8.00387455,19.1242768 16.6387277,8.70254725 L7.77476983,34.6382953 L21.7477473,32.410561 L26.733848,16.5951982 L31.3893635,11.9726149 C34.5456752,7.6451718 36.5045304,6.54053542 37.2659292,8.65870578 C38.0273279,10.7768761 37.4207892,13.0183123 35.4463129,15.3830142 Z" id="Path-7" fill="#FFE7DD" fill-rule="nonzero"></path>
                    <path d="M20.4368734,4.04200556 L10.3189042,14.4134083 C9.58149714,15.1692859 9.05664268,16.1063923 8.79736276,17.1300593 L4,36.0705987 L14.0983845,35.3476663 L18.7577266,17.4370401 C20.9694347,13.7403236 22.6231169,10.6803775 23.718773,8.25720198 C24.4997668,6.52994006 24.3593755,5.12403319 23.2975991,4.03948134 L23.2975884,4.03949176 C22.5248771,3.25020552 21.2586278,3.23676893 20.4693416,4.0094803 C20.4583946,4.02019734 20.4475712,4.03103981 20.4368734,4.04200556 Z" id="Path-9" fill="#FFE7DD" fill-rule="nonzero"></path>
                    <path d="M24.7297057,6.87766652 C24.9388467,6.69734831 25.2545658,6.72071378 25.434884,6.92985477 C25.6152022,7.13899575 25.5918367,7.45471482 25.3826957,7.63503303 L18.5907155,13.4907673 C17.6889904,14.2294948 17.0452931,15.2356167 16.7525167,16.3639377 L11.7917237,35.4821673 C11.7223672,35.7494579 11.4494607,35.9099152 11.1821701,35.8405587 C10.9148794,35.7712022 10.7544221,35.4982958 10.8237786,35.2310052 L15.7845716,16.1127756 C16.1305801,14.7793053 16.8913133,13.5902521 17.9473569,12.7253057 L24.7297057,6.87766652 Z" id="Path" fill="#FFD2C0" fill-rule="nonzero"></path>
                    <path d="M32.8420647,1.66273375 L18.9661008,13.0304508 C17.9824007,13.8363353 17.2801855,14.9339228 16.960793,16.1648184 L12,35.283048 L22.0983845,34.5601156 L26.7577266,16.6494894 C33.3436312,10.4345187 36.5343887,6.36059624 36.3299992,4.42772203 C36.2666397,3.82854361 36.1762083,3.27327785 36.0587048,2.76192477 L36.0586832,2.76192972 C35.8113147,1.68542817 34.738106,1.01328306 33.6616044,1.2606516 C33.3610809,1.32970869 33.0805953,1.46732034 32.8420647,1.66273375 Z" id="Path-9" fill="#FFE7DD" fill-rule="nonzero"></path>
                    <path d="M7.56984134,19.6290043 C7.63402583,19.3604248 7.90378437,19.1947299 8.1723639,19.2589144 C8.44094342,19.3230989 8.60663834,19.5928574 8.54245384,19.861437 L5.0753882,34.3693471 C5.0112037,34.6379266 4.74144517,34.8036215 4.47286564,34.739437 C4.20428611,34.6752525 4.0385912,34.405494 4.10277569,34.1369145 L7.56984134,19.6290043 Z" id="Path-10" fill="#FFD2C0" fill-rule="nonzero"></path>
                    <path d="M36.759537,7.17914497 C36.9705801,7.00105675 37.2860334,7.02777196 37.4641216,7.23881508 C37.6422098,7.44985819 37.6154946,7.76531147 37.4044515,7.94339969 L26.5898765,17.0691835 C25.7285082,17.7748492 24.1493076,20.3916199 23.8413447,21.5784652 L20.7132255,33.5561474 C20.6434479,33.8233285 20.370289,33.9833555 20.103108,33.9135779 C19.835927,33.8438003 19.6758999,33.5706414 19.7456775,33.3034604 L22.8735981,21.3265406 C23.2324935,19.9434062 24.9232112,17.141849 25.9505557,16.3002778 L36.759537,7.17914497 Z" id="Path" fill="#FFD2C0" fill-rule="nonzero" transform="translate(28.655667, 20.495594) rotate(-5.000000) translate(-28.655667, -20.495594) "></path>
                </g>
                <polygon id="Path-5" fill="#DEF5FF" fill-rule="nonzero" points="106.210712 108.844308 131 210 78 210.5 77.0440456 113.704308"></polygon>
                <path d="M104.698341,94.6673597 C106.592966,99.977135 107.9486,104.098505 108.765241,107.03147 L78.1059178,118.561349 L73.4370191,106.614354 L104.698341,94.6673597 Z" id="Path" fill="#2A5F85" transform="translate(91.101130, 106.614354) rotate(13.000000) translate(-91.101130, -106.614354) "></path>
            </g>
        </g>
    </g>
</svg>