<?xml version="1.0" encoding="UTF-8"?>
<svg width="324px" height="324px" viewBox="0 0 324 324" version="1.1" xmlns="http://www.w3.org/2000/svg" xmlns:xlink="http://www.w3.org/1999/xlink">
    <!-- Generator: Sketch 53.2 (72643) - https://sketchapp.com -->
    <title>eye exercise-4</title>
    <desc>Created with Sketch.</desc>
    <defs>
        <path d="M80.8423892,0.0311374805 L125.238331,0.0311374805 C163.131642,0.0311374805 205.85024,30.8560164 205.85024,68.8804316 L205.85024,111 L0.230480045,111 L0.230480045,68.8399322 C0.252761014,30.8313341 42.964834,0.0311310792 80.8423892,0.0311374805 Z" id="path-1"></path>
    </defs>
    <g id="eye-exercise-4" stroke="none" stroke-width="1" fill="none" fill-rule="evenodd">
        <g id="Group-4">
            <g id="Group">
                <g id="小助手">
                    <g transform="translate(59.000000, 42.000000)">
                        <g id="Path-+-Path-+-Path-2-Mask" transform="translate(0.000000, 213.000000)">
                            <mask id="mask-2" fill="white">
                                <use xlink:href="#path-1"></use>
                            </mask>
                            <use id="Mask" fill="#D0F0FE" xlink:href="#path-1"></use>
                            <path d="M156.27513,47.2131537 L162.773081,35.9542692 C163.014938,35.4273788 163.014938,34.8206767 162.773081,34.2937863 L151.431936,5.25558401 C150.180778,4.72908939 148.929619,4.24309445 147.638101,3.79759888 L147.234502,3.79759888 C140.149504,1.38741838 132.719384,0.156180916 125.238331,0.152636215 L80.8423892,0.152636215 C73.3613358,0.156180916 65.9312158,1.38741838 58.8462182,3.79759888 L58.4426187,3.79759888 C57.1511005,4.24309445 55.8999422,4.72908939 54.648784,5.25558401 L43.1058391,34.2937863 C42.8639818,34.8206767 42.8639818,35.4273788 43.1058391,35.9542692 L49.6037906,47.2131537 C49.8248168,47.702176 49.8248168,48.2631159 49.6037906,48.7521382 L44.8816767,64.3444781 C44.6118852,65.237263 44.9982447,66.1980753 45.8099555,66.6529547 L103,95.8126557 L160.190044,66.6529547 C161.001755,66.1980753 161.388115,65.237263 161.118323,64.3444781 L156.11369,48.7521382 C155.942589,48.2399197 156.001493,47.6783958 156.27513,47.2131537 Z" id="Path" fill="#EFFCFF" mask="url(#mask-2)"></path>
                            <path d="M103,95.8126557 C73.9811982,80.5443123 61.3888951,40.4092236 58.8462182,3.67610014 C65.9312158,1.26591965 73.3613358,0.0346821814 80.8423892,0.0311374805 L125.238331,0.0311374805 C132.692294,0.0434967176 140.094441,1.27461675 147.153782,3.67610014 C144.611105,40.4092236 132.018802,80.6253113 103,95.8126557 Z" id="Path" fill="#2A5F85" mask="url(#mask-2)"></path>
                            <polygon id="Path-4" fill="#5D82DD" fill-rule="nonzero" mask="url(#mask-2)" points="97.7235177 31.5 88 87 103 96 118 87 107.5 31.5"></polygon>
                            <polygon id="Path-3" fill="#7D9FF3" fill-rule="nonzero" mask="url(#mask-2)" points="95.5 42 110.21519 42 115 27 91 27"></polygon>
                        </g>
                        <g id="Group-2" transform="translate(10.000000, 54.000000)" fill="#2A5F85" fill-rule="nonzero">
                            <path d="M21,78 C6.70686209,74 0.633577615,56 2.78014657,24 C4.92671552,-8 11,-7 21,27 L21,78 Z" id="Path-8"></path>
                            <path d="M183,78 C168.706862,74 162.633578,56 164.780147,24 C166.926716,-8 173,-7 183,27 L183,78 Z" id="Path-8" transform="translate(173.679862, 39.363636) scale(-1, 1) translate(-173.679862, -39.363636) "></path>
                        </g>
                        <path d="M29.9054626,120.246589 L176.129186,120.246589 C179.775487,120.19245 183.287849,121.909419 185.882023,125.014126 C188.476196,128.118832 189.936135,132.352715 189.935861,136.770419 C189.935861,141.152811 188.498844,145.355712 185.940937,148.454532 C183.38303,151.553351 179.913764,153.29425 176.296337,153.29425 L29.9054626,153.29425 C22.3725614,153.29425 16.2659385,145.896279 16.2659385,136.770419 C16.2659387,127.64456 22.3725615,120.246589 29.9054626,120.246589 L29.9054626,120.246589 Z" id="Path" fill="#F4C4B3"></path>
                        <polygon id="Path" fill="#F2AC94" points="78.4207925 187.678397 78.4207925 214.324094 103 240 127.579208 214.324094 127.579208 187.678397"></polygon>
                        <path d="M176.777983,76.0615414 L176.777983,132.76096 C174.935198,172.259029 142.485716,203.332019 103.08072,203.332019 C63.6757239,203.332019 31.2262414,172.259029 29.3834573,132.76096 L29.3834573,84.1614585 C37.4474027,87.7164437 46.1638692,89.5375072 54.9716634,89.5074034 C72.2905198,89.9533512 88.8797225,82.5085398 100.094084,69.257611 C103.905881,70.1423144 107.80532,70.590671 111.717749,70.5940974 C124.723227,70.9224859 137.249416,65.6618515 146.144783,56.1357455 C146.211287,68.2626701 156.015319,78.0644527 168.100594,78.0865205 C171.101739,78.0229639 174.056857,77.3333495 176.777983,76.0615414 Z" id="Path" fill="#FFD2C0"></path>
                        <path d="M91.2990952,166.324867 C88.1958223,163.90668 86.4524218,160.626914 86.4524219,157.207081 L86.4524219,150.445333 C86.4522785,150.122848 86.6193904,149.814005 86.9157999,149.588953 C87.2122095,149.363902 87.6127561,149.241747 88.0264599,149.250233 L117.97354,149.250233 C118.387244,149.241747 118.787791,149.363902 119.0842,149.588953 C119.38061,149.814005 119.547722,150.122848 119.547578,150.445333 L119.547578,157.301431 C119.481052,164.385991 112.091898,170.101767 103,170.101578 C98.6113094,170.101578 94.4023681,168.743054 91.2990952,166.324867 Z" id="Path" fill="#EC735A"></path>
                        <path d="M58,216.393525 L85,244.5 L103,240 L78.4074421,213 C74.6233289,212.820761 71.1519582,213.045026 67.9933298,213.672794 C64.8347015,214.300561 61.5035916,215.207472 58,216.393525 Z" id="Path-2" fill="#3B83B2" fill-rule="nonzero"></path>
                        <path d="M103,216.393525 L130,244.5 L148,240 L123.407442,213 C119.623329,212.820761 116.151958,213.045026 112.99333,213.672794 C109.834702,214.300561 106.503592,215.207472 103,216.393525 Z" id="Path-2" fill="#3B83B2" fill-rule="nonzero" transform="translate(125.500000, 228.720143) scale(-1, 1) translate(-125.500000, -228.720143) "></path>
                    </g>
                    <path d="M186.508979,172.327908 C185.115591,171.43145 184.712751,169.575163 185.609209,168.181775 C186.505668,166.788388 188.361954,166.385548 189.755342,167.282006 C195.76669,171.149505 201.497631,171.149505 207.508979,167.282006 C208.902366,166.385548 210.758653,166.788388 211.655111,168.181775 C212.55157,169.575163 212.148729,171.43145 210.755342,172.327908 C202.76669,177.467537 194.497631,177.467537 186.508979,172.327908 Z" id="Path-6" fill="#2B2F52" fill-rule="nonzero"></path>
                    <path d="M113.008979,172.327908 C111.615591,171.43145 111.212751,169.575163 112.109209,168.181775 C113.005668,166.788388 114.861954,166.385548 116.255342,167.282006 C122.26669,171.149505 127.997631,171.149505 134.008979,167.282006 C135.402366,166.385548 137.258653,166.788388 138.155111,168.181775 C139.05157,169.575163 138.648729,171.43145 137.255342,172.327908 C129.26669,177.467537 120.997631,177.467537 113.008979,172.327908 Z" id="Path-6" fill="#2B2F52" fill-rule="nonzero"></path>
                    <path d="M187.523535,160.923035 L186.990463,160.076965 C195.464779,154.737661 204.256329,155.019612 213.273351,160.906934 L212.726649,161.744262 C204.029385,156.065714 195.658935,155.797267 187.523535,160.923035 Z" id="Path-11" fill="#F3BDA6" fill-rule="nonzero"></path>
                    <path d="M235,179 C234.447715,179 234,178.552285 234,178 C234,177.447715 234.447715,177 235,177 C235.609081,177 236.212045,176.943184 236.805814,176.830823 C237.348468,176.728134 237.871621,177.084797 237.97431,177.627451 C238.076998,178.170105 237.720336,178.693259 237.177682,178.795947 C236.461605,178.931453 235.734149,179 235,179 Z M242.144078,176.628201 C241.696025,176.951105 241.071041,176.849651 240.748137,176.401598 C240.425234,175.953545 240.526687,175.328561 240.97474,175.005657 C241.467396,174.650609 241.939837,174.25186 242.388317,173.812658 C242.782901,173.426237 243.416032,173.432854 243.802453,173.827439 C244.188875,174.222023 244.182257,174.855154 243.787673,175.241575 C243.268098,175.7504 242.718875,176.213955 242.144078,176.628201 Z M246.938893,170.890864 C246.689758,171.383764 246.08822,171.581375 245.595321,171.33224 C245.102421,171.083105 244.90481,170.481567 245.153945,169.988667 C245.434508,169.433589 245.685724,168.856009 245.905719,168.259422 C246.096799,167.741245 246.671766,167.476082 247.189942,167.667163 C247.708118,167.858243 247.973282,168.433209 247.782201,168.951386 C247.535827,169.61951 247.254076,170.267292 246.938893,170.890864 Z M248.922286,163.803362 C248.87459,164.353583 248.389882,164.760961 247.839661,164.713265 C247.28944,164.665569 246.882062,164.180861 246.929758,163.63064 C246.975792,163.099596 246.999317,162.563454 246.999985,162.024781 C246.999999,161.906107 246.999304,161.808877 246.997787,161.7093 C246.989373,161.157079 247.430215,160.702595 247.982436,160.694181 C248.534657,160.685767 248.989141,161.126609 248.997555,161.67883 C248.999233,161.788933 249,161.896371 248.999984,162.02614 C248.999245,162.622758 248.973227,163.2157 248.922286,163.803362 Z M248.244337,156.471074 C248.394497,157.002554 248.085376,157.555132 247.553897,157.705292 C247.022417,157.855451 246.469839,157.546331 246.31968,157.014851 C246.146703,156.402613 245.942003,155.80587 245.707103,155.227932 C245.49915,154.716293 245.745337,154.132949 246.256975,153.924997 C246.768614,153.717044 247.351958,153.96323 247.559911,154.474869 C247.822667,155.121345 248.051336,155.787962 248.244337,156.471074 Z M244.832916,149.891085 C245.186892,150.315018 245.130181,150.945639 244.706247,151.299615 C244.282314,151.653591 243.651694,151.596879 243.297718,151.172946 C242.893625,150.688992 242.463342,150.240787 242.010297,149.831838 C241.600331,149.461776 241.567983,148.829438 241.938046,148.419472 C242.308108,148.009506 242.940446,147.977158 243.350412,148.347221 C243.873722,148.819595 244.369104,149.335609 244.832916,149.891085 Z M238.711699,145.602583 C239.235816,145.776708 239.51954,146.342746 239.345415,146.866863 C239.171289,147.39098 238.605252,147.674704 238.081135,147.500579 C237.502973,147.308498 236.912508,147.170776 236.313239,147.089014 C235.766024,147.014353 235.382943,146.510223 235.457604,145.963008 C235.532265,145.415793 236.036394,145.032712 236.583609,145.107373 C237.305918,145.205923 238.016922,145.37176 238.711699,145.602583 Z M231.10915,145.663667 C231.63047,145.48134 232.20089,145.756148 232.383217,146.277469 C232.565545,146.798789 232.290737,147.369209 231.769416,147.551536 C231.200434,147.750533 230.64471,148.002116 230.106162,148.304027 C229.624413,148.574095 229.014945,148.402495 228.744877,147.920747 C228.474808,147.438999 228.646408,146.829531 229.128156,146.559462 C229.767435,146.201081 230.429381,145.901411 231.10915,145.663667 Z M225.01176,150.080041 C225.359186,149.650723 225.988861,149.584337 226.418178,149.931764 C226.847496,150.27919 226.913882,150.908865 226.566456,151.338182 C226.179293,151.816602 225.818151,152.32736 225.485852,152.866776 C225.19618,153.336997 224.580164,153.483362 224.109943,153.193689 C223.639721,152.904017 223.493357,152.288001 223.783029,151.817779 C224.15991,151.205994 224.570467,150.62535 225.01176,150.080041 Z M221.706883,156.646867 C221.852066,156.114006 222.401729,155.799732 222.934589,155.944915 C223.46745,156.090097 223.781724,156.63976 223.636542,157.172621 C223.471865,157.777026 223.338234,158.395146 223.236717,159.024016 C223.148703,159.569242 222.63536,159.939886 222.090134,159.851872 C221.544907,159.763858 221.174263,159.250515 221.262277,158.705289 C221.375042,158.00674 221.523614,157.319513 221.706883,156.646867 Z M221.096965,164.012995 C221.043651,163.463289 221.446057,162.974446 221.995762,162.921132 C222.545468,162.867819 223.034311,163.270224 223.087624,163.81993 C223.149175,164.454566 223.242885,165.080817 223.367894,165.695929 C223.477886,166.23715 223.128306,166.765063 222.587085,166.875055 C222.045864,166.985047 221.517952,166.635467 221.407959,166.094246 C221.269156,165.411257 221.165194,164.716496 221.096965,164.012995 Z M223.156601,171.077088 C222.901725,170.587132 223.092295,169.983327 223.582251,169.728451 C224.072207,169.473575 224.676012,169.664144 224.930888,170.1541 C225.223727,170.717033 225.546448,171.254907 225.896573,171.764057 C226.209509,172.219128 226.094286,172.841721 225.639216,173.154657 C225.184145,173.467593 224.561552,173.352371 224.248616,172.8973 C223.85188,172.320368 223.487018,171.712258 223.156601,171.077088 Z M227.983065,176.718733 C227.531351,176.40097 227.422763,175.777186 227.740526,175.325472 C228.058289,174.873759 228.682073,174.76517 229.133787,175.082933 C229.642345,175.440684 230.170782,175.751388 230.715127,176.012383 C231.213128,176.251157 231.423273,176.848432 231.184498,177.346433 C230.945724,177.844434 230.348449,178.054579 229.850448,177.815805 C229.205385,177.506519 228.581383,177.139626 227.983065,176.718733 Z" id="Oval" fill="#FF3232" fill-rule="nonzero" opacity="0.5"></path>
                    <ellipse id="Oval" fill="#FF4E4E" fill-rule="nonzero" opacity="0.503603981" cx="235.5" cy="163" rx="5.5" ry="8"></ellipse>
                    <path d="M87,179 C86.4477153,179 86,178.552285 86,178 C86,177.447715 86.4477153,177 87,177 C87.6090807,177 88.2120453,176.943184 88.8058135,176.830823 C89.3484677,176.728134 89.8716212,177.084797 89.9743098,177.627451 C90.0769983,178.170105 89.7203357,178.693259 89.1776816,178.795947 C88.4616046,178.931453 87.734149,179 87,179 Z M94.1440782,176.628201 C93.6960251,176.951105 93.0710411,176.849651 92.7481373,176.401598 C92.4252335,175.953545 92.5266871,175.328561 92.9747403,175.005657 C93.4673965,174.650609 93.9398373,174.25186 94.3883168,173.812658 C94.7829013,173.426237 95.4160317,173.432854 95.8024531,173.827439 C96.1888746,174.222023 96.1822571,174.855154 95.7876727,175.241575 C95.2680985,175.7504 94.718875,176.213955 94.1440782,176.628201 Z M98.9388933,170.890864 C98.6897584,171.383764 98.0882204,171.581375 97.5953205,171.33224 C97.1024207,171.083105 96.9048102,170.481567 97.1539451,169.988667 C97.4345076,169.433589 97.6857238,168.856009 97.9057189,168.259422 C98.0967995,167.741245 98.6717658,167.476082 99.1899421,167.667163 C99.7081183,167.858243 99.9732818,168.433209 99.7822012,168.951386 C99.5358265,169.61951 99.2540764,170.267292 98.9388933,170.890864 Z M100.922286,163.803362 C100.87459,164.353583 100.389882,164.760961 99.8396609,164.713265 C99.2894395,164.665569 98.8820622,164.180861 98.9297581,163.63064 C98.9757917,163.099596 98.9993173,162.563454 98.9999846,162.024781 C98.999999,161.906107 98.9993044,161.808877 98.9977871,161.7093 C98.989373,161.157079 99.4302153,160.702595 99.982436,160.694181 C100.534657,160.685767 100.989141,161.126609 100.997555,161.67883 C100.999233,161.788933 101,161.896371 100.999984,162.02614 C100.999245,162.622758 100.973227,163.2157 100.922286,163.803362 Z M100.244337,156.471074 C100.394497,157.002554 100.085376,157.555132 99.5538967,157.705292 C99.0224172,157.855451 98.4698393,157.546331 98.3196796,157.014851 C98.1467029,156.402613 97.9420025,155.80587 97.707103,155.227932 C97.4991504,154.716293 97.7453367,154.132949 98.2569754,153.924997 C98.7686141,153.717044 99.3519581,153.96323 99.5599107,154.474869 C99.8226672,155.121345 100.051336,155.787962 100.244337,156.471074 Z M96.8329159,149.891085 C97.186892,150.315018 97.1301805,150.945639 96.7062473,151.299615 C96.2823141,151.653591 95.651694,151.596879 95.2977179,151.172946 C94.8936254,150.688992 94.4633415,150.240787 94.0102966,149.831838 C93.6003308,149.461776 93.5679828,148.829438 93.9380456,148.419472 C94.3081083,148.009506 94.9404464,147.977158 95.3504123,148.347221 C95.8737223,148.819595 96.3691038,149.335609 96.8329159,149.891085 Z M90.7116987,145.602583 C91.2358158,145.776708 91.5195401,146.342746 91.3454147,146.866863 C91.1712892,147.39098 90.6052517,147.674704 90.0811346,147.500579 C89.5029729,147.308498 88.912508,147.170776 88.3132394,147.089014 C87.7660244,147.014353 87.3829434,146.510223 87.4576039,145.963008 C87.5322645,145.415793 88.0363943,145.032712 88.5836093,145.107373 C89.3059176,145.205923 90.0169223,145.37176 90.7116987,145.602583 Z M83.1091499,145.663667 C83.6304705,145.48134 84.2008899,145.756148 84.3832174,146.277469 C84.5655448,146.798789 84.2907366,147.369209 83.7694161,147.551536 C83.2004341,147.750533 82.6447102,148.002116 82.1061615,148.304027 C81.6244133,148.574095 81.0149453,148.402495 80.7448766,147.920747 C80.4748079,147.438999 80.6464081,146.829531 81.1281564,146.559462 C81.7674354,146.201081 82.4293806,145.901411 83.1091499,145.663667 Z M77.0117596,150.080041 C77.3591859,149.650723 77.988861,149.584337 78.4181784,149.931764 C78.8474959,150.27919 78.9138818,150.908865 78.5664556,151.338182 C78.1792931,151.816602 77.8181509,152.32736 77.4858524,152.866776 C77.1961801,153.336997 76.5801643,153.483362 76.1099427,153.193689 C75.6397211,152.904017 75.4933569,152.288001 75.7830293,151.817779 C76.1599097,151.205994 76.5704669,150.62535 77.0117596,150.080041 Z M73.7068828,156.646867 C73.8520657,156.114006 74.4017285,155.799732 74.9345891,155.944915 C75.4674496,156.090097 75.7817244,156.63976 75.6365415,157.172621 C75.4718655,157.777026 75.3382336,158.395146 75.2367173,159.024016 C75.1487031,159.569242 74.6353602,159.939886 74.0901336,159.851872 C73.5449071,159.763858 73.1742633,159.250515 73.2622774,158.705289 C73.3750418,158.00674 73.5236139,157.319513 73.7068828,156.646867 Z M73.0969647,164.012995 C73.0436513,163.463289 73.4460566,162.974446 73.9957621,162.921132 C74.5454676,162.867819 75.034311,163.270224 75.0876244,163.81993 C75.1491748,164.454566 75.2428848,165.080817 75.3678939,165.695929 C75.4778861,166.23715 75.1283062,166.765063 74.5870852,166.875055 C74.0458642,166.985047 73.5179516,166.635467 73.4079594,166.094246 C73.2691556,165.411257 73.1651941,164.716496 73.0969647,164.012995 Z M75.1566013,171.077088 C74.9017253,170.587132 75.0922951,169.983327 75.5822509,169.728451 C76.0722067,169.473575 76.6760122,169.664144 76.9308882,170.1541 C77.2237269,170.717033 77.5464477,171.254907 77.8965728,171.764057 C78.2095091,172.219128 78.0942864,172.841721 77.6392158,173.154657 C77.1841451,173.467593 76.5615524,173.352371 76.2486161,172.8973 C75.8518802,172.320368 75.4870181,171.712258 75.1566013,171.077088 Z M79.9830651,176.718733 C79.5313515,176.40097 79.4227631,175.777186 79.7405261,175.325472 C80.058289,174.873759 80.682073,174.76517 81.1337866,175.082933 C81.6423448,175.440684 82.1707818,175.751388 82.7151266,176.012383 C83.2131278,176.251157 83.4232727,176.848432 83.1844984,177.346433 C82.945724,177.844434 82.3484494,178.054579 81.8504481,177.815805 C81.2053848,177.506519 80.5813828,177.139626 79.9830651,176.718733 Z" id="Oval" fill="#FF3232" fill-rule="nonzero" opacity="0.5"></path>
                    <ellipse id="Oval" fill="#FF4E4E" fill-rule="nonzero" opacity="0.503603981" cx="87.5" cy="163" rx="5.5" ry="8"></ellipse>
                    <path d="M112.266536,161.15135 L111.733464,160.305281 C120.20778,154.965976 128.99933,155.247928 138.016351,161.13525 L137.46965,161.972577 C128.772386,156.29403 120.401936,156.025583 112.266536,161.15135 Z" id="Path-11" fill="#F3BDA6" fill-rule="nonzero"></path>
                    <path d="M181.396349,174.697946 C181.08925,174.238916 181.212415,173.617846 181.671446,173.310747 C182.130476,173.003648 182.751546,173.126813 183.058645,173.585844 C183.40002,174.096109 183.780938,174.589337 184.199025,175.062631 C184.564661,175.47655 184.52552,176.108504 184.111602,176.47414 C183.697683,176.839776 183.065729,176.800636 182.700093,176.386717 C182.22333,175.846998 181.787775,175.283024 181.396349,174.697946 Z M186.790505,179.800436 C186.320343,179.510667 186.174104,178.894622 186.463873,178.424459 C186.753641,177.954297 187.369686,177.808058 187.839849,178.097826 C188.372429,178.426063 188.928144,178.729676 189.504252,179.006948 C190.001901,179.246457 190.211163,179.844041 189.971654,180.341689 C189.732144,180.839338 189.13456,181.0486 188.636912,180.809091 C187.9987,180.501931 187.382226,180.165122 186.790505,179.800436 Z M193.620078,182.495719 C193.079696,182.381674 192.734082,181.851157 192.848127,181.310775 C192.962172,180.770394 193.492689,180.424779 194.033071,180.538824 C194.652055,180.669458 195.281042,180.772866 195.917922,180.848371 C196.466366,180.913392 196.858258,181.410703 196.793237,181.959147 C196.728217,182.507591 196.230905,182.899483 195.682461,182.834462 C194.98603,182.751897 194.297806,182.63875 193.620078,182.495719 Z M200.848275,182.88534 C200.298641,182.939384 199.809263,182.537629 199.755219,181.987995 C199.701175,181.438361 200.10293,180.948983 200.652565,180.894939 C201.29076,180.832187 201.921701,180.741555 202.543331,180.623673 C203.085946,180.520775 203.609237,180.877235 203.712135,181.41985 C203.815033,181.962464 203.458573,182.485755 202.915959,182.588653 C202.235737,182.717646 201.545765,182.816758 200.848275,182.88534 Z M207.915931,181.017834 C207.412777,181.245548 206.82029,181.02226 206.592576,180.519106 C206.364861,180.015951 206.588149,179.423464 207.091304,179.19575 C207.673995,178.932039 208.237286,178.64176 208.778456,178.326546 C209.255688,178.048575 209.867901,178.210107 210.145873,178.687339 C210.423844,179.164571 210.262312,179.776784 209.78508,180.054756 C209.184669,180.404475 208.560625,180.726062 207.915931,181.017834 Z M213.994912,176.722655 C213.61817,177.126491 212.985386,177.148456 212.58155,176.771714 C212.177713,176.394972 212.155749,175.762188 212.532491,175.358351 C212.963876,174.895942 213.359123,174.413026 213.715791,173.912457 C214.036275,173.46267 214.660703,173.357849 215.11049,173.678333 C215.560277,173.998818 215.665098,174.623246 215.344614,175.073033 C214.936614,175.645644 214.485724,176.196544 213.994912,176.722655 Z M213.627874,156.896024 C214.017002,157.287939 214.014744,157.9211 213.622829,158.310229 C213.230914,158.699357 212.597753,158.697098 212.208624,158.305183 C211.772529,157.865965 211.303757,157.447622 210.805019,157.052634 C210.372067,156.709748 210.299054,156.080806 210.641941,155.647855 C210.984827,155.214903 211.613769,155.14189 212.046721,155.484777 C212.607337,155.92877 213.135428,156.400052 213.627874,156.896024 Z M207.488684,152.794463 C207.996738,153.011027 208.233037,153.598446 208.016473,154.106499 C207.799909,154.614553 207.212491,154.850852 206.704437,154.634288 C206.125698,154.387593 205.529827,154.167092 204.919366,153.974003 C204.392794,153.807449 204.100943,153.245559 204.267497,152.718987 C204.434052,152.192415 204.995942,151.900563 205.522514,152.067118 C206.194248,152.279587 206.850559,152.522455 207.488684,152.794463 Z M200.37088,151.072583 C200.921493,151.115523 201.333044,151.596692 201.290105,152.147305 C201.247165,152.697918 200.765996,153.109469 200.215383,153.066529 C199.656811,153.022969 199.093599,153.000701 198.528024,153.000017 C198.429155,153.000001 198.354213,153.000342 198.276732,153.001118 C197.724475,153.006651 197.272297,152.563444 197.266763,152.011187 C197.26123,151.45893 197.704437,151.006752 198.256694,151.001218 C198.341236,151.000371 198.422926,151 198.529394,151.000018 C199.147101,151.000765 199.761377,151.025052 200.37088,151.072583 Z M193.070116,151.627451 C193.607516,151.500096 194.146407,151.832504 194.273761,152.369905 C194.401115,152.907305 194.068707,153.446196 193.531307,153.57355 C192.90787,153.721294 192.296253,153.896765 191.698848,154.098977 C191.175718,154.276047 190.608094,153.99551 190.431024,153.47238 C190.253954,152.949251 190.53449,152.381627 191.05762,152.204557 C191.714286,151.982287 192.385982,151.789578 193.070116,151.627451 Z M186.31422,154.502641 C186.775833,154.199438 187.395839,154.327855 187.699042,154.789468 C188.002245,155.251081 187.873828,155.871086 187.412215,156.174289 C186.879268,156.524347 186.372432,156.899134 185.894483,157.296459 C185.469784,157.649517 184.839288,157.59144 184.486231,157.166741 C184.133173,156.742043 184.19125,156.111547 184.615949,155.758489 C185.151853,155.312985 185.718985,154.893612 186.31422,154.502641 Z" id="Shape" fill="#FF3232" fill-rule="nonzero" opacity="0.5"></path>
                </g>
                <path d="M128.001478,61.4634213 C136.531099,51.3928518 149.268984,45 163.5,45 C177.248091,45 189.60267,50.9663352 198.115741,60.4510092 C203.125142,58.2324218 208.668647,57 214.5,57 C236.867532,57 255,75.1324676 255,97.5 C255,119.867532 236.867532,138 214.5,138 C205.281178,138 196.781763,134.919852 189.97474,129.732539 C182.461202,134.945232 173.33734,138 163.5,138 C152.965882,138 143.249894,134.497169 135.453267,128.592737 C128.425006,134.465585 119.375256,138 109.5,138 C87.1324676,138 69,119.867532 69,97.5 C69,75.1324676 87.1324676,57 109.5,57 C116.165906,57 122.455678,58.6104199 128.001478,61.4634213 Z" id="Combined-Shape" fill="#34709B" fill-rule="nonzero"></path>
            </g>
            <path d="M211.666624,157.294293 C211.122633,157.198939 210.75894,156.680648 210.854294,156.136657 C210.949648,155.592666 211.467939,155.228974 212.01193,155.324327 L216.312227,156.078107 C216.909119,156.182733 217.276516,156.78998 217.092192,157.367259 L215.756399,161.550782 C215.588411,162.076898 215.025728,162.367218 214.499612,162.19923 C213.973495,162.031242 213.683175,161.468559 213.851163,160.942443 L214.838488,157.850274 L211.666624,157.294293 Z" id="Path-14" fill="#FF8178" fill-rule="nonzero" transform="translate(213.989556, 158.778012) rotate(73.000000) translate(-213.989556, -158.778012) "></path>
            <path d="M176.110295,167.554744 C175.566304,167.45939 175.202612,166.941099 175.297966,166.397108 C175.393319,165.853117 175.91161,165.489425 176.455601,165.584779 L180.755899,166.338558 C181.35279,166.443185 181.720188,167.050431 181.535863,167.62771 L180.200071,171.811233 C180.032082,172.337349 179.469399,172.62767 178.943283,172.459682 C178.417167,172.291693 178.126847,171.72901 178.294835,171.202894 L179.28216,168.110726 L176.110295,167.554744 Z" id="Path-14" fill="#FF8178" fill-rule="nonzero" transform="translate(178.433228, 169.038464) rotate(91.000000) translate(-178.433228, -169.038464) "></path>
            <path d="M107.469053,174.697946 C107.161954,174.238916 107.285119,173.617846 107.744149,173.310747 C108.203179,173.003648 108.82425,173.126813 109.131348,173.585844 C109.472724,174.096109 109.853642,174.589337 110.271728,175.062631 C110.637364,175.47655 110.598224,176.108504 110.184305,176.47414 C109.770387,176.839776 109.138433,176.800636 108.772797,176.386717 C108.296034,175.846998 107.860479,175.283024 107.469053,174.697946 Z M112.863209,179.800436 C112.393046,179.510667 112.246808,178.894622 112.536576,178.424459 C112.826344,177.954297 113.44239,177.808058 113.912553,178.097826 C114.445132,178.426063 115.000847,178.729676 115.576956,179.006948 C116.074604,179.246457 116.283867,179.844041 116.044357,180.341689 C115.804848,180.839338 115.207264,181.0486 114.709616,180.809091 C114.071404,180.501931 113.454929,180.165122 112.863209,179.800436 Z M119.692782,182.495719 C119.1524,182.381674 118.806786,181.851157 118.920831,181.310775 C119.034875,180.770394 119.565393,180.424779 120.105774,180.538824 C120.724759,180.669458 121.353746,180.772866 121.990626,180.848371 C122.53907,180.913392 122.930962,181.410703 122.865941,181.959147 C122.80092,182.507591 122.303609,182.899483 121.755165,182.834462 C121.058734,182.751897 120.370509,182.63875 119.692782,182.495719 Z M126.920978,182.88534 C126.371344,182.939384 125.881966,182.537629 125.827923,181.987995 C125.773879,181.438361 126.175634,180.948983 126.725268,180.894939 C127.363464,180.832187 127.994404,180.741555 128.616035,180.623673 C129.158649,180.520775 129.681941,180.877235 129.784839,181.41985 C129.887737,181.962464 129.531277,182.485755 128.988662,182.588653 C128.308441,182.717646 127.618469,182.816758 126.920978,182.88534 Z M133.988635,181.017834 C133.48548,181.245548 132.892994,181.02226 132.665279,180.519106 C132.437565,180.015951 132.660853,179.423464 133.164007,179.19575 C133.746699,178.932039 134.309989,178.64176 134.85116,178.326546 C135.328391,178.048575 135.940605,178.210107 136.218576,178.687339 C136.496548,179.164571 136.335016,179.776784 135.857784,180.054756 C135.257372,180.404475 134.633328,180.726062 133.988635,181.017834 Z M140.067616,176.722655 C139.690874,177.126491 139.05809,177.148456 138.654253,176.771714 C138.250417,176.394972 138.228452,175.762188 138.605194,175.358351 C139.03658,174.895942 139.431826,174.413026 139.788495,173.912457 C140.108979,173.46267 140.733407,173.357849 141.183194,173.678333 C141.632981,173.998818 141.737801,174.623246 141.417317,175.073033 C141.009318,175.645644 140.558428,176.196544 140.067616,176.722655 Z M139.700577,156.896024 C140.089706,157.287939 140.087447,157.9211 139.695532,158.310229 C139.303617,158.699357 138.670456,158.697098 138.281328,158.305183 C137.845232,157.865965 137.37646,157.447622 136.877722,157.052634 C136.44477,156.709748 136.371758,156.080806 136.714644,155.647855 C137.057531,155.214903 137.686472,155.14189 138.119424,155.484777 C138.68004,155.92877 139.208131,156.400052 139.700577,156.896024 Z M133.561388,152.794463 C134.069442,153.011027 134.305741,153.598446 134.089177,154.106499 C133.872613,154.614553 133.285194,154.850852 132.777141,154.634288 C132.198401,154.387593 131.60253,154.167092 130.99207,153.974003 C130.465498,153.807449 130.173646,153.245559 130.340201,152.718987 C130.506755,152.192415 131.068645,151.900563 131.595217,152.067118 C132.266951,152.279587 132.923263,152.522455 133.561388,152.794463 Z M126.443584,151.072583 C126.994197,151.115523 127.405747,151.596692 127.362808,152.147305 C127.319869,152.697918 126.8387,153.109469 126.288087,153.066529 C125.729515,153.022969 125.166302,153.000701 124.600728,153.000017 C124.501858,153.000001 124.426917,153.000342 124.349436,153.001118 C123.797179,153.006651 123.345,152.563444 123.339467,152.011187 C123.333934,151.45893 123.777141,151.006752 124.329398,151.001218 C124.41394,151.000371 124.495629,151 124.602098,151.000018 C125.219804,151.000765 125.834081,151.025052 126.443584,151.072583 Z M119.142819,151.627451 C119.68022,151.500096 120.21911,151.832504 120.346464,152.369905 C120.473819,152.907305 120.141411,153.446196 119.60401,153.57355 C118.980573,153.721294 118.368957,153.896765 117.771551,154.098977 C117.248422,154.276047 116.680798,153.99551 116.503727,153.47238 C116.326657,152.949251 116.607194,152.381627 117.130324,152.204557 C117.78699,151.982287 118.458686,151.789578 119.142819,151.627451 Z M112.386924,154.502641 C112.848537,154.199438 113.468543,154.327855 113.771745,154.789468 C114.074948,155.251081 113.946531,155.871086 113.484919,156.174289 C112.951972,156.524347 112.445136,156.899134 111.967186,157.296459 C111.542488,157.649517 110.911992,157.59144 110.558934,157.166741 C110.205877,156.742043 110.263954,156.111547 110.688652,155.758489 C111.224557,155.312985 111.791688,154.893612 112.386924,154.502641 Z" id="Shape" fill="#FF3232" fill-rule="nonzero" opacity="0.5"></path>
            <path d="M106.957269,156.220563 C106.413278,156.125209 106.049586,155.606918 106.144939,155.062927 C106.240293,154.518936 106.758584,154.155244 107.302575,154.250597 L111.602872,155.004377 C112.199764,155.109003 112.567162,155.71625 112.382837,156.293529 L111.047044,160.477052 C110.879056,161.003168 110.316373,161.293488 109.790257,161.1255 C109.264141,160.957512 108.97382,160.394829 109.141809,159.868713 L110.129133,156.776544 L106.957269,156.220563 Z" id="Path-14" fill="#FF8178" fill-rule="nonzero" transform="translate(109.280201, 157.704283) rotate(168.000000) translate(-109.280201, -157.704283) "></path>
            <path d="M141.472187,167.418008 C140.928196,167.322655 140.564504,166.804364 140.659858,166.260373 C140.755211,165.716382 141.273502,165.352689 141.817493,165.448043 L146.11779,166.201823 C146.714682,166.306449 147.08208,166.913696 146.897755,167.490975 L145.561963,171.674497 C145.393974,172.200614 144.831291,172.490934 144.305175,172.322946 C143.779059,172.154958 143.488739,171.592275 143.656727,171.066158 L144.644052,167.97399 L141.472187,167.418008 Z" id="Path-14" fill="#FF8178" fill-rule="nonzero" transform="translate(143.795120, 168.901728) rotate(153.000000) translate(-143.795120, -168.901728) "></path>
            <g id="Group-3" transform="translate(159.000000, 136.000000)">
                <g id="手" transform="translate(72.577743, 77.232696) scale(-1, 1) rotate(-323.000000) translate(-72.577743, -77.232696) translate(30.077743, 13.232696)">
                    <path d="M16.2452754,51.3211859 C18.4782269,53.3123516 22.9626627,57.9223097 25.1956143,55.931144 C25.0682037,54.1263851 22.0587018,41.2031878 21.196327,39.426627 C20.0018654,36.9659411 17.4943574,33.385333 13.6738029,28.6848027 C7.40229454,22.9358424 8.94333035,33.2481995 12.257683,36.1160652 C15.2542925,39.9430533 12.2830869,44.8953148 16.2452754,51.3211859 Z" id="Path" fill="#FEDED1" transform="translate(17.283253, 41.694860) scale(-1, 1) rotate(53.000000) translate(-17.283253, -41.694860) "></path>
                    <path d="M62.9583549,36.5768129 L58.1288879,34.7562101 L54.6332724,40.4898991 C55.6426008,47.069515 56.5887891,52.8346107 57.4718376,57.7851862 C58.354886,62.7357617 56.362858,67.601543 51.4957535,72.3825301 L75.4452855,116.135396 L49.3544114,124.309087 L28.4206988,75.6019331 L23.3871357,32.6242076 C34.7213109,18.3505928 40.7526046,10.9393364 41.4810169,10.3904384 C42.2094292,9.84154034 45.6970214,10.6338864 51.9437933,12.7674764 L56.9726874,17.7800341 L59.5625878,18.0204508 L62.2524013,21.5899538 L65.2633361,23.1233959 L65.5958034,28.1517498 L71.2882227,33.5808938 C70.1144699,38.2300847 68.3588775,43.281904 66.0214454,48.7363519 C61.7183048,46.6498075 60.6972746,42.5966279 62.9583549,36.5768129 Z M50.3448063,19.6667065 L45.0191485,17.9855706 L42.5223637,19.8670329 L40.0656929,25.2975658 L50.3448063,19.6667065 Z" id="Combined-Shape" fill="#FFE7DD" fill-rule="nonzero" transform="translate(49.416211, 67.265525) rotate(-10.000000) translate(-49.416211, -67.265525) "></path>
                </g>
                <polygon id="Path-5" fill="#DEF5FF" fill-rule="nonzero" points="97.4537318 101.232666 120.324036 188 65.8776094 188 67.7521802 102.5013"></polygon>
                <path d="M95.4960806,87.6673597 C97.3907061,92.977135 98.7463396,97.098505 99.5629809,100.03147 L68.9036577,111.561349 L64.234759,99.6143541 L95.4960806,87.6673597 Z" id="Path" fill="#2A5F85" transform="translate(81.898870, 99.614354) rotate(13.000000) translate(-81.898870, -99.614354) "></path>
            </g>
            <g id="Group-3" transform="translate(92.000000, 230.000000) scale(-1, 1) translate(-92.000000, -230.000000) translate(19.000000, 136.000000)">
                <g id="手" transform="translate(72.577743, 77.232696) scale(-1, 1) rotate(-323.000000) translate(-72.577743, -77.232696) translate(30.077743, 13.232696)">
                    <path d="M16.2452754,51.3211859 C18.4782269,53.3123516 22.9626627,57.9223097 25.1956143,55.931144 C25.0682037,54.1263851 22.0587018,41.2031878 21.196327,39.426627 C20.0018654,36.9659411 17.4943574,33.385333 13.6738029,28.6848027 C7.40229454,22.9358424 8.94333035,33.2481995 12.257683,36.1160652 C15.2542925,39.9430533 12.2830869,44.8953148 16.2452754,51.3211859 Z" id="Path" fill="#FEDED1" transform="translate(17.283253, 41.694860) scale(-1, 1) rotate(53.000000) translate(-17.283253, -41.694860) "></path>
                    <path d="M62.9583549,36.5768129 L58.1288879,34.7562101 L54.6332724,40.4898991 C55.6426008,47.069515 56.5887891,52.8346107 57.4718376,57.7851862 C58.354886,62.7357617 56.362858,67.601543 51.4957535,72.3825301 L75.4452855,116.135396 L49.3544114,124.309087 L28.4206988,75.6019331 L23.3871357,32.6242076 C34.7213109,18.3505928 40.7526046,10.9393364 41.4810169,10.3904384 C42.2094292,9.84154034 45.6970214,10.6338864 51.9437933,12.7674764 L56.9726874,17.7800341 L59.5625878,18.0204508 L62.2524013,21.5899538 L65.2633361,23.1233959 L65.5958034,28.1517498 L71.2882227,33.5808938 C70.1144699,38.2300847 68.3588775,43.281904 66.0214454,48.7363519 C61.7183048,46.6498075 60.6972746,42.5966279 62.9583549,36.5768129 Z M50.3448063,19.6667065 L45.0191485,17.9855706 L42.5223637,19.8670329 L40.0656929,25.2975658 L50.3448063,19.6667065 Z" id="Combined-Shape" fill="#FFE7DD" fill-rule="nonzero" transform="translate(49.416211, 67.265525) rotate(-10.000000) translate(-49.416211, -67.265525) "></path>
                </g>
                <polygon id="Path-5" fill="#DEF5FF" fill-rule="nonzero" points="97.4537318 101.232666 120.324036 188 65.8776094 188 67.7521802 102.5013"></polygon>
                <path d="M95.4960806,87.6673597 C97.3907061,92.977135 98.7463396,97.098505 99.5629809,100.03147 L68.9036577,111.561349 L64.234759,99.6143541 L95.4960806,87.6673597 Z" id="Path" fill="#2A5F85" transform="translate(81.898870, 99.614354) rotate(13.000000) translate(-81.898870, -99.614354) "></path>
            </g>
        </g>
    </g>
</svg>