<?xml version="1.0" encoding="UTF-8"?>
<svg width="360px" height="122px" viewBox="0 0 360 122" version="1.1" xmlns="http://www.w3.org/2000/svg" xmlns:xlink="http://www.w3.org/1999/xlink">
    <!-- Generator: Sketch 53.2 (72643) - https://sketchapp.com -->
    <title>acupoint face-1_F</title>
    <desc>Created with Sketch.</desc>
    <g id="acupoint-face-1_F" stroke="none" stroke-width="1" fill="none" fill-rule="evenodd">
        <g id="Group-6">
            <rect id="Rectangle" fill="#D8D8D8" opacity="0" x="0" y="0" width="360" height="122"></rect>
            <g id="Group-4" transform="translate(100.677734, 17.000000)">
                <g id="资源-112" transform="translate(34.322266, 0.000000)">
                    <path d="M29.25,0.19 C24.0536691,16.6427658 25.0603507,34.4286587 32.08,50.19" id="Path" stroke="#000000"></path>
                    <path d="M46.09,0.19 C46.09,0.19 42.59,8.69 44.76,14.69 C44.76,14.69 23.09,48.52 37.09,90.36" id="Path" stroke="#000000"></path>
                    <path d="M36.21,87.6 C36.21,87.6 37.08,90.36 33.75,88.69 C30.42,87.02 31.25,81 29,77.69 C22.32,67.62 24.25,56.86 23.59,55.19 C22.93,53.52 21.09,45.86 21.59,43.69 C22.88,38.08 27.26,42.19 27.26,42.19" id="Path" stroke="#000000"></path>
                    <path d="M31.42,58.52 C31.42,58.52 28.87,45.52 26,45.27 C23.13,45.02 24.53,51 26,52.86 C27.47,54.72 24.64,61.66 28.93,67.69" id="Path" stroke="#000000"></path>
                    <path d="M29.52,55.48 C29.52,55.48 26.89,56.36 28.91,61.69 C30.93,67.02 29.64,67.88 30.59,71.19" id="Path" stroke="#000000"></path>
                    <path d="M74.56,50.44 C74.7889002,52.4369478 74.7417913,54.4559016 74.42,56.44" id="Path" stroke="#000000"></path>
                    <path d="M72.14,41 C72.9623352,43.072661 73.6112291,45.2099971 74.08,47.39" id="Path" stroke="#000000"></path>
                    <path d="M47.5,32.69 C54.02,27.51 66.13,30.59 70.32,37.26" id="Path" stroke="#000000"></path>
                    <path d="M46.09,44.84 C49.1587665,42.5303055 52.9449527,41.3792199 56.78,41.59 C63,42 65.65,47.9 65.65,47.9 C65.65,47.9 58.84,49.9 54.59,48.34 C50.34,46.78 46.09,44.84 46.09,44.84 Z" id="Path" stroke="#000000"></path>
                    <path d="M46.34,41.55 C46.34,41.55 51.65,39 57,39.9 C62.35,40.8 65.31,43.4 66.63,45.24" id="Path" stroke="#000000"></path>
                    <path d="M54.84,47.46 C54.84,47.46 52.84,43.99 55.34,42.46 C57.84,40.93 59.59,41.98 60.4,43.4 C61.21,44.82 60.4,48.4 58.65,48.63 C57.2934578,48.6174285 55.9697961,48.2109497 54.84,47.46 L54.84,47.46 Z" id="Path" stroke="#000000" fill="#000000"></path>
                    <circle id="Oval" fill="#FFFFFF" cx="56.89" cy="44.25" r="1.03"></circle>
                    <path d="M55.87,52.77 C55.87,52.77 61.09,54.77 65.65,51.6" id="Path" stroke="#000000"></path>
                    <path d="M71.15,69.21 C71.15,69.21 66.77,71 66.59,75.65 C66.41,80.3 70.34,83.96 72.28,83.65 C74.22,83.34 73.53,82.78 73.53,82.78 C73.53,82.78 70.84,78.09 72.34,79.22 C73.84,80.35 75,83.75 79.4,83.67 C83.8,83.59 85.46,79.21 86.21,79.34 C86.96,79.47 84.84,82.28 85.46,83.09 C86.08,83.9 87.96,83.65 89.15,82.22 C90.34,80.79 95.21,73.9 87,70" id="Path" stroke="#000000"></path>
                    <path d="M84,49.25 C83.7213037,51.3397308 83.7516285,53.4590985 84.09,55.54" id="Path" stroke="#000000"></path>
                    <path d="M85.5,42.46 C85.12,43.66 84.79,44.87 84.5,46.1" id="Path" stroke="#000000"></path>
                    <path d="M111,31.75 C104.8,26.75 93.19,29.5 88.74,35.49" id="Path" stroke="#000000"></path>
                    <path d="M113.83,44.84 C110.761234,42.5303055 106.975047,41.3792199 103.14,41.59 C96.89,42.03 94.27,47.9 94.27,47.9 C94.27,47.9 101.08,49.9 105.33,48.34 C109.58,46.78 113.83,44.84 113.83,44.84 Z" id="Path" stroke="#000000"></path>
                    <path d="M113.58,41.55 C113.58,41.55 108.27,39 103,39.9 C97.73,40.8 94.69,43.4 93.38,45.24" id="Path" stroke="#000000"></path>
                    <path d="M105.08,47.46 C105.08,47.46 107.08,43.99 104.58,42.46 C102.08,40.93 100.33,41.98 99.52,43.4 C98.71,44.82 99.52,48.4 101.27,48.63 C102.626542,48.6174285 103.950204,48.2109497 105.08,47.46 Z" id="Path" stroke="#000000" fill="#000000"></path>
                    <circle id="Oval" fill="#FFFFFF" cx="103.02" cy="44.25" r="1.03"></circle>
                    <path d="M104,52.77 C104,52.77 98.78,54.77 94.22,51.6" id="Path" stroke="#000000"></path>
                    <path d="M129.41,0.4 C134.606331,16.8527658 133.599649,34.6386587 126.58,50.4" id="Path" stroke="#000000"></path>
                    <path d="M112.58,0.4 C112.58,0.4 116.08,8.9 113.91,14.9 C113.91,14.9 135.58,48.73 121.58,90.57" id="Path" stroke="#000000"></path>
                    <path d="M122.45,87.81 C122.45,87.81 121.58,90.57 124.91,88.9 C128.24,87.23 127.41,81.23 129.63,77.9 C136.34,67.83 134.41,57.07 135.08,55.4 C135.75,53.73 137.58,46.07 137.08,43.9 C135.79,38.29 131.41,42.4 131.41,42.4" id="Path" stroke="#000000"></path>
                    <path d="M127.25,58.73 C127.25,58.73 129.8,45.73 132.69,45.48 C135.58,45.23 134.13,51.23 132.69,53.06 C131.25,54.89 134.05,61.86 129.76,67.89" id="Path" stroke="#000000"></path>
                    <path d="M129.14,55.69 C129.14,55.69 131.77,56.57 129.75,61.9 C127.73,67.23 129.02,68.09 128.07,71.4" id="Path" stroke="#000000"></path>
                    <path d="M92,36.11 C92,36.11 101.92,31.22 110.17,34" id="Path" stroke="#000000" stroke-dasharray="0"></path>
                    <path d="M66.59,36.69 C66.59,36.69 59.88,30.93 47.51,34.94" id="Path" stroke="#000000" stroke-dasharray="0"></path>
                    <circle id="Oval" fill="#FF3232" fill-rule="nonzero" opacity="0.863606771" cx="68" cy="40" r="2"></circle>
                    <circle id="Oval" fill="#FF3232" fill-rule="nonzero" opacity="0.863606771" cx="71" cy="46" r="2"></circle>
                    <circle id="Oval" fill="#FF3232" fill-rule="nonzero" opacity="0.863606771" cx="88" cy="46" r="2"></circle>
                    <circle id="Oval" fill="#FF3232" fill-rule="nonzero" opacity="0.863606771" cx="91" cy="40" r="2"></circle>
                    <circle id="Oval" fill="#FF3232" fill-rule="nonzero" opacity="0.863606771" cx="96" cy="61" r="2"></circle>
                    <circle id="Oval" fill="#FF3232" fill-rule="nonzero" opacity="0.863606771" cx="60" cy="61" r="2"></circle>
                    <polygon id="Path-9" fill="#F99292" fill-rule="nonzero" points="13 37.5 13 36.5 63.449093 36.5 66.5750553 38.5839749 66.0203551 39.4160251 63.1463174 37.5"></polygon>
                    <polygon id="Path-10" fill="#F99292" fill-rule="nonzero" points="70.0889039 48.715395 70.9110961 49.284605 66.2602613 56.0024775 12.9952832 55.4999778 13.0047168 54.5000222 65.7397387 54.9975225"></polygon>
                    <polygon id="Path-11" fill="#F99292" fill-rule="nonzero" points="57.5275346 62.6464466 58.2346414 63.3535534 52.0881948 69.5 0 69.5 0 68.5 51.6739812 68.5"></polygon>
                </g>
                <path d="M7.12304688,33.6474609 L4.77929688,33.6474609 L4.77929688,40 L3.81738281,40 L3.81738281,33.6474609 L1.50292969,33.6474609 L1.50292969,32.890625 L7.12304688,32.890625 L7.12304688,33.6474609 Z M9.04199219,40 L8.08007812,40 L8.08007812,34.7167969 L9.04199219,34.7167969 L9.04199219,40 Z M9.04199219,33.3642578 L8.08007812,33.3642578 L8.08007812,32.3828125 L9.04199219,32.3828125 L9.04199219,33.3642578 Z M13.7685547,40 C13.7360024,39.840494 13.7107748,39.6997076 13.6928711,39.5776367 C13.6749674,39.4555658 13.664388,39.3326829 13.6611328,39.2089844 C13.4820955,39.4628919 13.2485366,39.6752921 12.9604492,39.8461914 C12.6723618,40.0170907 12.3623063,40.1025391 12.0302734,40.1025391 C11.4801405,40.1025391 11.0610366,39.9617527 10.7729492,39.6801758 C10.4848618,39.3985989 10.3408203,39.0104191 10.3408203,38.515625 C10.3408203,38.0110652 10.5450826,37.6163751 10.9536133,37.331543 C11.362144,37.0467108 11.9163376,36.9042969 12.6162109,36.9042969 L13.6611328,36.9042969 L13.6611328,36.3818359 C13.6611328,36.0725896 13.5667327,35.8276376 13.3779297,35.6469727 C13.1891267,35.4663077 12.9222022,35.3759766 12.5771484,35.3759766 C12.2646469,35.3759766 12.0123708,35.4541008 11.8203125,35.6103516 C11.6282542,35.7666023 11.5322266,35.953775 11.5322266,36.171875 L10.6191406,36.1816406 L10.609375,36.1523438 C10.5865884,35.7682272 10.7664369,35.4166683 11.1489258,35.0976562 C11.5314147,34.7786442 12.0253876,34.6191406 12.6308594,34.6191406 C13.2298207,34.6191406 13.7115867,34.7713201 14.0761719,35.0756836 C14.440757,35.3800471 14.6230469,35.818682 14.6230469,36.3916016 L14.6230469,38.9355469 C14.6230469,39.1243499 14.6328124,39.3066397 14.6523438,39.4824219 C14.6718751,39.658204 14.707682,39.8307283 14.7597656,40 L13.7685547,40 Z M12.171875,39.296875 C12.520184,39.296875 12.8343085,39.2073577 13.1142578,39.0283203 C13.3942071,38.849283 13.576497,38.6442069 13.6611328,38.4130859 L13.6611328,37.5537109 L12.5820312,37.5537109 C12.1946595,37.5537109 11.884604,37.6513662 11.6518555,37.8466797 C11.4191069,38.0419932 11.3027344,38.2714831 11.3027344,38.5351562 C11.3027344,38.7695324 11.3759758,38.9550774 11.5224609,39.0917969 C11.668946,39.2285163 11.8854152,39.296875 12.171875,39.296875 Z M16.8789062,34.7167969 L16.9472656,35.5029297 C17.1230478,35.2229804 17.3435859,35.0056974 17.6088867,34.8510742 C17.8741875,34.696451 18.1761051,34.6191406 18.5146484,34.6191406 C19.0843127,34.6191406 19.5253891,34.7859684 19.8378906,35.1196289 C20.1503922,35.4532894 20.3066406,35.968421 20.3066406,36.6650391 L20.3066406,40 L19.3447266,40 L19.3447266,36.6845703 C19.3447266,36.2190732 19.2527678,35.8886729 19.0688477,35.6933594 C18.8849275,35.4980459 18.6041686,35.4003906 18.2265625,35.4003906 C17.9303371,35.4003906 17.6788747,35.4597976 17.472168,35.5786133 C17.2654612,35.697429 17.1018886,35.8642567 16.9814453,36.0791016 L16.9814453,40 L16.0195312,40 L16.0195312,34.7167969 L16.8789062,34.7167969 Z M23.3193359,38.0419922 L23.4902344,38.7060547 L23.5195312,38.7060547 L24.8183594,34.7167969 L25.8876953,34.7167969 L23.6660156,40.8105469 C23.5325514,41.1653664 23.3413098,41.4746081 23.0922852,41.7382812 C22.8432605,42.0019544 22.5071636,42.1337891 22.0839844,42.1337891 C22.005859,42.1337891 21.9065761,42.1248373 21.7861328,42.1069336 C21.6656895,42.0890299 21.572917,42.0719402 21.5078125,42.0556641 L21.6054688,41.2988281 C21.5859374,41.2955729 21.6437168,41.2988281 21.7788086,41.3085938 C21.9139004,41.3183594 21.9993488,41.3232422 22.0351562,41.3232422 C22.2402354,41.3232422 22.407877,41.2320973 22.5380859,41.0498047 C22.6682949,40.8675121 22.7773433,40.6656912 22.8652344,40.4443359 L23.0947266,39.8925781 L21.1318359,34.7167969 L22.2060547,34.7167969 L23.3193359,38.0419922 Z M27.7724609,40 L26.8105469,40 L26.8105469,34.7167969 L27.7724609,34.7167969 L27.7724609,40 Z M27.7724609,33.3642578 L26.8105469,33.3642578 L26.8105469,32.3828125 L27.7724609,32.3828125 L27.7724609,33.3642578 Z M30.1113281,34.7167969 L30.1796875,35.5029297 C30.3554696,35.2229804 30.5760078,35.0056974 30.8413086,34.8510742 C31.1066094,34.696451 31.408527,34.6191406 31.7470703,34.6191406 C32.3167346,34.6191406 32.7578109,34.7859684 33.0703125,35.1196289 C33.3828141,35.4532894 33.5390625,35.968421 33.5390625,36.6650391 L33.5390625,40 L32.5771484,40 L32.5771484,36.6845703 C32.5771484,36.2190732 32.4851897,35.8886729 32.3012695,35.6933594 C32.1173493,35.4980459 31.8365904,35.4003906 31.4589844,35.4003906 C31.1627589,35.4003906 30.9112966,35.4597976 30.7045898,35.5786133 C30.4978831,35.697429 30.3343105,35.8642567 30.2138672,36.0791016 L30.2138672,40 L29.2519531,40 L29.2519531,34.7167969 L30.1113281,34.7167969 Z M34.7646484,37.4560547 C34.7646484,36.6064411 34.9461245,35.9212266 35.309082,35.4003906 C35.6720396,34.8795547 36.1790332,34.6191406 36.8300781,34.6191406 C37.1653663,34.6191406 37.4599597,34.6866855 37.7138672,34.8217773 C37.9677747,34.9568692 38.1809887,35.1513659 38.3535156,35.4052734 L38.4707031,34.7167969 L39.2373047,34.7167969 L39.2373047,40.0292969 C39.2373047,40.7063836 39.0403666,41.2263979 38.6464844,41.5893555 C38.2526022,41.952313 37.684574,42.1337891 36.9423828,42.1337891 C36.6884753,42.1337891 36.4142267,42.0987959 36.1196289,42.0288086 C35.8250311,41.9588213 35.5654308,41.8636074 35.3408203,41.7431641 L35.4873047,40.9960938 C35.6728525,41.0937505 35.8966458,41.1726885 36.1586914,41.2329102 C36.420737,41.2931318 36.6787097,41.3232422 36.9326172,41.3232422 C37.4013695,41.3232422 37.7423492,41.2166352 37.9555664,41.003418 C38.1687836,40.7902008 38.2753906,40.465497 38.2753906,40.0292969 L38.2753906,39.4287109 C38.1028637,39.6500662 37.8961601,39.8177078 37.6552734,39.9316406 C37.4143868,40.0455735 37.1360693,40.1025391 36.8203125,40.1025391 C36.175778,40.1025391 35.6720396,39.8689802 35.309082,39.4018555 C34.9461245,38.9347307 34.7646484,38.3203163 34.7646484,37.5585938 L34.7646484,37.4560547 Z M35.7265625,37.5585938 C35.7265625,38.0891954 35.8356109,38.5156234 36.0537109,38.8378906 C36.271811,39.1601579 36.6087217,39.3212891 37.0644531,39.3212891 C37.3541681,39.3212891 37.5966787,39.2553718 37.7919922,39.1235352 C37.9873057,38.9916986 38.1484369,38.8053397 38.2753906,38.5644531 L38.2753906,36.1328125 C38.1516921,35.908202 37.9905609,35.7299811 37.7919922,35.5981445 C37.5934235,35.4663079 37.3541681,35.4003906 37.0742188,35.4003906 C36.6152321,35.4003906 36.27588,35.5908184 36.0561523,35.9716797 C35.8364247,36.352541 35.7265625,36.8473277 35.7265625,37.4560547 L35.7265625,37.5585938 Z" id="Tianying" fill="#191919" fill-rule="nonzero"></path>
                <path d="M2.12890625,51.7167969 L2.12890625,57.4345703 C2.12890625,57.9781928 1.98893369,58.3972967 1.70898438,58.6918945 C1.42903506,58.9864924 1.04004155,59.1337891 0.541992187,59.1337891 C0.441080225,59.1337891 0.349121509,59.1264649 0.266113281,59.1118164 C0.183105054,59.0971679 0.0944015137,59.0751955 0,59.0458984 L0.068359375,58.2890625 C0.11393252,58.3053386 0.179036035,58.3191731 0.263671875,58.3305664 C0.348307715,58.3419597 0.418293994,58.3476562 0.473632812,58.3476562 C0.685222412,58.3476562 0.853677759,58.2760424 0.979003906,58.1328125 C1.10433005,57.9895826 1.16699219,57.7568375 1.16699219,57.4345703 L1.16699219,51.7167969 L2.12890625,51.7167969 Z M2.09960938,50.3447266 L1.13769531,50.3447266 L1.13769531,49.3828125 L2.09960938,49.3828125 L2.09960938,50.3447266 Z M4.6484375,57 L3.68652344,57 L3.68652344,51.7167969 L4.6484375,51.7167969 L4.6484375,57 Z M4.6484375,50.3642578 L3.68652344,50.3642578 L3.68652344,49.3828125 L4.6484375,49.3828125 L4.6484375,50.3642578 Z M6.98730469,51.7167969 L7.05566406,52.5029297 C7.23144619,52.2229804 7.45198435,52.0056974 7.71728516,51.8510742 C7.98258596,51.696451 8.28450352,51.6191406 8.62304688,51.6191406 C9.19271118,51.6191406 9.6337875,51.7859684 9.94628906,52.1196289 C10.2587906,52.4532894 10.4150391,52.968421 10.4150391,53.6650391 L10.4150391,57 L9.453125,57 L9.453125,53.6845703 C9.453125,53.2190732 9.36116628,52.8886729 9.17724609,52.6933594 C8.9933259,52.4980459 8.71256699,52.4003906 8.33496094,52.4003906 C8.0387355,52.4003906 7.78727317,52.4597976 7.58056641,52.5786133 C7.37385964,52.697429 7.21028706,52.8642567 7.08984375,53.0791016 L7.08984375,57 L6.12792969,57 L6.12792969,51.7167969 L6.98730469,51.7167969 Z M11.640625,54.4560547 C11.640625,53.6064411 11.822101,52.9212266 12.1850586,52.4003906 C12.5480161,51.8795547 13.0550098,51.6191406 13.7060547,51.6191406 C14.0413428,51.6191406 14.3359362,51.6866855 14.5898438,51.8217773 C14.8437513,51.9568692 15.0569653,52.1513659 15.2294922,52.4052734 L15.3466797,51.7167969 L16.1132812,51.7167969 L16.1132812,57.0292969 C16.1132812,57.7063836 15.9163431,58.2263979 15.5224609,58.5893555 C15.1285788,58.952313 14.5605506,59.1337891 13.8183594,59.1337891 C13.5644519,59.1337891 13.2902033,59.0987959 12.9956055,59.0288086 C12.7010076,58.9588213 12.4414074,58.8636074 12.2167969,58.7431641 L12.3632812,57.9960938 C12.5488291,58.0937505 12.7726224,58.1726885 13.034668,58.2329102 C13.2967135,58.2931318 13.5546862,58.3232422 13.8085938,58.3232422 C14.2773461,58.3232422 14.6183258,58.2166352 14.831543,58.003418 C15.0447602,57.7902008 15.1513672,57.465497 15.1513672,57.0292969 L15.1513672,56.4287109 C14.9788403,56.6500662 14.7721366,56.8177078 14.53125,56.9316406 C14.2903634,57.0455735 14.0120458,57.1025391 13.6962891,57.1025391 C13.0517546,57.1025391 12.5480161,56.8689802 12.1850586,56.4018555 C11.822101,55.9347307 11.640625,55.3203163 11.640625,54.5585938 L11.640625,54.4560547 Z M12.6025391,54.5585938 C12.6025391,55.0891954 12.7115875,55.5156234 12.9296875,55.8378906 C13.1477875,56.1601579 13.4846982,56.3212891 13.9404297,56.3212891 C14.2301447,56.3212891 14.4726553,56.2553718 14.6679688,56.1235352 C14.8632822,55.9916986 15.0244134,55.8053397 15.1513672,55.5644531 L15.1513672,53.1328125 C15.0276687,52.908202 14.8665375,52.7299811 14.6679688,52.5981445 C14.4694,52.4663079 14.2301446,52.4003906 13.9501953,52.4003906 C13.4912086,52.4003906 13.1518566,52.5908184 12.9321289,52.9716797 C12.7124012,53.352541 12.6025391,53.8473277 12.6025391,54.4560547 L12.6025391,54.5585938 Z M18.3544922,51.7167969 L18.4228516,52.4101562 C18.5953785,52.159504 18.814289,51.9650072 19.0795898,51.8266602 C19.3448906,51.6883131 19.6533186,51.6191406 20.0048828,51.6191406 C20.3564471,51.6191406 20.6583646,51.70052 20.9106445,51.8632812 C21.1629244,52.0260425 21.3525384,52.2701807 21.4794922,52.5957031 C21.6487639,52.2929672 21.869302,52.0545256 22.1411133,51.8803711 C22.4129245,51.7062166 22.731118,51.6191406 23.0957031,51.6191406 C23.6328152,51.6191406 24.0576156,51.8038719 24.3701172,52.1733398 C24.6826188,52.5428078 24.8388672,53.0986291 24.8388672,53.8408203 L24.8388672,57 L23.8769531,57 L23.8769531,53.8310547 C23.8769531,53.3102187 23.7874358,52.9415701 23.6083984,52.7250977 C23.4293611,52.5086252 23.1624367,52.4003906 22.8076172,52.4003906 C22.4788395,52.4003906 22.2127289,52.5143218 22.0092773,52.7421875 C21.8058258,52.9700532 21.6861981,53.2581363 21.6503906,53.6064453 L21.6503906,57 L20.6835938,57 L20.6835938,53.8310547 C20.6835938,53.3362605 20.591635,52.9741222 20.4077148,52.7446289 C20.2237947,52.5151356 19.9593116,52.4003906 19.6142578,52.4003906 C19.3212876,52.4003906 19.0804046,52.4606114 18.8916016,52.5810547 C18.7027985,52.701498 18.5579432,52.8707671 18.4570312,53.0888672 L18.4570312,57 L17.4951172,57 L17.4951172,51.7167969 L18.3544922,51.7167969 Z M27.2753906,57 L26.3134766,57 L26.3134766,51.7167969 L27.2753906,51.7167969 L27.2753906,57 Z M27.2753906,50.3642578 L26.3134766,50.3642578 L26.3134766,49.3828125 L27.2753906,49.3828125 L27.2753906,50.3642578 Z M29.6142578,51.7167969 L29.6826172,52.5029297 C29.8583993,52.2229804 30.0789375,52.0056974 30.3442383,51.8510742 C30.6095391,51.696451 30.9114566,51.6191406 31.25,51.6191406 C31.8196643,51.6191406 32.2607406,51.7859684 32.5732422,52.1196289 C32.8857438,52.4532894 33.0419922,52.968421 33.0419922,53.6650391 L33.0419922,57 L32.0800781,57 L32.0800781,53.6845703 C32.0800781,53.2190732 31.9881194,52.8886729 31.8041992,52.6933594 C31.620279,52.4980459 31.3395201,52.4003906 30.9619141,52.4003906 C30.6656886,52.4003906 30.4142263,52.4597976 30.2075195,52.5786133 C30.0008128,52.697429 29.8372402,52.8642567 29.7167969,53.0791016 L29.7167969,57 L28.7548828,57 L28.7548828,51.7167969 L29.6142578,51.7167969 Z M34.2675781,54.4560547 C34.2675781,53.6064411 34.4490542,52.9212266 34.8120117,52.4003906 C35.1749693,51.8795547 35.6819629,51.6191406 36.3330078,51.6191406 C36.6682959,51.6191406 36.9628894,51.6866855 37.2167969,51.8217773 C37.4707044,51.9568692 37.6839184,52.1513659 37.8564453,52.4052734 L37.9736328,51.7167969 L38.7402344,51.7167969 L38.7402344,57.0292969 C38.7402344,57.7063836 38.5432962,58.2263979 38.1494141,58.5893555 C37.7555319,58.952313 37.1875037,59.1337891 36.4453125,59.1337891 C36.191405,59.1337891 35.9171564,59.0987959 35.6225586,59.0288086 C35.3279608,58.9588213 35.0683605,58.8636074 34.84375,58.7431641 L34.9902344,57.9960938 C35.1757822,58.0937505 35.3995755,58.1726885 35.6616211,58.2329102 C35.9236667,58.2931318 36.1816394,58.3232422 36.4355469,58.3232422 C36.9042992,58.3232422 37.2452789,58.2166352 37.4584961,58.003418 C37.6717133,57.7902008 37.7783203,57.465497 37.7783203,57.0292969 L37.7783203,56.4287109 C37.6057934,56.6500662 37.3990897,56.8177078 37.1582031,56.9316406 C36.9173165,57.0455735 36.638999,57.1025391 36.3232422,57.1025391 C35.6787077,57.1025391 35.1749693,56.8689802 34.8120117,56.4018555 C34.4490542,55.9347307 34.2675781,55.3203163 34.2675781,54.5585938 L34.2675781,54.4560547 Z M35.2294922,54.5585938 C35.2294922,55.0891954 35.3385406,55.5156234 35.5566406,55.8378906 C35.7747407,56.1601579 36.1116514,56.3212891 36.5673828,56.3212891 C36.8570978,56.3212891 37.0996084,56.2553718 37.2949219,56.1235352 C37.4902354,55.9916986 37.6513666,55.8053397 37.7783203,55.5644531 L37.7783203,53.1328125 C37.6546218,52.908202 37.4934906,52.7299811 37.2949219,52.5981445 C37.0963532,52.4663079 36.8570978,52.4003906 36.5771484,52.4003906 C36.1181618,52.4003906 35.7788097,52.5908184 35.559082,52.9716797 C35.3393544,53.352541 35.2294922,53.8473277 35.2294922,54.4560547 L35.2294922,54.5585938 Z" id="jingming" fill="#191919" fill-rule="nonzero"></path>
                <path d="M10.9414063,70.2080078 C10.9414063,69.8857406 10.8258475,69.615561 10.5947266,69.3974609 C10.3636056,69.1793609 9.95670864,68.9938159 9.37402344,68.8408203 C8.65136357,68.661783 8.08740437,68.3981137 7.68212891,68.0498047 C7.27685344,67.7014957 7.07421875,67.2636745 7.07421875,66.7363281 C7.07421875,66.1796847 7.29231553,65.7158222 7.72851563,65.3447266 C8.16471572,64.973631 8.73111631,64.7880859 9.42773438,64.7880859 C10.176436,64.7880859 10.772947,65.0004862 11.2172852,65.425293 C11.6616233,65.8500998 11.8772787,66.3457003 11.8642578,66.9121094 L11.8496094,66.9414062 L10.9316406,66.9414062 C10.9316406,66.5377584 10.7908543,66.2041029 10.5092773,65.9404297 C10.2277004,65.6767565 9.8671897,65.5449219 9.42773438,65.5449219 C8.97851338,65.5449219 8.63427854,65.6539703 8.39501953,65.8720703 C8.15576052,66.0901704 8.03613281,66.3733707 8.03613281,66.7216797 C8.03613281,67.030926 8.16715364,67.2888987 8.42919922,67.4956055 C8.6912448,67.7023122 9.11685903,67.8837883 9.70605469,68.0400391 C10.4222041,68.2255869 10.967446,68.4990216 11.3417969,68.8603516 C11.7161477,69.2216815 11.9033203,69.6676406 11.9033203,70.1982422 C11.9033203,70.7711617 11.6778994,71.2317691 11.2270508,71.5800781 C10.7762022,71.9283872 10.1878292,72.1025391 9.46191406,72.1025391 C8.77506167,72.1025391 8.16878518,71.9104837 7.64306641,71.5263672 C7.11734763,71.1422507 6.86263013,70.6279329 6.87890625,69.9833984 L6.88867188,69.9541016 L7.80664063,69.9541016 C7.80664063,70.4000673 7.97590977,70.7443022 8.31445313,70.9868164 C8.65299648,71.2293306 9.03547964,71.3505859 9.46191406,71.3505859 C9.91764551,71.3505859 10.2781562,71.2480479 10.543457,71.0429688 C10.8087578,70.8378896 10.9414063,70.5595721 10.9414063,70.2080078 Z M14.1738281,72 L13.2119141,72 L13.2119141,66.7167969 L14.1738281,66.7167969 L14.1738281,72 Z M14.1738281,65.3642578 L13.2119141,65.3642578 L13.2119141,64.3828125 L14.1738281,64.3828125 L14.1738281,65.3642578 Z M20.1650391,69.5585938 C20.1650391,70.3203163 19.9819354,70.9347307 19.6157227,71.4018555 C19.2495099,71.8689802 18.7457714,72.1025391 18.1044922,72.1025391 C17.7529279,72.1025391 17.4477552,72.0333666 17.1889648,71.8950195 C16.9301745,71.7566725 16.7161467,71.5524102 16.546875,71.2822266 L16.390625,72 L15.6533203,72 L15.6533203,64.3828125 L16.6152344,64.3828125 L16.6152344,67.3417969 C16.7812508,67.1074207 16.9871407,66.928386 17.2329102,66.8046875 C17.4786796,66.680989 17.7659489,66.6191406 18.0947266,66.6191406 C18.7457715,66.6191406 19.2535789,66.8795547 19.6181641,67.4003906 C19.9827492,67.9212266 20.1650391,68.6064411 20.1650391,69.4560547 L20.1650391,69.5585938 Z M19.203125,69.4560547 C19.203125,68.8505829 19.0916352,68.35661 18.8686523,67.9741211 C18.6456695,67.5916322 18.3063174,67.4003906 17.8505859,67.4003906 C17.5543605,67.4003906 17.3045258,67.4728183 17.1010742,67.6176758 C16.8976227,67.7625333 16.7356777,67.95703 16.6152344,68.2011719 L16.6152344,70.4912109 C16.7389329,70.7516289 16.9008779,70.9550774 17.1010742,71.1015625 C17.3012705,71.2480476 17.5543604,71.3212891 17.8603516,71.3212891 C18.3128278,71.3212891 18.6497385,71.1601579 18.8710938,70.8378906 C19.092449,70.5156234 19.203125,70.0891954 19.203125,69.5585938 L19.203125,69.4560547 Z M24.5839844,72 C24.5514321,71.840494 24.5262045,71.6997076 24.5083008,71.5776367 C24.490397,71.4555658 24.4798177,71.3326829 24.4765625,71.2089844 C24.2975251,71.4628919 24.0639663,71.6752921 23.7758789,71.8461914 C23.4877915,72.0170907 23.177736,72.1025391 22.8457031,72.1025391 C22.2955702,72.1025391 21.8764663,71.9617527 21.5883789,71.6801758 C21.3002915,71.3985989 21.15625,71.0104191 21.15625,70.515625 C21.15625,70.0110652 21.3605123,69.6163751 21.769043,69.331543 C22.1775737,69.0467108 22.7317673,68.9042969 23.4316406,68.9042969 L24.4765625,68.9042969 L24.4765625,68.3818359 C24.4765625,68.0725896 24.3821624,67.8276376 24.1933594,67.6469727 C24.0045563,67.4663077 23.7376319,67.3759766 23.3925781,67.3759766 C23.0800766,67.3759766 22.8278004,67.4541008 22.6357422,67.6103516 C22.4436839,67.7666023 22.3476563,67.953775 22.3476563,68.171875 L21.4345703,68.1816406 L21.4248047,68.1523438 C21.4020181,67.7682272 21.5818666,67.4166683 21.9643555,67.0976562 C22.3468444,66.7786442 22.8408173,66.6191406 23.4462891,66.6191406 C24.0452504,66.6191406 24.5270164,66.7713201 24.8916016,67.0756836 C25.2561867,67.3800471 25.4384766,67.818682 25.4384766,68.3916016 L25.4384766,70.9355469 C25.4384766,71.1243499 25.4482421,71.3066397 25.4677734,71.4824219 C25.4873048,71.658204 25.5231117,71.8307283 25.5751953,72 L24.5839844,72 Z M22.9873047,71.296875 C23.3356137,71.296875 23.6497382,71.2073577 23.9296875,71.0283203 C24.2096368,70.849283 24.3919267,70.6442069 24.4765625,70.4130859 L24.4765625,69.5537109 L23.3974609,69.5537109 C23.0100892,69.5537109 22.7000337,69.6513662 22.4672852,69.8466797 C22.2345366,70.0419932 22.1181641,70.2714831 22.1181641,70.5351562 C22.1181641,70.7695324 22.1914055,70.9550774 22.3378906,71.0917969 C22.4843757,71.2285163 22.7008449,71.296875 22.9873047,71.296875 Z M27.875,72 L26.9130859,72 L26.9130859,66.7167969 L27.875,66.7167969 L27.875,72 Z M27.875,65.3642578 L26.9130859,65.3642578 L26.9130859,64.3828125 L27.875,64.3828125 L27.875,65.3642578 Z" id="Sibai" fill="#191919" fill-rule="nonzero"></path>
            </g>
        </g>
    </g>
</svg>