<?xml version="1.0" encoding="UTF-8"?>
<svg width="360px" height="122px" viewBox="0 0 360 122" version="1.1" xmlns="http://www.w3.org/2000/svg" xmlns:xlink="http://www.w3.org/1999/xlink">
    <!-- Generator: Sketch 53.2 (72643) - https://sketchapp.com -->
    <title>acupoint face-2_F</title>
    <desc>Created with Sketch.</desc>
    <g id="acupoint-face-2_F" stroke="none" stroke-width="1" fill="none" fill-rule="evenodd">
        <g id="Group-4">
            <g id="Group-5" transform="translate(55.000000, 12.000000)">
                <path d="M40.6201172,47.2646484 L38.2763672,47.2646484 L38.2763672,53.6171875 L37.3144531,53.6171875 L37.3144531,47.2646484 L35,47.2646484 L35,46.5078125 L40.6201172,46.5078125 L40.6201172,47.2646484 Z M42.5390625,53.6171875 L41.5771484,53.6171875 L41.5771484,48.3339844 L42.5390625,48.3339844 L42.5390625,53.6171875 Z M42.5390625,46.9814453 L41.5771484,46.9814453 L41.5771484,46 L42.5390625,46 L42.5390625,46.9814453 Z M47.265625,53.6171875 C47.2330728,53.4576815 47.2078451,53.3168951 47.1899414,53.1948242 C47.1720377,53.0727533 47.1614583,52.9498704 47.1582031,52.8261719 C46.9791658,53.0800794 46.7456069,53.2924796 46.4575195,53.4633789 C46.1694322,53.6342782 45.8593767,53.7197266 45.5273438,53.7197266 C44.9772108,53.7197266 44.5581069,53.5789402 44.2700195,53.2973633 C43.9819322,53.0157864 43.8378906,52.6276066 43.8378906,52.1328125 C43.8378906,51.6282527 44.0421529,51.2335626 44.4506836,50.9487305 C44.8592143,50.6638983 45.413408,50.5214844 46.1132812,50.5214844 L47.1582031,50.5214844 L47.1582031,49.9990234 C47.1582031,49.6897771 47.063803,49.4448251 46.875,49.2641602 C46.686197,49.0834952 46.4192726,48.9931641 46.0742188,48.9931641 C45.7617172,48.9931641 45.5094411,49.0712883 45.3173828,49.2275391 C45.1253246,49.3837898 45.0292969,49.5709625 45.0292969,49.7890625 L44.1162109,49.7988281 L44.1064453,49.7695312 C44.0836587,49.3854147 44.2635072,49.0338558 44.6459961,48.7148438 C45.028485,48.3958317 45.5224579,48.2363281 46.1279297,48.2363281 C46.726891,48.2363281 47.208657,48.3885076 47.5732422,48.6928711 C47.9378273,48.9972346 48.1201172,49.4358695 48.1201172,50.0087891 L48.1201172,52.5527344 C48.1201172,52.7415374 48.1298827,52.9238272 48.1494141,53.0996094 C48.1689454,53.2753915 48.2047523,53.4479158 48.2568359,53.6171875 L47.265625,53.6171875 Z M45.6689453,52.9140625 C46.0172543,52.9140625 46.3313788,52.8245452 46.6113281,52.6455078 C46.8912774,52.4664705 47.0735673,52.2613944 47.1582031,52.0302734 L47.1582031,51.1708984 L46.0791016,51.1708984 C45.6917298,51.1708984 45.3816743,51.2685537 45.1489258,51.4638672 C44.9161772,51.6591807 44.7998047,51.8886706 44.7998047,52.1523438 C44.7998047,52.3867199 44.8730461,52.5722649 45.0195312,52.7089844 C45.1660164,52.8457038 45.3824855,52.9140625 45.6689453,52.9140625 Z M50.3759766,48.3339844 L50.4443359,49.1201172 C50.6201181,48.8401679 50.8406562,48.6228849 51.105957,48.4682617 C51.3712578,48.3136385 51.6731754,48.2363281 52.0117188,48.2363281 C52.5813831,48.2363281 53.0224594,48.4031559 53.3349609,48.7368164 C53.6474625,49.0704769 53.8037109,49.5856085 53.8037109,50.2822266 L53.8037109,53.6171875 L52.8417969,53.6171875 L52.8417969,50.3017578 C52.8417969,49.8362607 52.7498382,49.5058604 52.565918,49.3105469 C52.3819978,49.1152334 52.1012389,49.0175781 51.7236328,49.0175781 C51.4274074,49.0175781 51.175945,49.0769851 50.9692383,49.1958008 C50.7625315,49.3146165 50.5989589,49.4814442 50.4785156,49.6962891 L50.4785156,53.6171875 L49.5166016,53.6171875 L49.5166016,48.3339844 L50.3759766,48.3339844 Z M56.8164062,51.6591797 L56.9873047,52.3232422 L57.0166016,52.3232422 L58.3154297,48.3339844 L59.3847656,48.3339844 L57.1630859,54.4277344 C57.0296217,54.7825539 56.8383802,55.0917956 56.5893555,55.3554688 C56.3403308,55.6191419 56.0042339,55.7509766 55.5810547,55.7509766 C55.5029293,55.7509766 55.4036464,55.7420248 55.2832031,55.7241211 C55.1627598,55.7062174 55.0699873,55.6891277 55.0048828,55.6728516 L55.1025391,54.9160156 C55.0830077,54.9127604 55.1407871,54.9160156 55.2758789,54.9257812 C55.4109707,54.9355469 55.4964191,54.9404297 55.5322266,54.9404297 C55.7373057,54.9404297 55.9049473,54.8492848 56.0351562,54.6669922 C56.1653652,54.4846996 56.2744136,54.2828787 56.3623047,54.0615234 L56.5917969,53.5097656 L54.6289062,48.3339844 L55.703125,48.3339844 L56.8164062,51.6591797 Z M63.4765625,53.6171875 C63.4440103,53.4576815 63.4187826,53.3168951 63.4008789,53.1948242 C63.3829752,53.0727533 63.3723958,52.9498704 63.3691406,52.8261719 C63.1901033,53.0800794 62.9565444,53.2924796 62.668457,53.4633789 C62.3803697,53.6342782 62.0703142,53.7197266 61.7382812,53.7197266 C61.1881483,53.7197266 60.7690444,53.5789402 60.480957,53.2973633 C60.1928697,53.0157864 60.0488281,52.6276066 60.0488281,52.1328125 C60.0488281,51.6282527 60.2530904,51.2335626 60.6616211,50.9487305 C61.0701518,50.6638983 61.6243455,50.5214844 62.3242188,50.5214844 L63.3691406,50.5214844 L63.3691406,49.9990234 C63.3691406,49.6897771 63.2747405,49.4448251 63.0859375,49.2641602 C62.8971345,49.0834952 62.6302101,48.9931641 62.2851562,48.9931641 C61.9726547,48.9931641 61.7203786,49.0712883 61.5283203,49.2275391 C61.3362621,49.3837898 61.2402344,49.5709625 61.2402344,49.7890625 L60.3271484,49.7988281 L60.3173828,49.7695312 C60.2945962,49.3854147 60.4744447,49.0338558 60.8569336,48.7148438 C61.2394225,48.3958317 61.7333954,48.2363281 62.3388672,48.2363281 C62.9378285,48.2363281 63.4195945,48.3885076 63.7841797,48.6928711 C64.1487648,48.9972346 64.3310547,49.4358695 64.3310547,50.0087891 L64.3310547,52.5527344 C64.3310547,52.7415374 64.3408202,52.9238272 64.3603516,53.0996094 C64.3798829,53.2753915 64.4156898,53.4479158 64.4677734,53.6171875 L63.4765625,53.6171875 Z M61.8798828,52.9140625 C62.2281918,52.9140625 62.5423163,52.8245452 62.8222656,52.6455078 C63.1022149,52.4664705 63.2845048,52.2613944 63.3691406,52.0302734 L63.3691406,51.1708984 L62.2900391,51.1708984 C61.9026673,51.1708984 61.5926118,51.2685537 61.3598633,51.4638672 C61.1271147,51.6591807 61.0107422,51.8886706 61.0107422,52.1523438 C61.0107422,52.3867199 61.0839836,52.5722649 61.2304688,52.7089844 C61.3769539,52.8457038 61.593423,52.9140625 61.8798828,52.9140625 Z M66.5869141,48.3339844 L66.6552734,49.1201172 C66.8310556,48.8401679 67.0515937,48.6228849 67.3168945,48.4682617 C67.5821953,48.3136385 67.8841129,48.2363281 68.2226562,48.2363281 C68.7923206,48.2363281 69.2333969,48.4031559 69.5458984,48.7368164 C69.8584,49.0704769 70.0146484,49.5856085 70.0146484,50.2822266 L70.0146484,53.6171875 L69.0527344,53.6171875 L69.0527344,50.3017578 C69.0527344,49.8362607 68.9607757,49.5058604 68.7768555,49.3105469 C68.5929353,49.1152334 68.3121764,49.0175781 67.9345703,49.0175781 C67.6383449,49.0175781 67.3868825,49.0769851 67.1801758,49.1958008 C66.973469,49.3146165 66.8098964,49.4814442 66.6894531,49.6962891 L66.6894531,53.6171875 L65.7275391,53.6171875 L65.7275391,48.3339844 L66.5869141,48.3339844 Z M71.2402344,51.0732422 C71.2402344,50.2236286 71.4217104,49.5384141 71.784668,49.0175781 C72.1476255,48.4967422 72.6546191,48.2363281 73.3056641,48.2363281 C73.6409522,48.2363281 73.9355456,48.303873 74.1894531,48.4389648 C74.4433606,48.5740567 74.6565747,48.7685534 74.8291016,49.0224609 L74.9462891,48.3339844 L75.7128906,48.3339844 L75.7128906,53.6464844 C75.7128906,54.3235711 75.5159525,54.8435854 75.1220703,55.206543 C74.7281881,55.5695005 74.16016,55.7509766 73.4179688,55.7509766 C73.1640612,55.7509766 72.8898127,55.7159834 72.5952148,55.6459961 C72.300617,55.5760088 72.0410167,55.4807949 71.8164062,55.3603516 L71.9628906,54.6132812 C72.1484384,54.710938 72.3722318,54.789876 72.6342773,54.8500977 C72.8963229,54.9103193 73.1542956,54.9404297 73.4082031,54.9404297 C73.8769555,54.9404297 74.2179351,54.8338227 74.4311523,54.6206055 C74.6443696,54.4073883 74.7509766,54.0826845 74.7509766,53.6464844 L74.7509766,53.0458984 C74.5784497,53.2672537 74.371746,53.4348953 74.1308594,53.5488281 C73.8899728,53.662761 73.6116552,53.7197266 73.2958984,53.7197266 C72.651364,53.7197266 72.1476255,53.4861677 71.784668,53.019043 C71.4217104,52.5519182 71.2402344,51.9375038 71.2402344,51.1757812 L71.2402344,51.0732422 Z M72.2021484,51.1757812 C72.2021484,51.7063829 72.3111968,52.1328109 72.5292969,52.4550781 C72.7473969,52.7773454 73.0843076,52.9384766 73.5400391,52.9384766 C73.8297541,52.9384766 74.0722646,52.8725593 74.2675781,52.7407227 C74.4628916,52.6088861 74.6240228,52.4225272 74.7509766,52.1816406 L74.7509766,49.75 C74.627278,49.5253895 74.4661468,49.3471686 74.2675781,49.215332 C74.0690094,49.0834954 73.829754,49.0175781 73.5498047,49.0175781 C73.090818,49.0175781 72.7514659,49.2080059 72.5317383,49.5888672 C72.3120106,49.9697285 72.2021484,50.4645152 72.2021484,51.0732422 L72.2021484,51.1757812 Z" id="Tianyang" fill="#191919" fill-rule="nonzero"></path>
                <g id="Group-3" transform="translate(52.819336, 6.617188)">
                    <g id="资源-112" transform="translate(48.000000, 0.000000)">
                        <path d="M8.25,0.19 C3.05366912,16.6427658 4.06035066,34.4286587 11.08,50.19" id="Path" stroke="#000000"></path>
                        <path d="M25.09,0.19 C25.09,0.19 21.59,8.69 23.76,14.69 C23.76,14.69 2.09,48.52 16.09,90.36" id="Path" stroke="#000000"></path>
                        <path d="M15.21,87.6 C15.21,87.6 16.08,90.36 12.75,88.69 C9.42,87.02 10.25,81 8,77.69 C1.32,67.62 3.25,56.86 2.59,55.19 C1.93,53.52 0.09,45.86 0.59,43.69 C1.88,38.08 6.26,42.19 6.26,42.19" id="Path" stroke="#000000"></path>
                        <path d="M10.42,58.52 C10.42,58.52 7.87,45.52 5,45.27 C2.13,45.02 3.53,51 5,52.86 C6.47,54.72 3.64,61.66 7.93,67.69" id="Path" stroke="#000000"></path>
                        <path d="M8.52,55.48 C8.52,55.48 5.89,56.36 7.91,61.69 C9.93,67.02 8.64,67.88 9.59,71.19" id="Path" stroke="#000000"></path>
                        <path d="M53.56,50.44 C53.7889002,52.4369478 53.7417913,54.4559016 53.42,56.44" id="Path" stroke="#000000"></path>
                        <path d="M51.14,41 C51.9623352,43.072661 52.6112291,45.2099971 53.08,47.39" id="Path" stroke="#000000"></path>
                        <path d="M26.5,32.69 C33.02,27.51 45.13,30.59 49.32,37.26" id="Path" stroke="#000000"></path>
                        <path d="M25.09,44.84 C28.1587665,42.5303055 31.9449527,41.3792199 35.78,41.59 C42,42 44.65,47.9 44.65,47.9 C44.65,47.9 37.84,49.9 33.59,48.34 C29.34,46.78 25.09,44.84 25.09,44.84 Z" id="Path" stroke="#000000"></path>
                        <path d="M25.34,41.55 C25.34,41.55 30.65,39 36,39.9 C41.35,40.8 44.31,43.4 45.63,45.24" id="Path" stroke="#000000"></path>
                        <path d="M33.84,47.46 C33.84,47.46 31.84,43.99 34.34,42.46 C36.84,40.93 38.59,41.98 39.4,43.4 C40.21,44.82 39.4,48.4 37.65,48.63 C36.2934578,48.6174285 34.9697961,48.2109497 33.84,47.46 L33.84,47.46 Z" id="Path" stroke="#000000" fill="#000000"></path>
                        <circle id="Oval" fill="#FFFFFF" cx="35.89" cy="44.25" r="1.03"></circle>
                        <path d="M34.87,52.77 C34.87,52.77 40.09,54.77 44.65,51.6" id="Path" stroke="#000000"></path>
                        <path d="M50.15,69.21 C50.15,69.21 45.77,71 45.59,75.65 C45.41,80.3 49.34,83.96 51.28,83.65 C53.22,83.34 52.53,82.78 52.53,82.78 C52.53,82.78 49.84,78.09 51.34,79.22 C52.84,80.35 54,83.75 58.4,83.67 C62.8,83.59 64.46,79.21 65.21,79.34 C65.96,79.47 63.84,82.28 64.46,83.09 C65.08,83.9 66.96,83.65 68.15,82.22 C69.34,80.79 74.21,73.9 66,70" id="Path" stroke="#000000"></path>
                        <path d="M63,49.25 C62.7213037,51.3397308 62.7516285,53.4590985 63.09,55.54" id="Path" stroke="#000000"></path>
                        <path d="M64.5,42.46 C64.12,43.66 63.79,44.87 63.5,46.1" id="Path" stroke="#000000"></path>
                        <path d="M90,31.75 C83.8,26.75 72.19,29.5 67.74,35.49" id="Path" stroke="#000000"></path>
                        <path d="M92.83,44.84 C89.7612335,42.5303055 85.9750473,41.3792199 82.14,41.59 C75.89,42.03 73.27,47.9 73.27,47.9 C73.27,47.9 80.08,49.9 84.33,48.34 C88.58,46.78 92.83,44.84 92.83,44.84 Z" id="Path" stroke="#000000"></path>
                        <path d="M92.58,41.55 C92.58,41.55 87.27,39 82,39.9 C76.73,40.8 73.69,43.4 72.38,45.24" id="Path" stroke="#000000"></path>
                        <path d="M84.08,47.46 C84.08,47.46 86.08,43.99 83.58,42.46 C81.08,40.93 79.33,41.98 78.52,43.4 C77.71,44.82 78.52,48.4 80.27,48.63 C81.6265422,48.6174285 82.9502039,48.2109497 84.08,47.46 Z" id="Path" stroke="#000000" fill="#000000"></path>
                        <circle id="Oval" fill="#FFFFFF" cx="82.02" cy="44.25" r="1.03"></circle>
                        <path d="M83,52.77 C83,52.77 77.78,54.77 73.22,51.6" id="Path" stroke="#000000"></path>
                        <path d="M108.41,0.4 C113.606331,16.8527658 112.599649,34.6386587 105.58,50.4" id="Path" stroke="#000000"></path>
                        <path d="M91.58,0.4 C91.58,0.4 95.08,8.9 92.91,14.9 C92.91,14.9 114.58,48.73 100.58,90.57" id="Path" stroke="#000000"></path>
                        <path d="M101.45,87.81 C101.45,87.81 100.58,90.57 103.91,88.9 C107.24,87.23 106.41,81.23 108.63,77.9 C115.34,67.83 113.41,57.07 114.08,55.4 C114.75,53.73 116.58,46.07 116.08,43.9 C114.79,38.29 110.41,42.4 110.41,42.4" id="Path" stroke="#000000"></path>
                        <path d="M106.25,58.73 C106.25,58.73 108.8,45.73 111.69,45.48 C114.58,45.23 113.13,51.23 111.69,53.06 C110.25,54.89 113.05,61.86 108.76,67.89" id="Path" stroke="#000000"></path>
                        <path d="M108.14,55.69 C108.14,55.69 110.77,56.57 108.75,61.9 C106.73,67.23 108.02,68.09 107.07,71.4" id="Path" stroke="#000000"></path>
                        <path d="M71,36.11 C71,36.11 80.92,31.22 89.17,34" id="Path" stroke="#000000" stroke-dasharray="0"></path>
                        <path d="M45.59,36.69 C45.59,36.69 38.88,30.93 26.51,34.94" id="Path" stroke="#000000" stroke-dasharray="0"></path>
                    </g>
                    <circle id="Oval" fill="#FF3232" fill-rule="nonzero" opacity="0.863606771" cx="94" cy="33" r="2"></circle>
                    <circle id="Oval" fill="#FF3232" fill-rule="nonzero" opacity="0.863606771" cx="84" cy="31" r="2"></circle>
                    <circle id="Oval" fill="#FF3232" fill-rule="nonzero" opacity="0.863606771" cx="131" cy="52" r="2"></circle>
                    <circle id="Oval" fill="#FF3232" fill-rule="nonzero" opacity="0.863606771" cx="118" cy="35" r="2"></circle>
                    <circle id="Oval" fill="#FF3232" fill-rule="nonzero" opacity="0.863606771" cx="143" cy="44" r="2"></circle>
                    <circle id="Oval" fill="#FF3232" fill-rule="nonzero" opacity="0.863606771" cx="149" cy="39" r="2"></circle>
                    <circle id="Oval" fill="#FF3232" fill-rule="nonzero" opacity="0.863606771" cx="141" cy="35" r="2"></circle>
                    <circle id="Oval" fill="#FF3232" fill-rule="nonzero" opacity="0.863606771" cx="129" cy="32" r="2"></circle>
                    <circle id="Oval" fill="#FF3232" fill-rule="nonzero" opacity="0.863606771" cx="83" cy="51" r="2"></circle>
                    <circle id="Oval" fill="#FF3232" fill-rule="nonzero" opacity="0.863606771" cx="70" cy="44" r="2"></circle>
                    <circle id="Oval" fill="#FF3232" fill-rule="nonzero" opacity="0.863606771" cx="65" cy="38" r="2"></circle>
                    <circle id="Oval" fill="#FF3232" fill-rule="nonzero" opacity="0.863606771" cx="72" cy="33" r="2"></circle>
                    <polygon id="Path-9" fill="#F99292" fill-rule="nonzero" points="17 29.5 17 28.5 67.449093 28.5 70.5750553 30.5839749 70.0203551 31.4160251 67.1463174 29.5"></polygon>
                    <polygon id="Path-9" fill="#F99292" fill-rule="nonzero" points="23 12.5 23 11.5 75.3132461 11.5 83.4499071 28.2818632 82.5500929 28.7181368 74.6867539 12.5"></polygon>
                    <polygon id="Path-9" fill="#F99292" fill-rule="nonzero" points="79.6761983 0.5 36 0.5 36 -0.5 80.3238017 -0.5 93.4562547 28.795472 92.5437453 29.204528"></polygon>
                    <polygon id="Path-9" fill="#F99292" fill-rule="nonzero" points="61.0257168 38.5804499 61.5696936 39.4195501 50.6478921 46.5 27 46.5 27 45.5 50.3521079 45.5"></polygon>
                    <polygon id="Path-10" fill="#F99292" fill-rule="nonzero" points="79.6464466 54.6464466 80.3535534 55.3535534 63.2051492 72.5019576 9.99528323 71.9999778 10.0047168 71.0000222 62.7948508 71.4980424"></polygon>
                    <polygon id="Path-11" fill="#F99292" fill-rule="nonzero" points="67.5657917 45.611943 68.1963843 46.388057 52.0586083 59.5 7.81597009e-14 59.5 7.81597009e-14 58.5 51.7035677 58.5"></polygon>
                </g>
                <path d="M52.7226562,5.34179688 L52.7324219,5.37109375 C52.7454428,6.03841479 52.5110701,6.59667744 52.0292969,7.04589844 C51.5475236,7.49511943 50.9111368,7.71972656 50.1201172,7.71972656 C49.3160767,7.71972656 48.6609726,7.43489868 48.1547852,6.86523438 C47.6485977,6.29557007 47.3955078,5.57292104 47.3955078,4.69726562 L47.3955078,3.43261719 C47.3955078,2.55696177 47.6485977,1.83349895 48.1547852,1.26220703 C48.6609726,0.690915112 49.3160767,0.405273438 50.1201172,0.405273438 C50.9241577,0.405273438 51.5637997,0.619301245 52.0390625,1.04736328 C52.5143253,1.47542532 52.7454428,2.0426397 52.7324219,2.74902344 L52.7226562,2.77832031 L51.7998047,2.77832031 C51.7998047,2.28027095 51.6533218,1.88639468 51.3603516,1.59667969 C51.0673813,1.3069647 50.653974,1.16210938 50.1201172,1.16210938 C49.5830051,1.16210938 49.1549495,1.37857856 48.8359375,1.81152344 C48.5169255,2.24446831 48.3574219,2.78157231 48.3574219,3.42285156 L48.3574219,4.69726562 C48.3574219,5.34505532 48.5169255,5.8854145 48.8359375,6.31835938 C49.1549495,6.75130425 49.5830051,6.96777344 50.1201172,6.96777344 C50.653974,6.96777344 51.0673813,6.82373191 51.3603516,6.53564453 C51.6533218,6.24755715 51.7998047,5.84961191 51.7998047,5.34179688 L52.7226562,5.34179688 Z M57.2050781,6.8359375 C57.0390617,7.11914204 56.8258477,7.33723882 56.5654297,7.49023438 C56.3050117,7.64322993 56.003908,7.71972656 55.6621094,7.71972656 C55.0859346,7.71972656 54.6367204,7.53580913 54.3144531,7.16796875 C53.9921859,6.80012837 53.8310547,6.22721743 53.8310547,5.44921875 L53.8310547,2.33398438 L54.7929688,2.33398438 L54.7929688,5.45898438 C54.7929688,6.02213823 54.8759757,6.40950415 55.0419922,6.62109375 C55.2080086,6.83268335 55.4667951,6.93847656 55.8183594,6.93847656 C56.160158,6.93847656 56.4425445,6.86930408 56.6655273,6.73095703 C56.8885102,6.59260999 57.0569656,6.39648564 57.1708984,6.14257812 L57.1708984,2.33398438 L58.1328125,2.33398438 L58.1328125,7.6171875 L57.2685547,7.6171875 L57.2050781,6.8359375 Z M62.78125,7.6171875 C62.7486978,7.45768149 62.7234701,7.31689514 62.7055664,7.19482422 C62.6876627,7.0727533 62.6770833,6.94987041 62.6738281,6.82617188 C62.4947908,7.08007939 62.2612319,7.29247961 61.9731445,7.46337891 C61.6850572,7.6342782 61.3750017,7.71972656 61.0429688,7.71972656 C60.4928358,7.71972656 60.0737319,7.57894021 59.7856445,7.29736328 C59.4975572,7.01578635 59.3535156,6.62760664 59.3535156,6.1328125 C59.3535156,5.62825269 59.5577779,5.23356262 59.9663086,4.94873047 C60.3748393,4.66389832 60.929033,4.52148438 61.6289062,4.52148438 L62.6738281,4.52148438 L62.6738281,3.99902344 C62.6738281,3.6897771 62.579428,3.44482512 62.390625,3.26416016 C62.201822,3.08349519 61.9348976,2.99316406 61.5898438,2.99316406 C61.2773422,2.99316406 61.0250661,3.07128828 60.8330078,3.22753906 C60.6409496,3.38378984 60.5449219,3.57096245 60.5449219,3.7890625 L59.6318359,3.79882812 L59.6220703,3.76953125 C59.5992837,3.38541475 59.7791322,3.03385576 60.1616211,2.71484375 C60.54411,2.39583174 61.0380829,2.23632812 61.6435547,2.23632812 C62.242516,2.23632812 62.724282,2.38850759 63.0888672,2.69287109 C63.4534523,2.99723459 63.6357422,3.43586953 63.6357422,4.00878906 L63.6357422,6.55273438 C63.6357422,6.7415374 63.6455077,6.92382725 63.6650391,7.09960938 C63.6845704,7.2753915 63.7203773,7.44791582 63.7724609,7.6171875 L62.78125,7.6171875 Z M61.1845703,6.9140625 C61.5328793,6.9140625 61.8470038,6.82454517 62.1269531,6.64550781 C62.4069024,6.46647046 62.5891923,6.26139438 62.6738281,6.03027344 L62.6738281,5.17089844 L61.5947266,5.17089844 C61.2073548,5.17089844 60.8972993,5.26855371 60.6645508,5.46386719 C60.4318022,5.65918066 60.3154297,5.88867056 60.3154297,6.15234375 C60.3154297,6.38671992 60.3886711,6.57226494 60.5351562,6.70898438 C60.6816414,6.84570381 60.8981105,6.9140625 61.1845703,6.9140625 Z M65.8916016,2.33398438 L65.9599609,3.12011719 C66.1357431,2.84016787 66.3562812,2.62288489 66.621582,2.46826172 C66.8868828,2.31363855 67.1888004,2.23632812 67.5273438,2.23632812 C68.0970081,2.23632812 68.5380844,2.40315588 68.8505859,2.73681641 C69.1630875,3.07047693 69.3193359,3.5856085 69.3193359,4.28222656 L69.3193359,7.6171875 L68.3574219,7.6171875 L68.3574219,4.30175781 C68.3574219,3.83626069 68.2654632,3.50586035 68.081543,3.31054688 C67.8976228,3.1152334 67.6168639,3.01757812 67.2392578,3.01757812 C66.9430324,3.01757812 66.69157,3.07698508 66.4848633,3.19580078 C66.2781565,3.31461648 66.1145839,3.48144424 65.9941406,3.69628906 L65.9941406,7.6171875 L65.0322266,7.6171875 L65.0322266,2.33398438 L65.8916016,2.33398438 Z M71.6240234,6.86523438 L74.6757812,6.86523438 L74.6757812,7.6171875 L70.4765625,7.6171875 L70.4765625,6.94335938 L73.3330078,3.09570312 L70.5107422,3.09570312 L70.5107422,2.33398438 L74.5097656,2.33398438 L74.5097656,2.98828125 L71.6240234,6.86523438 Z M76.7070312,3.04199219 C76.8893238,2.78808467 77.1131172,2.59033274 77.378418,2.44873047 C77.6437188,2.3071282 77.9374984,2.23632812 78.2597656,2.23632812 C78.8229195,2.23632812 79.2615544,2.40559727 79.5756836,2.74414062 C79.8898128,3.08268398 80.046875,3.60351211 80.046875,4.30664062 L80.046875,7.6171875 L79.0849609,7.6171875 L79.0849609,4.296875 C79.0849609,3.8606749 78.9913746,3.5384125 78.8041992,3.33007812 C78.6170238,3.12174375 78.3378925,3.01757812 77.9667969,3.01757812 C77.6803371,3.01757812 77.4313162,3.07372991 77.2197266,3.18603516 C77.008137,3.29834041 76.8372402,3.45540264 76.7070312,3.65722656 L76.7070312,7.6171875 L75.7451172,7.6171875 L75.7451172,0 L76.7070312,0 L76.7070312,3.04199219 Z M84.7832031,6.8359375 C84.6171867,7.11914204 84.4039727,7.33723882 84.1435547,7.49023438 C83.8831367,7.64322993 83.582033,7.71972656 83.2402344,7.71972656 C82.6640596,7.71972656 82.2148454,7.53580913 81.8925781,7.16796875 C81.5703109,6.80012837 81.4091797,6.22721743 81.4091797,5.44921875 L81.4091797,2.33398438 L82.3710938,2.33398438 L82.3710938,5.45898438 C82.3710938,6.02213823 82.4541007,6.40950415 82.6201172,6.62109375 C82.7861336,6.83268335 83.0449201,6.93847656 83.3964844,6.93847656 C83.738283,6.93847656 84.0206695,6.86930408 84.2436523,6.73095703 C84.4666352,6.59260999 84.6350906,6.39648564 84.7490234,6.14257812 L84.7490234,2.33398438 L85.7109375,2.33398438 L85.7109375,7.6171875 L84.8466797,7.6171875 L84.7832031,6.8359375 Z" id="Cuanzhu" fill="#191919" fill-rule="nonzero"></path>
                <path d="M45.96875,18.1210938 L47.8242188,14.5078125 L48.9228516,14.5078125 L46.4277344,19.1171875 L46.4277344,21.6171875 L45.4707031,21.6171875 L45.4707031,19.0439453 L43.0146484,14.5078125 L44.1132812,14.5078125 L45.96875,18.1210938 Z M53.1953125,20.8359375 C53.029296,21.119142 52.816082,21.3372388 52.5556641,21.4902344 C52.2952461,21.6432299 51.9941423,21.7197266 51.6523438,21.7197266 C51.076169,21.7197266 50.6269547,21.5358091 50.3046875,21.1679688 C49.9824203,20.8001284 49.8212891,20.2272174 49.8212891,19.4492188 L49.8212891,16.3339844 L50.7832031,16.3339844 L50.7832031,19.4589844 C50.7832031,20.0221382 50.8662101,20.4095042 51.0322266,20.6210938 C51.198243,20.8326833 51.4570295,20.9384766 51.8085938,20.9384766 C52.1503923,20.9384766 52.4327788,20.8693041 52.6557617,20.730957 C52.8787446,20.59261 53.0472,20.3964856 53.1611328,20.1425781 L53.1611328,16.3339844 L54.1230469,16.3339844 L54.1230469,21.6171875 L53.2587891,21.6171875 L53.1953125,20.8359375 Z M57.140625,19.6591797 L57.3115234,20.3232422 L57.3408203,20.3232422 L58.6396484,16.3339844 L59.7089844,16.3339844 L57.4873047,22.4277344 C57.3538405,22.7825539 57.1625989,23.0917956 56.9135742,23.3554688 C56.6645495,23.6191419 56.3284526,23.7509766 55.9052734,23.7509766 C55.827148,23.7509766 55.7278652,23.7420248 55.6074219,23.7241211 C55.4869786,23.7062174 55.3942061,23.6891277 55.3291016,23.6728516 L55.4267578,22.9160156 C55.4072265,22.9127604 55.4650058,22.9160156 55.6000977,22.9257812 C55.7351895,22.9355469 55.8206378,22.9404297 55.8564453,22.9404297 C56.0615245,22.9404297 56.229166,22.8492848 56.359375,22.6669922 C56.489584,22.4846996 56.5986324,22.2828787 56.6865234,22.0615234 L56.9160156,21.5097656 L54.953125,16.3339844 L56.0273438,16.3339844 L57.140625,19.6591797 Z M63.8007812,21.6171875 C63.768229,21.4576815 63.7430014,21.3168951 63.7250977,21.1948242 C63.7071939,21.0727533 63.6966146,20.9498704 63.6933594,20.8261719 C63.514322,21.0800794 63.2807632,21.2924796 62.9926758,21.4633789 C62.7045884,21.6342782 62.3945329,21.7197266 62.0625,21.7197266 C61.512367,21.7197266 61.0932632,21.5789402 60.8051758,21.2973633 C60.5170884,21.0157864 60.3730469,20.6276066 60.3730469,20.1328125 C60.3730469,19.6282527 60.5773092,19.2335626 60.9858398,18.9487305 C61.3943705,18.6638983 61.9485642,18.5214844 62.6484375,18.5214844 L63.6933594,18.5214844 L63.6933594,17.9990234 C63.6933594,17.6897771 63.5989593,17.4448251 63.4101562,17.2641602 C63.2213532,17.0834952 62.9544288,16.9931641 62.609375,16.9931641 C62.2968734,16.9931641 62.0445973,17.0712883 61.8525391,17.2275391 C61.6604808,17.3837898 61.5644531,17.5709625 61.5644531,17.7890625 L60.6513672,17.7988281 L60.6416016,17.7695312 C60.618815,17.3854147 60.7986635,17.0338558 61.1811523,16.7148438 C61.5636412,16.3958317 62.0576142,16.2363281 62.6630859,16.2363281 C63.2620473,16.2363281 63.7438133,16.3885076 64.1083984,16.6928711 C64.4729836,16.9972346 64.6552734,17.4358695 64.6552734,18.0087891 L64.6552734,20.5527344 C64.6552734,20.7415374 64.665039,20.9238272 64.6845703,21.0996094 C64.7041017,21.2753915 64.7399086,21.4479158 64.7919922,21.6171875 L63.8007812,21.6171875 Z M62.2041016,20.9140625 C62.5524106,20.9140625 62.8665351,20.8245452 63.1464844,20.6455078 C63.4264337,20.4664705 63.6087235,20.2613944 63.6933594,20.0302734 L63.6933594,19.1708984 L62.6142578,19.1708984 C62.2268861,19.1708984 61.9168306,19.2685537 61.684082,19.4638672 C61.4513335,19.6591807 61.3349609,19.8886706 61.3349609,20.1523438 C61.3349609,20.3867199 61.4082024,20.5722649 61.5546875,20.7089844 C61.7011726,20.8457038 61.9176418,20.9140625 62.2041016,20.9140625 Z M65.8271484,18.9267578 C65.8271484,18.1455039 66.0387349,17.5017929 66.4619141,16.9956055 C66.8850933,16.489418 67.4596318,16.2363281 68.1855469,16.2363281 C68.9179724,16.2363281 69.4965799,16.4886042 69.9213867,16.9931641 C70.3461935,17.4977239 70.5585938,18.1422487 70.5585938,18.9267578 L70.5585938,19.0341797 C70.5585938,19.821944 70.3470073,20.4664688 69.9238281,20.9677734 C69.5006489,21.469078 68.9244828,21.7197266 68.1953125,21.7197266 C67.4661422,21.7197266 66.8891623,21.4682642 66.4643555,20.965332 C66.0395487,20.4623998 65.8271484,19.8186888 65.8271484,19.0341797 L65.8271484,18.9267578 Z M66.7890625,19.0341797 C66.7890625,19.5940783 66.9070626,20.0563133 67.1430664,20.4208984 C67.3790702,20.7854836 67.7298154,20.9677734 68.1953125,20.9677734 C68.6542992,20.9677734 69.002603,20.7854836 69.2402344,20.4208984 C69.4778658,20.0563133 69.5966797,19.5940783 69.5966797,19.0341797 L69.5966797,18.9267578 C69.5966797,18.3733696 69.477052,17.9127623 69.237793,17.5449219 C68.998534,17.1770815 68.6477888,16.9931641 68.1855469,16.9931641 C67.7265602,16.9931641 67.3790702,17.1770815 67.1430664,17.5449219 C66.9070626,17.9127623 66.7890625,18.3733696 66.7890625,18.9267578 L66.7890625,19.0341797 Z" id="Yuyao" fill="#191919" fill-rule="nonzero"></path>
                <path d="M22.4384766,34.8251953 C22.4384766,34.5029281 22.3229178,34.2327485 22.0917969,34.0146484 C21.8606759,33.7965484 21.453779,33.6110034 20.8710938,33.4580078 C20.1484339,33.2789705 19.5844747,33.0153012 19.1791992,32.6669922 C18.7739238,32.3186832 18.5712891,31.880862 18.5712891,31.3535156 C18.5712891,30.7968722 18.7893858,30.3330097 19.2255859,29.9619141 C19.661786,29.5908185 20.2281866,29.4052734 20.9248047,29.4052734 C21.6735063,29.4052734 22.2700173,29.6176737 22.7143555,30.0424805 C23.1586936,30.4672873 23.374349,30.9628878 23.3613281,31.5292969 L23.3466797,31.5585938 L22.4287109,31.5585938 C22.4287109,31.1549459 22.2879246,30.8212904 22.0063477,30.5576172 C21.7247707,30.293944 21.36426,30.1621094 20.9248047,30.1621094 C20.4755837,30.1621094 20.1313489,30.2711578 19.8920898,30.4892578 C19.6528308,30.7073579 19.5332031,30.9905582 19.5332031,31.3388672 C19.5332031,31.6481135 19.664224,31.9060862 19.9262695,32.112793 C20.1883151,32.3194997 20.6139293,32.5009758 21.203125,32.6572266 C21.9192744,32.8427744 22.4645164,33.1162091 22.8388672,33.4775391 C23.213218,33.838869 23.4003906,34.2848281 23.4003906,34.8154297 C23.4003906,35.3883492 23.1749697,35.8489566 22.7241211,36.1972656 C22.2732725,36.5455747 21.6848995,36.7197266 20.9589844,36.7197266 C20.272132,36.7197266 19.6658555,36.5276712 19.1401367,36.1435547 C18.6144179,35.7594382 18.3597004,35.2451204 18.3759766,34.6005859 L18.3857422,34.5712891 L19.3037109,34.5712891 C19.3037109,35.0172548 19.4729801,35.3614897 19.8115234,35.6040039 C20.1500668,35.8465181 20.53255,35.9677734 20.9589844,35.9677734 C21.4147158,35.9677734 21.7752265,35.8652354 22.0405273,35.6601562 C22.3058281,35.4550771 22.4384766,35.1767596 22.4384766,34.8251953 Z M25.6708984,36.6171875 L24.7089844,36.6171875 L24.7089844,31.3339844 L25.6708984,31.3339844 L25.6708984,36.6171875 Z M25.6708984,29.9814453 L24.7089844,29.9814453 L24.7089844,29 L25.6708984,29 L25.6708984,29.9814453 Z M28.0585938,35.8652344 L31.1103516,35.8652344 L31.1103516,36.6171875 L26.9111328,36.6171875 L26.9111328,35.9433594 L29.7675781,32.0957031 L26.9453125,32.0957031 L26.9453125,31.3339844 L30.9443359,31.3339844 L30.9443359,31.9882812 L28.0585938,35.8652344 Z M33.1416016,32.0419922 C33.3238941,31.7880847 33.5476875,31.5903327 33.8129883,31.4487305 C34.0782891,31.3071282 34.3720687,31.2363281 34.6943359,31.2363281 C35.2574898,31.2363281 35.6961247,31.4055973 36.0102539,31.7441406 C36.3243831,32.082684 36.4814453,32.6035121 36.4814453,33.3066406 L36.4814453,36.6171875 L35.5195313,36.6171875 L35.5195313,33.296875 C35.5195313,32.8606749 35.4259449,32.5384125 35.2387695,32.3300781 C35.0515941,32.1217438 34.7724628,32.0175781 34.4013672,32.0175781 C34.1149074,32.0175781 33.8658865,32.0737299 33.6542969,32.1860352 C33.4427073,32.2983404 33.2718105,32.4554026 33.1416016,32.6572266 L33.1416016,36.6171875 L32.1796875,36.6171875 L32.1796875,29 L33.1416016,29 L33.1416016,32.0419922 Z M41.2177734,35.8359375 C41.051757,36.119142 40.838543,36.3372388 40.578125,36.4902344 C40.317707,36.6432299 40.0166033,36.7197266 39.6748047,36.7197266 C39.0986299,36.7197266 38.6494157,36.5358091 38.3271484,36.1679688 C38.0048812,35.8001284 37.84375,35.2272174 37.84375,34.4492188 L37.84375,31.3339844 L38.8056641,31.3339844 L38.8056641,34.4589844 C38.8056641,35.0221382 38.888671,35.4095042 39.0546875,35.6210938 C39.220704,35.8326833 39.4794904,35.9384766 39.8310547,35.9384766 C40.1728533,35.9384766 40.4552398,35.8693041 40.6782227,35.730957 C40.9012055,35.59261 41.0696609,35.3964856 41.1835938,35.1425781 L41.1835938,31.3339844 L42.1455078,31.3339844 L42.1455078,36.6171875 L41.28125,36.6171875 L41.2177734,35.8359375 Z M45.0068359,34.1806641 L44.5136719,34.1806641 L44.5136719,36.6171875 L43.5517578,36.6171875 L43.5517578,29 L44.5136719,29 L44.5136719,33.4140625 L44.9970703,33.4140625 L46.5839844,31.3339844 L47.7363281,31.3339844 L45.8173828,33.7705078 L47.9023438,36.6171875 L46.7646484,36.6171875 L45.0068359,34.1806641 Z M48.4492188,33.9267578 C48.4492188,33.1455039 48.6608052,32.5017929 49.0839844,31.9956055 C49.5071636,31.489418 50.0817021,31.2363281 50.8076172,31.2363281 C51.5400427,31.2363281 52.1186502,31.4886042 52.543457,31.9931641 C52.9682638,32.4977239 53.1806641,33.1422487 53.1806641,33.9267578 L53.1806641,34.0341797 C53.1806641,34.821944 52.9690776,35.4664688 52.5458984,35.9677734 C52.1227192,36.469078 51.5465531,36.7197266 50.8173828,36.7197266 C50.0882125,36.7197266 49.5112326,36.4682642 49.0864258,35.965332 C48.661619,35.4623998 48.4492188,34.8186888 48.4492188,34.0341797 L48.4492188,33.9267578 Z M49.4111328,34.0341797 C49.4111328,34.5940783 49.5291329,35.0563133 49.7651367,35.4208984 C50.0011405,35.7854836 50.3518857,35.9677734 50.8173828,35.9677734 C51.2763695,35.9677734 51.6246733,35.7854836 51.8623047,35.4208984 C52.0999361,35.0563133 52.21875,34.5940783 52.21875,34.0341797 L52.21875,33.9267578 C52.21875,33.3733696 52.0991223,32.9127623 51.8598633,32.5449219 C51.6206043,32.1770815 51.2698591,31.9931641 50.8076172,31.9931641 C50.3486305,31.9931641 50.0011405,32.1770815 49.7651367,32.5449219 C49.5291329,32.9127623 49.4111328,33.3733696 49.4111328,33.9267578 L49.4111328,34.0341797 Z M55.2167969,31.3339844 L55.2851563,32.1201172 C55.4609384,31.8401679 55.6814765,31.6228849 55.9467773,31.4682617 C56.2120781,31.3136385 56.5139957,31.2363281 56.8525391,31.2363281 C57.4222034,31.2363281 57.8632797,31.4031559 58.1757813,31.7368164 C58.4882828,32.0704769 58.6445313,32.5856085 58.6445313,33.2822266 L58.6445313,36.6171875 L57.6826172,36.6171875 L57.6826172,33.3017578 C57.6826172,32.8362607 57.5906585,32.5058604 57.4067383,32.3105469 C57.2228181,32.1152334 56.9420592,32.0175781 56.5644531,32.0175781 C56.2682277,32.0175781 56.0167654,32.0769851 55.8100586,32.1958008 C55.6033518,32.3146165 55.4397792,32.4814442 55.3193359,32.6962891 L55.3193359,36.6171875 L54.3574219,36.6171875 L54.3574219,31.3339844 L55.2167969,31.3339844 Z M59.8701172,34.0732422 C59.8701172,33.2236286 60.0515932,32.5384141 60.4145508,32.0175781 C60.7775083,31.4967422 61.284502,31.2363281 61.9355469,31.2363281 C62.270835,31.2363281 62.5654284,31.303873 62.8193359,31.4389648 C63.0732435,31.5740567 63.2864575,31.7685534 63.4589844,32.0224609 L63.5761719,31.3339844 L64.3427734,31.3339844 L64.3427734,36.6464844 C64.3427734,37.3235711 64.1458353,37.8435854 63.7519531,38.206543 C63.3580709,38.5695005 62.7900428,38.7509766 62.0478516,38.7509766 C61.793944,38.7509766 61.5196955,38.7159834 61.2250977,38.6459961 C60.9304998,38.5760088 60.6708996,38.4807949 60.4462891,38.3603516 L60.5927734,37.6132812 C60.7783212,37.710938 61.0021146,37.789876 61.2641602,37.8500977 C61.5262057,37.9103193 61.7841784,37.9404297 62.0380859,37.9404297 C62.5068383,37.9404297 62.8478179,37.8338227 63.0610352,37.6206055 C63.2742524,37.4073883 63.3808594,37.0826845 63.3808594,36.6464844 L63.3808594,36.0458984 C63.2083325,36.2672537 63.0016288,36.4348953 62.7607422,36.5488281 C62.5198556,36.662761 62.241538,36.7197266 61.9257813,36.7197266 C61.2812468,36.7197266 60.7775083,36.4861677 60.4145508,36.019043 C60.0515932,35.5519182 59.8701172,34.9375038 59.8701172,34.1757812 L59.8701172,34.0732422 Z M60.8320313,34.1757812 C60.8320313,34.7063829 60.9410796,35.1328109 61.1591797,35.4550781 C61.3772797,35.7773454 61.7141904,35.9384766 62.1699219,35.9384766 C62.4596369,35.9384766 62.7021475,35.8725593 62.8974609,35.7407227 C63.0927744,35.6088861 63.2539056,35.4225272 63.3808594,35.1816406 L63.3808594,32.75 C63.2571608,32.5253895 63.0960296,32.3471686 62.8974609,32.215332 C62.6988922,32.0834954 62.4596368,32.0175781 62.1796875,32.0175781 C61.7207008,32.0175781 61.3813488,32.2080059 61.1616211,32.5888672 C60.9418934,32.9697285 60.8320313,33.4645152 60.8320313,34.0732422 L60.8320313,34.1757812 Z" id="Sizhukong" fill="#191919" fill-rule="nonzero"></path>
                <path d="M5.62011719,61.2646484 L3.27636719,61.2646484 L3.27636719,67.6171875 L2.31445312,67.6171875 L2.31445312,61.2646484 L0,61.2646484 L0,60.5078125 L5.62011719,60.5078125 L5.62011719,61.2646484 Z M6.27441406,64.9267578 C6.27441406,64.1455039 6.48600049,63.5017929 6.90917969,62.9956055 C7.33235889,62.489418 7.90689741,62.2363281 8.6328125,62.2363281 C9.36523804,62.2363281 9.94384553,62.4886042 10.3686523,62.9931641 C10.7934592,63.4977239 11.0058594,64.1422487 11.0058594,64.9267578 L11.0058594,65.0341797 C11.0058594,65.821944 10.7942729,66.4664688 10.3710938,66.9677734 C9.94791455,67.469078 9.37174844,67.7197266 8.64257812,67.7197266 C7.91340781,67.7197266 7.33642791,67.4682642 6.91162109,66.965332 C6.48681428,66.4623998 6.27441406,65.8186888 6.27441406,65.0341797 L6.27441406,64.9267578 Z M7.23632812,65.0341797 C7.23632812,65.5940783 7.35432825,66.0563133 7.59033203,66.4208984 C7.82633582,66.7854836 8.17708101,66.9677734 8.64257812,66.9677734 C9.10156479,66.9677734 9.4498686,66.7854836 9.6875,66.4208984 C9.9251314,66.0563133 10.0439453,65.5940783 10.0439453,65.0341797 L10.0439453,64.9267578 C10.0439453,64.3733696 9.9243176,63.9127623 9.68505859,63.5449219 C9.44579958,63.1770815 9.09505439,62.9931641 8.6328125,62.9931641 C8.17382583,62.9931641 7.82633582,63.1770815 7.59033203,63.5449219 C7.35432825,63.9127623 7.23632812,64.3733696 7.23632812,64.9267578 L7.23632812,65.0341797 Z M13.0419922,62.3339844 L13.1103516,63.1201172 C13.2861337,62.8401679 13.5066719,62.6228849 13.7719727,62.4682617 C14.0372735,62.3136385 14.339191,62.2363281 14.6777344,62.2363281 C15.2473987,62.2363281 15.688475,62.4031559 16.0009766,62.7368164 C16.3134781,63.0704769 16.4697266,63.5856085 16.4697266,64.2822266 L16.4697266,67.6171875 L15.5078125,67.6171875 L15.5078125,64.3017578 C15.5078125,63.8362607 15.4158538,63.5058604 15.2319336,63.3105469 C15.0480134,63.1152334 14.7672545,63.0175781 14.3896484,63.0175781 C14.093423,63.0175781 13.8419607,63.0769851 13.6352539,63.1958008 C13.4285471,63.3146165 13.2649746,63.4814442 13.1445312,63.6962891 L13.1445312,67.6171875 L12.1826172,67.6171875 L12.1826172,62.3339844 L13.0419922,62.3339844 Z M17.6953125,65.0732422 C17.6953125,64.2236286 17.8767885,63.5384141 18.2397461,63.0175781 C18.6027036,62.4967422 19.1096973,62.2363281 19.7607422,62.2363281 C20.0960303,62.2363281 20.3906237,62.303873 20.6445312,62.4389648 C20.8984388,62.5740567 21.1116528,62.7685534 21.2841797,63.0224609 L21.4013672,62.3339844 L22.1679688,62.3339844 L22.1679688,67.6464844 C22.1679688,68.3235711 21.9710306,68.8435854 21.5771484,69.206543 C21.1832663,69.5695005 20.6152381,69.7509766 19.8730469,69.7509766 C19.6191394,69.7509766 19.3448908,69.7159834 19.050293,69.6459961 C18.7556951,69.5760088 18.4960949,69.4807949 18.2714844,69.3603516 L18.4179688,68.6132812 C18.6035166,68.710938 18.8273099,68.789876 19.0893555,68.8500977 C19.351401,68.9103193 19.6093737,68.9404297 19.8632812,68.9404297 C20.3320336,68.9404297 20.6730133,68.8338227 20.8862305,68.6206055 C21.0994477,68.4073883 21.2060547,68.0826845 21.2060547,67.6464844 L21.2060547,67.0458984 C21.0335278,67.2672537 20.8268241,67.4348953 20.5859375,67.5488281 C20.3450509,67.662761 20.0667333,67.7197266 19.7509766,67.7197266 C19.1064421,67.7197266 18.6027036,67.4861677 18.2397461,67.019043 C17.8767885,66.5519182 17.6953125,65.9375038 17.6953125,65.1757812 L17.6953125,65.0732422 Z M18.6572266,65.1757812 C18.6572266,65.7063829 18.766275,66.1328109 18.984375,66.4550781 C19.202475,66.7773454 19.5393857,66.9384766 19.9951172,66.9384766 C20.2848322,66.9384766 20.5273428,66.8725593 20.7226562,66.7407227 C20.9179697,66.6088861 21.0791009,66.4225272 21.2060547,66.1816406 L21.2060547,63.75 C21.0823562,63.5253895 20.921225,63.3471686 20.7226562,63.215332 C20.5240875,63.0834954 20.2848321,63.0175781 20.0048828,63.0175781 C19.5458961,63.0175781 19.2065441,63.2080059 18.9868164,63.5888672 C18.7670887,63.9697285 18.6572266,64.4645152 18.6572266,65.0732422 L18.6572266,65.1757812 Z M24.4580078,66.8652344 L27.5097656,66.8652344 L27.5097656,67.6171875 L23.3105469,67.6171875 L23.3105469,66.9433594 L26.1669922,63.0957031 L23.3447266,63.0957031 L23.3447266,62.3339844 L27.34375,62.3339844 L27.34375,62.9882812 L24.4580078,66.8652344 Z M29.6191406,67.6171875 L28.6572266,67.6171875 L28.6572266,62.3339844 L29.6191406,62.3339844 L29.6191406,67.6171875 Z M29.6191406,60.9814453 L28.6572266,60.9814453 L28.6572266,60 L29.6191406,60 L29.6191406,60.9814453 Z M32.1386719,67.6171875 L31.1767578,67.6171875 L31.1767578,60 L32.1386719,60 L32.1386719,67.6171875 Z M34.6582031,67.6171875 L33.6962891,67.6171875 L33.6962891,62.3339844 L34.6582031,62.3339844 L34.6582031,67.6171875 Z M34.6582031,60.9814453 L33.6962891,60.9814453 L33.6962891,60 L34.6582031,60 L34.6582031,60.9814453 Z M39.3847656,67.6171875 C39.3522134,67.4576815 39.3269858,67.3168951 39.309082,67.1948242 C39.2911783,67.0727533 39.280599,66.9498704 39.2773438,66.8261719 C39.0983064,67.0800794 38.8647475,67.2924796 38.5766602,67.4633789 C38.2885728,67.6342782 37.9785173,67.7197266 37.6464844,67.7197266 C37.0963514,67.7197266 36.6772475,67.5789402 36.3891602,67.2973633 C36.1010728,67.0157864 35.9570312,66.6276066 35.9570312,66.1328125 C35.9570312,65.6282527 36.1612935,65.2335626 36.5698242,64.9487305 C36.9783549,64.6638983 37.5325486,64.5214844 38.2324219,64.5214844 L39.2773438,64.5214844 L39.2773438,63.9990234 C39.2773438,63.6897771 39.1829437,63.4448251 38.9941406,63.2641602 C38.8053376,63.0834952 38.5384132,62.9931641 38.1933594,62.9931641 C37.8808578,62.9931641 37.6285817,63.0712883 37.4365234,63.2275391 C37.2444652,63.3837898 37.1484375,63.5709625 37.1484375,63.7890625 L36.2353516,63.7988281 L36.2255859,63.7695312 C36.2027994,63.3854147 36.3826478,63.0338558 36.7651367,62.7148438 C37.1476256,62.3958317 37.6415985,62.2363281 38.2470703,62.2363281 C38.8460316,62.2363281 39.3277977,62.3885076 39.6923828,62.6928711 C40.056968,62.9972346 40.2392578,63.4358695 40.2392578,64.0087891 L40.2392578,66.5527344 C40.2392578,66.7415374 40.2490233,66.9238272 40.2685547,67.0996094 C40.288086,67.2753915 40.323893,67.4479158 40.3759766,67.6171875 L39.3847656,67.6171875 Z M37.7880859,66.9140625 C38.136395,66.9140625 38.4505194,66.8245452 38.7304688,66.6455078 C39.0104181,66.4664705 39.1927079,66.2613944 39.2773438,66.0302734 L39.2773438,65.1708984 L38.1982422,65.1708984 C37.8108705,65.1708984 37.500815,65.2685537 37.2680664,65.4638672 C37.0353178,65.6591807 36.9189453,65.8886706 36.9189453,66.1523438 C36.9189453,66.3867199 36.9921868,66.5722649 37.1386719,66.7089844 C37.285157,66.8457038 37.5016262,66.9140625 37.7880859,66.9140625 Z M41.4111328,64.9267578 C41.4111328,64.1455039 41.6227192,63.5017929 42.0458984,62.9956055 C42.4690776,62.489418 43.0436162,62.2363281 43.7695312,62.2363281 C44.5019568,62.2363281 45.0805643,62.4886042 45.5053711,62.9931641 C45.9301779,63.4977239 46.1425781,64.1422487 46.1425781,64.9267578 L46.1425781,65.0341797 C46.1425781,65.821944 45.9309917,66.4664688 45.5078125,66.9677734 C45.0846333,67.469078 44.5084672,67.7197266 43.7792969,67.7197266 C43.0501266,67.7197266 42.4731467,67.4682642 42.0483398,66.965332 C41.623533,66.4623998 41.4111328,65.8186888 41.4111328,65.0341797 L41.4111328,64.9267578 Z M42.3730469,65.0341797 C42.3730469,65.5940783 42.491047,66.0563133 42.7270508,66.4208984 C42.9630546,66.7854836 43.3137998,66.9677734 43.7792969,66.9677734 C44.2382835,66.9677734 44.5865874,66.7854836 44.8242188,66.4208984 C45.0618501,66.0563133 45.1806641,65.5940783 45.1806641,65.0341797 L45.1806641,64.9267578 C45.1806641,64.3733696 45.0610364,63.9127623 44.8217773,63.5449219 C44.5825183,63.1770815 44.2317731,62.9931641 43.7695312,62.9931641 C43.3105446,62.9931641 42.9630546,63.1770815 42.7270508,63.5449219 C42.491047,63.9127623 42.3730469,64.3733696 42.3730469,64.9267578 L42.3730469,65.0341797 Z" id="Tongziliao" fill="#191919" fill-rule="nonzero"></path>
                <path d="M23.7226562,79.3417969 L23.7324219,79.3710938 C23.7454428,80.0384148 23.5110701,80.5966774 23.0292969,81.0458984 C22.5475236,81.4951194 21.9111368,81.7197266 21.1201172,81.7197266 C20.3160767,81.7197266 19.6609726,81.4348987 19.1547852,80.8652344 C18.6485977,80.2955701 18.3955078,79.572921 18.3955078,78.6972656 L18.3955078,77.4326172 C18.3955078,76.5569618 18.6485977,75.833499 19.1547852,75.262207 C19.6609726,74.6909151 20.3160767,74.4052734 21.1201172,74.4052734 C21.9241577,74.4052734 22.5637997,74.6193012 23.0390625,75.0473633 C23.5143253,75.4754253 23.7454428,76.0426397 23.7324219,76.7490234 L23.7226562,76.7783203 L22.7998047,76.7783203 C22.7998047,76.2802709 22.6533218,75.8863947 22.3603516,75.5966797 C22.0673813,75.3069647 21.653974,75.1621094 21.1201172,75.1621094 C20.5830051,75.1621094 20.1549495,75.3785786 19.8359375,75.8115234 C19.5169255,76.2444683 19.3574219,76.7815723 19.3574219,77.4228516 L19.3574219,78.6972656 C19.3574219,79.3450553 19.5169255,79.8854145 19.8359375,80.3183594 C20.1549495,80.7513042 20.5830051,80.9677734 21.1201172,80.9677734 C21.653974,80.9677734 22.0673813,80.8237319 22.3603516,80.5356445 C22.6533218,80.2475572 22.7998047,79.8496119 22.7998047,79.3417969 L23.7226562,79.3417969 Z M25.8125,77.0419922 C25.9947926,76.7880847 26.2185859,76.5903327 26.4838867,76.4487305 C26.7491875,76.3071282 27.0429671,76.2363281 27.3652344,76.2363281 C27.9283882,76.2363281 28.3670232,76.4055973 28.6811523,76.7441406 C28.9952815,77.082684 29.1523438,77.6035121 29.1523438,78.3066406 L29.1523438,81.6171875 L28.1904297,81.6171875 L28.1904297,78.296875 C28.1904297,77.8606749 28.0968434,77.5384125 27.909668,77.3300781 C27.7224926,77.1217438 27.4433612,77.0175781 27.0722656,77.0175781 C26.7858059,77.0175781 26.5367849,77.0737299 26.3251953,77.1860352 C26.1136057,77.2983404 25.942709,77.4554026 25.8125,77.6572266 L25.8125,81.6171875 L24.8505859,81.6171875 L24.8505859,74 L25.8125,74 L25.8125,77.0419922 Z M32.7216797,81.7197266 C31.9632124,81.7197266 31.3715842,81.477216 30.9467773,80.9921875 C30.5219705,80.507159 30.3095703,79.8691446 30.3095703,79.078125 L30.3095703,78.8632812 C30.3095703,78.1048139 30.5284809,77.4773788 30.9663086,76.980957 C31.4041363,76.4845353 31.9387989,76.2363281 32.5703125,76.2363281 C33.2766962,76.2363281 33.8064761,76.4560525 34.159668,76.8955078 C34.5128598,77.3349631 34.6894531,77.9192672 34.6894531,78.6484375 L34.6894531,79.15625 L31.3105469,79.15625 L31.2958984,79.1806641 C31.2958984,79.7112657 31.4130848,80.1417627 31.6474609,80.472168 C31.8818371,80.8025733 32.2399064,80.9677734 32.7216797,80.9677734 C33.0472021,80.9677734 33.3328438,80.9213872 33.5786133,80.8286133 C33.8243827,80.7358394 34.0351554,80.6080737 34.2109375,80.4453125 L34.5869141,81.0703125 C34.398111,81.2526051 34.1490901,81.4064121 33.8398438,81.5317383 C33.5305974,81.6570644 33.1578798,81.7197266 32.7216797,81.7197266 Z M32.5703125,76.9931641 C32.2350244,76.9931641 31.9575206,77.1225573 31.737793,77.3813477 C31.5180653,77.640138 31.3837893,77.9713521 31.3349609,78.375 L31.3447266,78.3994141 L33.7275391,78.3994141 L33.7275391,78.3212891 C33.7275391,77.9371726 33.633139,77.6197929 33.4443359,77.3691406 C33.2555329,77.1184883 32.9641947,76.9931641 32.5703125,76.9931641 Z M36.6279297,76.3339844 L36.6962891,77.1201172 C36.8720712,76.8401679 37.0926094,76.6228849 37.3579102,76.4682617 C37.623211,76.3136385 37.9251285,76.2363281 38.2636719,76.2363281 C38.8333362,76.2363281 39.2744125,76.4031559 39.5869141,76.7368164 C39.8994156,77.0704769 40.0556641,77.5856085 40.0556641,78.2822266 L40.0556641,81.6171875 L39.09375,81.6171875 L39.09375,78.3017578 C39.09375,77.8362607 39.0017913,77.5058604 38.8178711,77.3105469 C38.6339509,77.1152334 38.353192,77.0175781 37.9755859,77.0175781 C37.6793605,77.0175781 37.4278982,77.0769851 37.2211914,77.1958008 C37.0144846,77.3146165 36.8509121,77.4814442 36.7304688,77.6962891 L36.7304688,81.6171875 L35.7685547,81.6171875 L35.7685547,76.3339844 L36.6279297,76.3339844 Z M41.28125,79.0732422 C41.28125,78.2236286 41.462726,77.5384141 41.8256836,77.0175781 C42.1886411,76.4967422 42.6956348,76.2363281 43.3466797,76.2363281 C43.6819678,76.2363281 43.9765612,76.303873 44.2304688,76.4389648 C44.4843763,76.5740567 44.6975903,76.7685534 44.8701172,77.0224609 L44.9873047,76.3339844 L45.7539062,76.3339844 L45.7539062,81.6464844 C45.7539062,82.3235711 45.5569681,82.8435854 45.1630859,83.206543 C44.7692038,83.5695005 44.2011756,83.7509766 43.4589844,83.7509766 C43.2050769,83.7509766 42.9308283,83.7159834 42.6362305,83.6459961 C42.3416326,83.5760088 42.0820324,83.4807949 41.8574219,83.3603516 L42.0039062,82.6132812 C42.1894541,82.710938 42.4132474,82.789876 42.675293,82.8500977 C42.9373385,82.9103193 43.1953112,82.9404297 43.4492188,82.9404297 C43.9179711,82.9404297 44.2589508,82.8338227 44.472168,82.6206055 C44.6853852,82.4073883 44.7919922,82.0826845 44.7919922,81.6464844 L44.7919922,81.0458984 C44.6194653,81.2672537 44.4127616,81.4348953 44.171875,81.5488281 C43.9309884,81.662761 43.6526708,81.7197266 43.3369141,81.7197266 C42.6923796,81.7197266 42.1886411,81.4861677 41.8256836,81.019043 C41.462726,80.5519182 41.28125,79.9375038 41.28125,79.1757812 L41.28125,79.0732422 Z M42.2431641,79.1757812 C42.2431641,79.7063829 42.3522125,80.1328109 42.5703125,80.4550781 C42.7884125,80.7773454 43.1253232,80.9384766 43.5810547,80.9384766 C43.8707697,80.9384766 44.1132803,80.8725593 44.3085938,80.7407227 C44.5039072,80.6088861 44.6650384,80.4225272 44.7919922,80.1816406 L44.7919922,77.75 C44.6682937,77.5253895 44.5071625,77.3471686 44.3085938,77.215332 C44.110025,77.0834954 43.8707696,77.0175781 43.5908203,77.0175781 C43.1318336,77.0175781 42.7924816,77.2080059 42.5727539,77.5888672 C42.3530262,77.9697285 42.2431641,78.4645152 42.2431641,79.0732422 L42.2431641,79.1757812 Z M46.9160156,79.0732422 C46.9160156,78.2236286 47.0974917,77.5384141 47.4604492,77.0175781 C47.8234068,76.4967422 48.332028,76.2363281 48.9863281,76.2363281 C49.3053401,76.2363281 49.5869128,76.2973627 49.8310547,76.4194336 C50.0751965,76.5415045 50.2835278,76.7180978 50.4560547,76.9492188 L50.5927734,76.3339844 L51.3300781,76.3339844 L51.3300781,83.6484375 L50.3681641,83.6484375 L50.3681641,81.1191406 C50.1988924,81.3177093 49.9986991,81.4674474 49.7675781,81.5683594 C49.5364572,81.6692713 49.2727879,81.7197266 48.9765625,81.7197266 C48.332028,81.7197266 47.8274758,81.4861677 47.4628906,81.019043 C47.0983055,80.5519182 46.9160156,79.9375038 46.9160156,79.1757812 L46.9160156,79.0732422 Z M47.8779297,79.1757812 C47.8779297,79.7096381 47.9877919,80.1417627 48.2075195,80.472168 C48.4272472,80.8025733 48.7649717,80.9677734 49.2207031,80.9677734 C49.4843763,80.9677734 49.7097972,80.9091803 49.8969727,80.7919922 C50.0841481,80.6748041 50.2412103,80.5104177 50.3681641,80.2988281 L50.3681641,77.6328125 C50.2412103,77.4342438 50.0841481,77.2779954 49.8969727,77.1640625 C49.7097972,77.0501296 49.4876315,76.9931641 49.2304688,76.9931641 C48.7714821,76.9931641 48.4313162,77.1876608 48.2099609,77.5766602 C47.9886057,77.9656595 47.8779297,78.4645152 47.8779297,79.0732422 L47.8779297,79.1757812 Z M53.859375,81.6171875 L52.8974609,81.6171875 L52.8974609,76.3339844 L53.859375,76.3339844 L53.859375,81.6171875 Z M53.859375,74.9814453 L52.8974609,74.9814453 L52.8974609,74 L53.859375,74 L53.859375,74.9814453 Z" id="Chengqi" fill="#191919" fill-rule="nonzero"></path>
            </g>
            <rect id="Rectangle" fill="#D8D8D8" opacity="0" x="0" y="0" width="360" height="122"></rect>
        </g>
    </g>
</svg>