<?xml version="1.0" encoding="UTF-8"?>
<svg width="24px" height="24px" viewBox="0 0 24 24" version="1.1" xmlns="http://www.w3.org/2000/svg" xmlns:xlink="http://www.w3.org/1999/xlink">
    <!-- Generator: Sketch 52.2 (67145) - http://www.bohemiancoding.com/sketch -->
    <title>ic_activity</title>
    <desc>Created with Sketch.</desc>
    <g id="ic_activity" stroke="none" stroke-width="1" fill="none" fill-rule="evenodd">
        <g id="round-visibility-24px">
            <polygon id="Path" points="0 0 24 0 24 24 0 24"></polygon>
            <path d="M12,4 C17,4 21.27,7.11 23,11.5 C21.27,15.89 17,19 12,19 C7,19 2.73,15.89 1,11.5 C2.73,7.11 7,4 12,4 Z M12,16.5 C14.76,16.5 17,14.26 17,11.5 C17,8.74 14.76,6.5 12,6.5 C9.24,6.5 7,8.74 7,11.5 C7,14.26 9.24,16.5 12,16.5 Z M12.3629692,8.52161452 C12.136756,8.78426944 12,9.12616419 12,9.5 C12,10.3284271 12.6715729,11 13.5,11 C14.0273083,11 14.4910664,10.7279093 14.7585346,10.3164675 C14.9139818,10.6793771 15,11.0794177 15,11.5 C15,13.16 13.66,14.5 12,14.5 C10.34,14.5 9,13.16 9,11.5 C9,9.84 10.34,8.5 12,8.5 C12.1228811,8.5 12.2440088,8.50734276 12.3629692,8.52161452 Z" id="Combined-Shape" fill="#000000" opacity="0.300000012" fill-rule="nonzero"></path>
        </g>
    </g>
</svg>