<?xml version="1.0" encoding="UTF-8"?>
<svg width="24px" height="16px" viewBox="0 0 24 16" version="1.1" xmlns="http://www.w3.org/2000/svg" xmlns:xlink="http://www.w3.org/1999/xlink">
    <!-- Generator: Sketch 56.3 (81716) - https://sketch.com -->
    <title>ic_computer</title>
    <desc>Created with Sketch.</desc>
    <g id="页面-1" stroke="none" stroke-width="1" fill="none" fill-rule="evenodd">
        <g id="ic_computer" transform="translate(-9.000000, -13.000000)">
            <circle id="Oval" fill-rule="nonzero" cx="21" cy="21" r="21"></circle>
            <g id="round-chrome_reader_mode-24px" transform="translate(9.000000, 9.000000)">
                <polygon id="Path" points="0 0 24 0 24 24 0 24"></polygon>
                <g id="round-computer-24px" transform="translate(0.000000, 4.000000)" fill="#FFFFFF" fill-rule="nonzero">
                    <path d="M20,14 C21.1,14 21.99,13.1 21.99,12 L22,2 C22,0.9 21.1,0 20,0 L4,0 C2.9,0 2,0.9 2,2 L2,12 C2,13.1 2.9,14 4,14 L1,14 C0.45,14 0,14.45 0,15 C0,15.55 0.45,16 1,16 L23,16 C23.55,16 24,15.55 24,15 C24,14.45 23.55,14 23,14 L20,14 Z M5,2 L19,2 C19.55,2 20,2.45 20,3 L20,11 C20,11.55 19.55,12 19,12 L5,12 C4.45,12 4,11.55 4,11 L4,3 C4,2.45 4.45,2 5,2 Z" id="Shape"></path>
                    <path d="M9.42857143,9.25 C9.01435787,9.25 8.67857143,8.91421356 8.67857143,8.5 C8.67857143,8.08578644 9.01435787,7.75 9.42857143,7.75 L14.5714286,7.75 C14.9856421,7.75 15.3214286,8.08578644 15.3214286,8.5 C15.3214286,8.91421356 14.9856421,9.25 14.5714286,9.25 L9.42857143,9.25 Z" id="Path-3"></path>
                    <path d="M9.42857143,6.25 C9.01435787,6.25 8.67857143,5.91421356 8.67857143,5.5 C8.67857143,5.08578644 9.01435787,4.75 9.42857143,4.75 L14.5714286,4.75 C14.9856421,4.75 15.3214286,5.08578644 15.3214286,5.5 C15.3214286,5.91421356 14.9856421,6.25 14.5714286,6.25 L9.42857143,6.25 Z" id="Path-3"></path>
                </g>
            </g>
        </g>
    </g>
</svg>