<?xml version="1.0" encoding="UTF-8"?>
<svg width="22px" height="12px" viewBox="0 0 22 12" version="1.1" xmlns="http://www.w3.org/2000/svg" xmlns:xlink="http://www.w3.org/1999/xlink">
    <!-- Generator: Sketch 56.3 (81716) - https://sketch.com -->
    <title>ic_game</title>
    <desc>Created with Sketch.</desc>
    <g id="页面-1" stroke="none" stroke-width="1" fill="none" fill-rule="evenodd">
        <g id="ic_game" transform="translate(-10.000000, -15.000000)">
            <circle id="Oval" fill-rule="nonzero" cx="21" cy="21" r="21"></circle>
            <g id="round-directions_walk-24px" transform="translate(9.000000, 9.000000)">
                <polygon id="Path" points="0 0 24 0 24 24 0 24"></polygon>
                <g id="round-videogame_asset-24px" transform="translate(1.000000, 6.000000)" fill="#FFFFFF" fill-rule="nonzero">
                    <path d="M20,0 L2,0 C0.9,0 0,0.9 0,2 L0,10 C0,11.1 0.9,12 2,12 L20,12 C21.1,12 22,11.1 22,10 L22,2 C22,0.9 21.1,0 20,0 Z M9,7 L7,7 L7,9 C7,9.55 6.55,10 6,10 C5.45,10 5,9.55 5,9 L5,7 L3,7 C2.45,7 2,6.55 2,6 C2,5.45 2.45,5 3,5 L5,5 L5,3 C5,2.45 5.45,2 6,2 C6.55,2 7,2.45 7,3 L7,5 L9,5 C9.55,5 10,5.45 10,6 C10,6.55 9.55,7 9,7 Z M14.5,9 C13.67,9 13,8.33 13,7.5 C13,6.67 13.67,6 14.5,6 C15.33,6 16,6.67 16,7.5 C16,8.33 15.33,9 14.5,9 Z M18.5,6 C17.67,6 17,5.33 17,4.5 C17,3.67 17.67,3 18.5,3 C19.33,3 20,3.67 20,4.5 C20,5.33 19.33,6 18.5,6 Z" id="Shape"></path>
                </g>
            </g>
        </g>
    </g>
</svg>