<?xml version="1.0" encoding="UTF-8"?>
<svg width="64px" height="24px" viewBox="0 0 64 24" version="1.1" xmlns="http://www.w3.org/2000/svg" xmlns:xlink="http://www.w3.org/1999/xlink">
    <!-- Generator: Sketch 52.2 (67145) - http://www.bohemiancoding.com/sketch -->
    <title>ic_glasses</title>
    <desc>Created with Sketch.</desc>
    <g id="ic_glasses" stroke="none" stroke-width="1" fill="none" fill-rule="evenodd">
        <g id="glasses" fill-rule="nonzero">
            <path d="M60.8634921,24 L44.4698413,24 C43.0666667,24 41.9301587,22.8420485 41.9301587,21.4123989 L41.9301587,10.6091644 C41.9301587,9.17951482 43.0666667,8.02156334 44.4698413,8.02156334 L60.8571429,8.02156334 C62.2603175,8.02156334 63.3968254,9.17951482 63.3968254,10.6091644 L63.3968254,21.4123989 C63.4031746,22.8420485 62.2666667,24 60.8634921,24 Z M29.8984127,24 L13.5047619,24 C12.1015873,24 10.9650794,22.8420485 10.9650794,21.4123989 L10.9650794,10.6091644 C10.9650794,9.17951482 12.1015873,8.02156334 13.5047619,8.02156334 L29.8920635,8.02156334 C31.2952381,8.02156334 32.431746,9.17951482 32.431746,10.6091644 L32.431746,21.4123989 C32.4380952,22.8420485 31.2952381,24 29.8984127,24 Z" id="Shape" fill="#13D077" opacity="0.313662574"></path>
            <path d="M62.3746032,10.4797844 L60.5333333,10.4797844 L60.5333333,3.55795148 C60.5333333,1.59784367 58.9650794,0 57.0412698,0 L37.2952381,0 C35.3714286,0 33.8031746,1.59784367 33.8031746,3.55795148 L33.8031746,7.30997305 L30.184127,7.30997305 L30.184127,3.55795148 C30.184127,1.59784367 28.615873,0 26.6920635,0 L6.94603175,0 C5.02222222,0 3.45396825,1.59784367 3.45396825,3.55795148 L3.45396825,5.95148248 C3.45396825,6.84420485 4.16507937,7.56873315 5.04126984,7.56873315 C5.91746032,7.56873315 6.62857143,6.84420485 6.62857143,5.95148248 L6.62857143,3.55795148 C6.62857143,3.37681941 6.76825397,3.23450135 6.94603175,3.23450135 L26.6920635,3.23450135 C26.8698413,3.23450135 27.0095238,3.37681941 27.0095238,3.55795148 L27.0095238,17.2075472 C27.0095238,17.3886792 26.8698413,17.5309973 26.6920635,17.5309973 L6.94603175,17.5309973 C6.76825397,17.5309973 6.62857143,17.3886792 6.62857143,17.2075472 L6.62857143,12.097035 C6.62857143,11.2043127 5.91746032,10.4797844 5.04126984,10.4797844 L1.61269841,10.4797844 C0.736507937,10.4797844 0.0253968254,11.2043127 0.0253968254,12.097035 C0.0253968254,12.9897574 0.736507937,13.7142857 1.61269841,13.7142857 L3.45396825,13.7142857 L3.45396825,17.2075472 C3.45396825,19.167655 5.02222222,20.7654987 6.94603175,20.7654987 L26.6920635,20.7654987 C28.615873,20.7654987 30.184127,19.167655 30.184127,17.2075472 L30.184127,10.5444744 L33.8031746,10.5444744 L33.8031746,17.2075472 C33.8031746,19.167655 35.3714286,20.7654987 37.2952381,20.7654987 L57.0412698,20.7654987 C58.9650794,20.7654987 60.5333333,19.167655 60.5333333,17.2075472 L60.5333333,13.7142857 L62.3746032,13.7142857 C63.2507937,13.7142857 63.9619048,12.9897574 63.9619048,12.097035 C63.9619048,11.2043127 63.2507937,10.4797844 62.3746032,10.4797844 Z M57.3587302,17.2075472 C57.3587302,17.3886792 57.2190476,17.5309973 57.0412698,17.5309973 L37.2952381,17.5309973 C37.1174603,17.5309973 36.9777778,17.3886792 36.9777778,17.2075472 L36.9777778,3.55795148 C36.9777778,3.37681941 37.1174603,3.23450135 37.2952381,3.23450135 L57.0412698,3.23450135 C57.2190476,3.23450135 57.3587302,3.37681941 57.3587302,3.55795148 L57.3587302,17.2075472 Z" id="Shape" fill="#3F3F3F"></path>
        </g>
    </g>
</svg>