<?xml version="1.0" encoding="UTF-8"?>
<svg width="174px" height="124px" viewBox="0 0 174 124" version="1.1" xmlns="http://www.w3.org/2000/svg" xmlns:xlink="http://www.w3.org/1999/xlink">
    <!-- Generator: Sketch 53.2 (72643) - https://sketchapp.com -->
    <title>Version</title>
    <desc>Created with Sketch.</desc>
    <defs>
        <linearGradient x1="50%" y1="-47.3470525%" x2="50%" y2="100%" id="linearGradient-1">
            <stop stop-color="#35C794" offset="0%"></stop>
            <stop stop-color="#18965B" stop-opacity="0" offset="100%"></stop>
        </linearGradient>
        <filter x="0.0%" y="0.0%" width="100.0%" height="100.0%" filterUnits="objectBoundingBox" id="filter-2">
            <feGaussianBlur stdDeviation="0" in="SourceGraphic"></feGaussianBlur>
        </filter>
    </defs>
    <g id="Version" stroke="none" stroke-width="1" fill="none" fill-rule="evenodd">
        <g id="Group-3">
            <ellipse id="Oval" fill="url(#linearGradient-1)" fill-rule="nonzero" opacity="0.195010231" filter="url(#filter-2)" cx="87" cy="109" rx="87" ry="15"></ellipse>
            <g id="Group" transform="translate(33.000000, 0.000000)">
                <rect id="Mask" fill="#13D077" fill-rule="nonzero" x="0" y="0" width="108" height="108" rx="18"></rect>
                <path d="M46.6141297,85.0103792 L61.4127769,85.0103792 C74.0438806,85.0103792 88.2834133,95.3251949 88.2834133,108 L19.7434933,108 C19.7509203,95.3304673 33.988278,85.010377 46.6141297,85.0103792 Z" id="Mask" fill="#D0F0FE"></path>
                <path d="M71.7583765,100.737718 L73.9243603,96.9847564 C74.0049795,96.8091263 74.0049795,96.6068922 73.9243603,96.4312621 L70.1439787,86.7518613 C69.726926,86.5763631 69.3098731,86.4143648 68.879367,86.2658663 L68.7448338,86.2658663 C66.383168,85.4624728 63.9064613,85.0520603 61.4127769,85.0508787 L46.6141297,85.0508787 C44.1204453,85.0520603 41.6437386,85.4624728 39.2820727,86.2658663 L39.1475396,86.2658663 C38.7170335,86.4143648 38.2999807,86.5763631 37.882928,86.7518613 L34.0352797,96.4312621 C33.9546606,96.6068922 33.9546606,96.8091263 34.0352797,96.9847564 L36.2012635,100.737718 C36.2749389,100.900725 36.2749389,101.087705 36.2012635,101.250713 L34.6272256,106.448159 C34.5372951,106.745754 34.6660816,107.066025 34.9366518,107.217652 C35.6326025,107.562657 36.1537186,107.82344 36.5,108 C44.5050817,108.000941 62.9967632,107.986889 71.5,108 C71.8466914,107.823231 72.3678075,107.562448 73.0633482,107.217652 C73.3339184,107.066025 73.4627049,106.745754 73.3727744,106.448159 L71.7045632,101.250713 C71.6475298,101.079973 71.6671645,100.892799 71.7583765,100.737718 Z" id="Path" fill="#EFFCFF"></path>
                <path d="M45,108 C41.415805,101.790898 39.8058568,93.7922831 39.2820727,86.2253667 C41.6437386,85.4219732 44.1204453,85.0115607 46.6141297,85.0103792 L61.4127769,85.0103792 C63.8974312,85.0144989 66.3648136,85.4248722 68.7179273,86.2253667 C68.1941779,93.7917837 66.5837234,101.789564 63,108 C57.1924878,108 52.3068026,107.998613 45,108 Z" id="Path" fill="#2A5F85"></path>
                <polygon id="Path-4" fill="#5D82DD" fill-rule="nonzero" points="52.2411726 95.5 50.0507934 108.00227 57.8647616 107.999454 55.5 95.5"></polygon>
                <polygon id="Path-3" fill="#7D9FF3" fill-rule="nonzero" points="51.5 99 56.4050633 99 58 94 50 94"></polygon>
                <path d="M30,58 C25.2356207,56.6666667 23.2111925,50.6666667 23.9267155,40 C24.6422385,29.3333333 26.6666667,29.6666667 30,41 L30,58 Z" id="Path-8" fill="#2A5F85" fill-rule="nonzero"></path>
                <path d="M84,58 C79.2356207,56.6666667 77.2111925,50.6666667 77.9267155,40 C78.6422385,29.3333333 80.6666667,29.6666667 84,41 L84,58 Z" id="Path-8" fill="#2A5F85" fill-rule="nonzero" transform="translate(80.893287, 45.121212) scale(-1, 1) translate(-80.893287, -45.121212) "></path>
                <path d="M29.6351542,54.0821962 L78.3763954,54.0821962 C79.591829,54.06415 80.7626165,54.6364731 81.6273408,55.6713753 C82.4920652,56.7062775 82.9787117,58.1175717 82.9786205,59.5901397 C82.9786205,61.0509371 82.4996147,62.4519041 81.6469791,63.4848439 C80.7943434,64.5177837 79.6379213,65.0980832 78.4321124,65.0980832 L29.6351542,65.0980832 C27.1241871,65.0980832 25.0886462,62.6320929 25.0886462,59.5901397 C25.0886462,56.5481865 27.1241872,54.0821963 29.6351542,54.0821962 L29.6351542,54.0821962 Z" id="Path" fill="#F4C4B3"></path>
                <polygon id="Path" fill="#F2AC94" points="45.8069308 76.5594658 45.8069308 85.4413645 54 94 62.1930692 85.4413645 62.1930692 76.5594658"></polygon>
                <path d="M78.5926609,39.3538471 L78.5926609,58.2536534 C77.9783995,71.4196762 67.1619053,81.7773397 54.0269066,81.7773397 C40.891908,81.7773397 30.0754138,71.4196762 29.4611524,58.2536534 L29.4611524,42.0538195 C32.1491342,43.2388146 35.0546231,43.8458357 37.9905545,43.8358011 C43.7635066,43.9844504 49.2932408,41.5028466 53.0313612,37.0858703 C54.3019604,37.3807715 55.6017732,37.5302237 56.9059162,37.5313658 C61.2410757,37.6408286 65.4164718,35.8872838 68.3815943,32.7119152 C68.4037625,36.7542234 71.6717729,40.0214842 75.700198,40.0288402 C76.7005798,40.0076546 77.6856191,39.7777832 78.5926609,39.3538471 Z" id="Path" fill="#FFD2C0"></path>
                <path d="M50.0996984,69.4416223 C49.0652741,68.6355599 48.4841406,67.5423047 48.4841406,66.4023603 L48.4841406,64.1484444 C48.4840928,64.0409493 48.5397968,63.9380015 48.6386,63.8629845 C48.7374032,63.7879674 48.8709187,63.7472489 49.00882,63.7500778 L58.99118,63.7500778 C59.1290813,63.7472489 59.2625968,63.7879674 59.3614,63.8629845 C59.4602032,63.9380015 59.5159072,64.0409493 59.5158594,64.1484444 L59.5158594,66.4338104 C59.493684,68.7953305 57.0306328,70.7005891 54,70.7005259 C52.5371031,70.7005259 51.1341227,70.2476847 50.0996984,69.4416223 Z" id="Path" fill="#EC735A"></path>
                <path d="M39,86.131175 L48,95.5 L54,94 L45.8024807,85 C44.5411096,84.9402538 43.3839861,85.0150086 42.3311099,85.2242645 C41.2782338,85.4335204 40.1678639,85.7358239 39,86.131175 Z" id="Path-2" fill="#3B83B2" fill-rule="nonzero"></path>
                <path d="M54,86.131175 L63,95.5 L69,94 L60.8024807,85 C59.5411096,84.9402538 58.3839861,85.0150086 57.3311099,85.2242645 C56.2782338,85.4335204 55.1678639,85.7358239 54,86.131175 Z" id="Path-2" fill="#3B83B2" fill-rule="nonzero" transform="translate(61.500000, 90.240048) scale(-1, 1) translate(-61.500000, -90.240048) "></path>
                <path d="M66,65.5 C61.3055796,65.5 57.5,61.6944204 57.5,57 C57.5,52.3055796 61.3055796,48.5 66,48.5 C70.6944204,48.5 74.5,52.3055796 74.5,57 C74.5,61.6944204 70.6944204,65.5 66,65.5 Z M66,64.5 C70.1421356,64.5 73.5,61.1421356 73.5,57 C73.5,52.8578644 70.1421356,49.5 66,49.5 C61.8578644,49.5 58.5,52.8578644 58.5,57 C58.5,61.1421356 61.8578644,64.5 66,64.5 Z" id="Oval" fill="#6D6D6D" fill-rule="nonzero"></path>
                <path d="M42,65.5 C37.3055796,65.5 33.5,61.6944204 33.5,57 C33.5,52.3055796 37.3055796,48.5 42,48.5 C46.6944204,48.5 50.5,52.3055796 50.5,57 C50.5,61.6944204 46.6944204,65.5 42,65.5 Z M42,64.5 C46.1421356,64.5 49.5,61.1421356 49.5,57 C49.5,52.8578644 46.1421356,49.5 42,49.5 C37.8578644,49.5 34.5,52.8578644 34.5,57 C34.5,61.1421356 37.8578644,64.5 42,64.5 Z" id="Oval-Copy" fill="#6D6D6D" fill-rule="nonzero"></path>
                <path d="M50,57.5 C49.7238576,57.5 49.5,57.2761424 49.5,57 C49.5,56.7238576 49.7238576,56.5 50,56.5 L58,56.5 C58.2761424,56.5 58.5,56.7238576 58.5,57 C58.5,57.2761424 58.2761424,57.5 58,57.5 L50,57.5 Z" id="Path-7" fill="#6D6D6D" fill-rule="nonzero"></path>
                <rect id="Rectangle" fill="#2B2F52" fill-rule="nonzero" x="65" y="54" width="3" height="5" rx="1.5"></rect>
                <rect id="Rectangle" fill="#2B2F52" fill-rule="nonzero" x="40" y="54" width="3" height="5" rx="1.5"></rect>
                <path d="M42.6671594,20.4878071 C45.5103663,17.1309506 49.7563281,15 54.5,15 C59.0826971,15 63.2008902,16.9887784 66.0385803,20.1503364 C67.7083807,19.4108073 69.5562158,19 71.5,19 C78.9558441,19 85,25.0441559 85,32.5 C85,39.9558441 78.9558441,46 71.5,46 C68.4270594,46 65.5939211,44.9732839 63.3249133,43.2441798 C60.8204005,44.981744 57.7791135,46 54.5,46 C50.9886274,46 47.7499648,44.8323897 45.1510889,42.8642458 C42.8083353,44.8218617 39.7917521,46 36.5,46 C29.0441559,46 23,39.9558441 23,32.5 C23,25.0441559 29.0441559,19 36.5,19 C38.7219686,19 40.8185594,19.5368066 42.6671594,20.4878071 Z" id="Combined-Shape" fill="#34709B" fill-rule="nonzero"></path>
            </g>
        </g>
    </g>
</svg>