<?xml version="1.0" encoding="UTF-8"?>
<svg width="22px" height="16px" viewBox="0 0 22 16" version="1.1" xmlns="http://www.w3.org/2000/svg" xmlns:xlink="http://www.w3.org/1999/xlink">
    <!-- Generator: Sketch 56.3 (81716) - https://sketch.com -->
    <title>ic_others</title>
    <desc>Created with Sketch.</desc>
    <g id="页面-1" stroke="none" stroke-width="1" fill="none" fill-rule="evenodd">
        <g id="ic_others" transform="translate(-10.000000, -14.000000)">
            <circle id="Oval" fill-rule="nonzero" cx="21" cy="21" r="21"></circle>
            <g id="round-chrome_reader_mode-24px" transform="translate(9.000000, 9.000000)">
                <polygon id="Path" points="0 0 24 0 24 24 0 24"></polygon>
                <g id="round-devices_other-24px" transform="translate(1.000000, 5.000000)" fill="#FFFFFF" fill-rule="nonzero">
                    <path d="M2,3 C2,2.45 2.45,2 3,2 L19,2 C19.55,2 20,1.55 20,1 C20,0.45 19.55,0 19,0 L2,0 C0.9,0 0,0.9 0,2 L0,14 C0,15.1 0.9,16 2,16 L5,16 C5.55,16 6,15.55 6,15 C6,14.45 5.55,14 5,14 L3,14 C2.45,14 2,13.55 2,13 L2,3 Z M11,8 L9,8 C8.45,8 8,8.45 8,9 L8,9.78 C7.39,10.33 7,11.11 7,12 C7,12.89 7.39,13.67 8,14.22 L8,15 C8,15.55 8.45,16 9,16 L11,16 C11.55,16 12,15.55 12,15 L12,14.22 C12.61,13.67 13,12.88 13,12 C13,11.12 12.61,10.33 12,9.78 L12,9 C12,8.45 11.55,8 11,8 Z M10,13.5 C9.17,13.5 8.5,12.83 8.5,12 C8.5,11.17 9.17,10.5 10,10.5 C10.83,10.5 11.5,11.17 11.5,12 C11.5,12.83 10.83,13.5 10,13.5 Z M21,4 L15,4 C14.5,4 14,4.5 14,5 L14,15 C14,15.5 14.5,16 15,16 L21,16 C21.5,16 22,15.5 22,15 L22,5 C22,4.5 21.5,4 21,4 Z M20,14 L16,14 L16,6 L20,6 L20,14 Z" id="Shape"></path>
                </g>
            </g>
        </g>
    </g>
</svg>