<?xml version="1.0" encoding="UTF-8"?>
<svg width="42px" height="42px" viewBox="0 0 42 42" version="1.1" xmlns="http://www.w3.org/2000/svg" xmlns:xlink="http://www.w3.org/1999/xlink">
    <!-- Generator: Sketch 52.2 (67145) - http://www.bohemiancoding.com/sketch -->
    <title>ic_Phone</title>
    <desc>Created with Sketch.</desc>
    <g id="ic_Phone" stroke="none" stroke-width="1" fill="none" fill-rule="evenodd">
        <g id="Group-13">
            <circle id="Oval" fill="#F26B82" fill-rule="nonzero" cx="21" cy="21" r="21"></circle>
            <g id="round-chrome_reader_mode-24px" transform="translate(9.000000, 9.000000)">
                <polygon id="Path" points="0 0 24 0 24 24 0 24"></polygon>
                <path d="M16,1 L8,1 C6.34,1 5,2.34 5,4 L5,20 C5,21.66 6.34,23 8,23 L16,23 C17.66,23 19,21.66 19,20 L19,4 C19,2.34 17.66,1 16,1 Z M13.5,21 L10.5,21 C10.22,21 10,20.78 10,20.5 C10,20.22 10.22,20 10.5,20 L13.5,20 C13.78,20 14,20.22 14,20.5 C14,20.78 13.78,21 13.5,21 Z M17,18 L7,18 L7,4 L17,4 L17,18 Z" id="Shape" fill="#FFFFFF" fill-rule="nonzero"></path>
            </g>
        </g>
    </g>
</svg>