<?xml version="1.0" encoding="UTF-8"?>
<svg width="22px" height="17px" viewBox="0 0 22 17" version="1.1" xmlns="http://www.w3.org/2000/svg" xmlns:xlink="http://www.w3.org/1999/xlink">
    <!-- Generator: Sketch 56.3 (81716) - https://sketch.com -->
    <title>ic_reading</title>
    <desc>Created with Sketch.</desc>
    <g id="页面-1" stroke="none" stroke-width="1" fill="none" fill-rule="evenodd">
        <g id="ic_reading" transform="translate(-10.000000, -12.000000)">
            <circle id="Oval" fill-rule="nonzero" cx="21" cy="21" r="21"></circle>
            <g id="round-chrome_reader_mode-24px" transform="translate(9.000000, 8.000000)">
                <polygon id="Path" points="0 0 24 0 24 24 0 24"></polygon>
                <path d="M21,4 C17,4 14,4 12,4 C10,4 7,4 3,4 C1.9,4 1,4.9 1,6 L1,19 C1,20.1 1.9,21 3,21 L21,21 C22.1,21 23,20.1 23,19 L23,6 C23,4.9 22.1,4 21,4 Z M21,18 C21,18.55 20.55,19 20,19 L13,19 L13,6 L20,6 C20.55,6 21,6.45 21,7 L21,18 Z M3,18 L3,7 C3,6.45 3.45,6 4,6 L11,6 L11,19 L4,19 C3.45,19 3,18.55 3,18 Z" id="Shape" fill="#FFFFFF" fill-rule="nonzero"></path>
                <path d="M15,14.25 C14.5857864,14.25 14.25,13.9142136 14.25,13.5 C14.25,13.0857864 14.5857864,12.75 15,12.75 L19,12.75 C19.4142136,12.75 19.75,13.0857864 19.75,13.5 C19.75,13.9142136 19.4142136,14.25 19,14.25 L15,14.25 Z" id="Path-5" fill="#FFFFFF" fill-rule="nonzero"></path>
                <path d="M15,11.25 C14.5857864,11.25 14.25,10.9142136 14.25,10.5 C14.25,10.0857864 14.5857864,9.75 15,9.75 L19,9.75 C19.4142136,9.75 19.75,10.0857864 19.75,10.5 C19.75,10.9142136 19.4142136,11.25 19,11.25 L15,11.25 Z" id="Path-5" fill="#FFFFFF" fill-rule="nonzero"></path>
            </g>
        </g>
    </g>
</svg>