<?xml version="1.0" encoding="UTF-8"?>
<svg width="24px" height="23px" viewBox="0 0 24 23" version="1.1" xmlns="http://www.w3.org/2000/svg" xmlns:xlink="http://www.w3.org/1999/xlink">
    <!-- Generator: Sketch 56.3 (81716) - https://sketch.com -->
    <title>ic_sports</title>
    <desc>Created with Sketch.</desc>
    <g id="页面-1" stroke="none" stroke-width="1" fill="none" fill-rule="evenodd">
        <g id="ic_sports" transform="translate(-10.000000, -8.000000)">
            <circle id="Oval" fill-rule="nonzero" cx="21" cy="21" r="21"></circle>
            <g id="round-chrome_reader_mode-24px" transform="translate(9.000000, 8.000000)">
                <polygon id="Path" points="-4.54747351e-13 -3.41060513e-13 24 -3.41060513e-13 24 24 -4.54747351e-13 24"></polygon>
                <path d="M12,21 C16.9705627,21 21,16.9705627 21,12 C21,7.02943725 16.9705627,3 12,3 C7.02943725,3 3,7.02943725 3,12 C3,16.9705627 7.02943725,21 12,21 Z M12,23 C5.92486775,23 1,18.0751322 1,12 C1,5.92486775 5.92486775,1 12,1 C18.0751322,1 23,5.92486775 23,12 C23,18.0751322 18.0751322,23 12,23 Z" id="Oval" fill="#FFFFFF" fill-rule="nonzero"></path>
                <path d="M8.34535343,6.08841393 C8.42049278,6.16059153 8.49680907,6.23166883 8.57428022,6.30161969 C9.49367153,7.13176364 10.5453498,7.77563619 11.6787334,8.21197275 C10.5341419,7.76958204 9.48696651,7.12570949 8.57428022,6.30161969 C8.49692274,6.23177147 8.42066678,6.16073674 8.34554095,6.08854508 L8.34535343,6.08841393 Z M18.911426,8.19516376 C20.0569599,7.74799759 21.1178173,7.08844523 22.0413749,6.23890043 C22.125711,6.16132287 22.2086437,6.08239968 22.2901439,6.00216548 C22.2084416,6.08257212 22.1255779,6.16144533 22.0413749,6.23890043 C21.1245737,7.08223035 20.0682913,7.74178272 18.9233558,8.1905026 L18.911426,8.19516376 Z M22.9883391,5.24057398 C23.0352381,5.18382304 23.0815027,5.12656846 23.1271249,5.06881961 L22.342447,4.44891587 L21.6994265,5.21476484 C22.1674335,5.60771189 22.5989221,6.04271364 22.9880462,6.51388765 L23.7590936,5.87710988 L22.9883391,5.24057398 Z M7.5584643,5.24060063 L6.78774205,5.87710988 L7.55878943,6.51388765 C7.94790585,6.04272297 8.37938503,5.60772908 8.84738136,5.21478812 L8.2043581,4.44894147 L7.41967173,5.06883445 C7.46529691,5.1265887 7.51156372,5.18384721 7.5584643,5.24060063 Z" id="Combined-Shape" stroke="#FFFFFF" stroke-width="2" transform="translate(15.273418, 6.330444) rotate(30.000000) translate(-15.273418, -6.330444) "></path>
                <path d="M16.2115763,19.66299 C14.5634103,17.5747956 12.0097074,16.2344565 9.14295146,16.2344565 C6.27619554,16.2344565 3.72249261,17.5747956 2.07432664,19.66299 C1.55969831,19.2309408 1.08521379,18.7526287 0.657275671,18.2344565 C2.67485898,15.7914498 5.72707758,14.2344565 9.14295146,14.2344565 C12.5588254,14.2344565 15.611044,15.7914498 17.6286273,18.2344565 C17.2006892,18.7526287 16.7262046,19.2309408 16.2115763,19.66299 Z" id="Combined-Shape" fill="#FFFFFF" fill-rule="nonzero" transform="translate(9.142951, 16.948723) rotate(30.000000) translate(-9.142951, -16.948723) "></path>
            </g>
        </g>
    </g>
</svg>