<?xml version="1.0" encoding="UTF-8"?>
<svg width="156px" height="146px" viewBox="0 0 156 146" version="1.1" xmlns="http://www.w3.org/2000/svg" xmlns:xlink="http://www.w3.org/1999/xlink">
    <!-- Generator: Sketch 52.2 (67145) - http://www.bohemiancoding.com/sketch -->
    <title>img_Start a new activity</title>
    <desc>Created with Sketch.</desc>
    <g id="img_Start-a-new-activity" stroke="none" stroke-width="1" fill="none" fill-rule="evenodd">
        <g id="Path-2">
            <rect id="Mask" fill="#13D077" fill-rule="nonzero" x="0" y="0" width="156" height="146" rx="12"></rect>
            <g id="Group" transform="translate(95.000000, 63.000000)">
                <path d="M8,43 C3.2356207,41.6666667 1.21119254,35.6666667 1.92671552,25 C2.64223851,14.3333333 4.66666667,14.6666667 8,26 L8,43 Z" id="Path-8" fill="#2A5F85" fill-rule="nonzero"></path>
                <path d="M61.0610149,19 L61,19 L61,37.1226158 C60.0048837,40.3466924 58.2670752,42.3058205 55.7865744,43 L55.7865744,26 C58.2730161,17.5460981 60.031163,15.2127648 61.0610149,19 Z" id="Path" fill="#2A5F85" fill-rule="nonzero"></path>
                <path d="M58.8669138,77.8315393 C56.7003837,80.9548002 53.0890329,83 49,83 L0.77533511,83 C5.63357159,75.3133262 15.5400363,70.0103776 24.6141297,70.0103792 L39.4127769,70.0103792 C46.2682756,70.0103792 53.597577,73.0371228 58.8669138,77.8315393 Z" id="Path" fill="#D0F0FE"></path>
                <path d="M12.6212173,83 L12.0352797,81.9847564 C11.9546606,81.8091263 11.9546606,81.6068922 12.0352797,81.4312621 L15.882928,71.7518613 C16.2999807,71.5763631 16.7170335,71.4143648 17.1475396,71.2658663 L17.2820727,71.2658663 C19.6437386,70.4624728 22.1204453,70.0520603 24.6141297,70.0508787 L39.4127769,70.0508787 C41.9064613,70.0520603 44.383168,70.4624728 46.7448338,71.2658663 L46.879367,71.2658663 C47.3098731,71.4143648 47.726926,71.5763631 48.1439787,71.7518613 L51.9243603,81.4312621 C52.0049795,81.6068922 52.0049795,81.8091263 51.9243603,81.9847564 L51.3384228,83 L12.6212173,83 Z" id="Path" fill="#EFFCFF"></path>
                <path d="M19.1892395,83 C18.1654542,79.1641959 17.5528314,75.136918 17.2820727,71.2253667 C19.6437386,70.4219732 22.1204453,70.0115607 24.6141297,70.0103792 L39.4127769,70.0103792 C41.8974312,70.0144989 44.3648136,70.4248722 46.7179273,71.2253667 C46.4473009,75.1350073 45.8351443,79.1630142 44.8122605,83 L19.1892395,83 Z" id="Path" fill="#2A5F85"></path>
                <polygon id="Path" fill="#7D9FF3" fill-rule="nonzero" points="29.2 83 28 79 36 79 34.7240506 83"></polygon>
                <path d="M7.6351542,39.0821962 L56.3763954,39.0821962 C57.591829,39.06415 58.7626165,39.6364731 59.6273408,40.6713753 C60.4920652,41.7062775 60.9787117,43.1175717 60.9786205,44.5901397 C60.9786205,46.0509371 60.4996147,47.4519041 59.6469791,48.4848439 C58.7943434,49.5177837 57.6379213,50.0980832 56.4321124,50.0980832 L7.6351542,50.0980832 C5.12418714,50.0980832 3.08864617,47.6320929 3.08864617,44.5901397 C3.08864622,41.5481865 5.12418717,39.0821963 7.6351542,39.0821962 Z" id="Path" fill="#F4C4B3"></path>
                <polygon id="Path" fill="#F2AC94" points="23.8069308 61.5594658 23.8069308 70.4413645 32 79 40.1930692 70.4413645 40.1930692 61.5594658"></polygon>
                <path d="M56.5926609,24.3538471 L56.5926609,43.2536534 C55.9783995,56.4196762 45.1619053,66.7773397 32.0269066,66.7773397 C18.891908,66.7773397 8.0754138,56.4196762 7.46115242,43.2536534 L7.46115242,27.0538195 C10.1491342,28.2388146 13.0546231,28.8458357 15.9905545,28.8358011 C21.7635066,28.9844504 27.2932408,26.5028466 31.0313612,22.0858703 C32.3019604,22.3807715 33.6017732,22.5302237 34.9059162,22.5313658 C39.2410757,22.6408286 43.4164718,20.8872838 46.3815943,17.7119152 C46.4037625,21.7542234 49.6717729,25.0214842 53.700198,25.0288402 C54.7005798,25.0076546 55.6856191,24.7777832 56.5926609,24.3538471 Z" id="Path" fill="#FFD2C0"></path>
                <path d="M28.0996984,54.4416223 C27.0652741,53.6355599 26.4841406,52.5423047 26.4841406,51.4023603 L26.4841406,49.1484444 C26.4840928,49.0409493 26.5397968,48.9380015 26.6386,48.8629845 C26.7374032,48.7879674 26.8709187,48.7472489 27.00882,48.7500778 L36.99118,48.7500778 C37.1290813,48.7472489 37.2625968,48.7879674 37.3614,48.8629845 C37.4602032,48.9380015 37.5159072,49.0409493 37.5158594,49.1484444 L37.5158594,51.4338104 C37.493684,53.7953305 35.0306328,55.7005891 32,55.7005259 C30.5371031,55.7005259 29.1341227,55.2476847 28.0996984,54.4416223 Z" id="Path" fill="#EC735A"></path>
                <path d="M17,71.131175 L26,80.5 L32,79 L23.8024807,70 C22.5411096,69.9402538 21.3839861,70.0150086 20.3311099,70.2242645 C19.2782338,70.4335204 18.1678639,70.7358239 17,71.131175 Z" id="Path-2" fill="#3B83B2" fill-rule="nonzero"></path>
                <path d="M32,71.131175 L41,80.5 L47,79 L38.8024807,70 C37.5411096,69.9402538 36.3839861,70.0150086 35.3311099,70.2242645 C34.2782338,70.4335204 33.1678639,70.7358239 32,71.131175 Z" id="Path-2" fill="#3B83B2" fill-rule="nonzero" transform="translate(39.500000, 75.240048) scale(-1, 1) translate(-39.500000, -75.240048) "></path>
                <path d="M44,50.5 C39.3055796,50.5 35.5,46.6944204 35.5,42 C35.5,37.3055796 39.3055796,33.5 44,33.5 C48.6944204,33.5 52.5,37.3055796 52.5,42 C52.5,46.6944204 48.6944204,50.5 44,50.5 Z M44,49.5 C48.1421356,49.5 51.5,46.1421356 51.5,42 C51.5,37.8578644 48.1421356,34.5 44,34.5 C39.8578644,34.5 36.5,37.8578644 36.5,42 C36.5,46.1421356 39.8578644,49.5 44,49.5 Z" id="Oval" fill="#6D6D6D" fill-rule="nonzero"></path>
                <path d="M20,50.5 C15.3055796,50.5 11.5,46.6944204 11.5,42 C11.5,37.3055796 15.3055796,33.5 20,33.5 C24.6944204,33.5 28.5,37.3055796 28.5,42 C28.5,46.6944204 24.6944204,50.5 20,50.5 Z M20,49.5 C24.1421356,49.5 27.5,46.1421356 27.5,42 C27.5,37.8578644 24.1421356,34.5 20,34.5 C15.8578644,34.5 12.5,37.8578644 12.5,42 C12.5,46.1421356 15.8578644,49.5 20,49.5 Z" id="Oval-Copy" fill="#6D6D6D" fill-rule="nonzero"></path>
                <path d="M28,42.5 C27.7238576,42.5 27.5,42.2761424 27.5,42 C27.5,41.7238576 27.7238576,41.5 28,41.5 L36,41.5 C36.2761424,41.5 36.5,41.7238576 36.5,42 C36.5,42.2761424 36.2761424,42.5 36,42.5 L28,42.5 Z" id="Path-7" fill="#6D6D6D" fill-rule="nonzero"></path>
                <rect id="Rectangle" fill="#2B2F52" fill-rule="nonzero" x="43" y="39" width="3" height="5" rx="1.5"></rect>
                <rect id="Rectangle" fill="#2B2F52" fill-rule="nonzero" x="18" y="39" width="3" height="5" rx="1.5"></rect>
                <path d="M61,10.425321 L61,24.574679 C58.6231224,28.4301131 54.3616758,31 49.5,31 C46.4270594,31 43.5939211,29.9732839 41.3249133,28.2441798 C38.8204005,29.981744 35.7791135,31 32.5,31 C28.9886274,31 25.7499648,29.8323897 23.1510889,27.8642458 C20.8083353,29.8218617 17.7917521,31 14.5,31 C7.04415588,31 1,24.9558441 1,17.5 C1,10.0441559 7.04415588,4 14.5,4 C16.7219686,4 18.8185594,4.53680662 20.6671594,5.48780709 C23.5103663,2.13095058 27.7563281,0 32.5,0 C37.0826971,0 41.2008902,1.98877841 44.0385803,5.1503364 C45.7083807,4.41080728 47.5562158,4 49.5,4 C54.3616758,4 58.6231224,6.56988691 61,10.425321 Z" id="Path" fill="#34709B" fill-rule="nonzero"></path>
            </g>
            <g id="Group-6" transform="translate(16.000000, 16.000000)">
                <circle id="Oval" fill="#FFFFFF" fill-rule="nonzero" cx="18" cy="18" r="18"></circle>
                <g id="outline-remove_red_eye-24px" transform="translate(6.000000, 6.000000)">
                    <polygon id="Path" points="0 0 24 0 24 24 0 24"></polygon>
                    <path d="M12,6.5 C15.79,6.5 19.17,8.63 20.82,12 C19.17,15.37 15.8,17.5 12,17.5 C8.2,17.5 4.83,15.37 3.18,12 C4.83,8.63 8.21,6.5 12,6.5 Z M12,4.5 C7,4.5 2.73,7.61 1,12 C2.73,16.39 7,19.5 12,19.5 C17,19.5 21.27,16.39 23,12 C21.27,7.61 17,4.5 12,4.5 Z M12,9.5 C13.38,9.5 14.5,10.62 14.5,12 C14.5,13.38 13.38,14.5 12,14.5 C10.62,14.5 9.5,13.38 9.5,12 C9.5,10.62 10.62,9.5 12,9.5 Z M12,7.5 C9.52,7.5 7.5,9.52 7.5,12 C7.5,14.48 9.52,16.5 12,16.5 C14.48,16.5 16.5,14.48 16.5,12 C16.5,9.52 14.48,7.5 12,7.5 Z" id="Shape" fill="#13D077" fill-rule="nonzero"></path>
                    <circle id="Oval" fill="#13D077" fill-rule="nonzero" cx="13.5" cy="10.5" r="1.5"></circle>
                </g>
            </g>
        </g>
    </g>
</svg>