<?xml version="1.0" encoding="UTF-8"?>
<svg width="156px" height="146px" viewBox="0 0 156 146" version="1.1" xmlns="http://www.w3.org/2000/svg" xmlns:xlink="http://www.w3.org/1999/xlink">
    <!-- Generator: Sketch 52.2 (67145) - http://www.bohemiancoding.com/sketch -->
    <title>img_Eye  exercise</title>
    <desc>Created with Sketch.</desc>
    <g id="img_Eye--exercise" stroke="none" stroke-width="1" fill="none" fill-rule="evenodd">
        <g id="Path-2">
            <rect id="Mask" fill="#13D077" fill-rule="nonzero" x="0" y="0" width="156" height="146" rx="12"></rect>
            <g id="Group" transform="translate(95.000000, 63.000000)">
                <path d="M8,43 C3.2356207,41.6666667 1.21119254,35.6666667 1.92671552,25 C2.64223851,14.3333333 4.66666667,14.6666667 8,26 L8,43 Z" id="Path-8" fill="#2A5F85" fill-rule="nonzero"></path>
                <path d="M61.0610149,19 L61,19 L61,37.1226158 C60.0048837,40.3466924 58.2670752,42.3058205 55.7865744,43 L55.7865744,26 C58.2730161,17.5460981 60.031163,15.2127648 61.0610149,19 Z" id="Path" fill="#2A5F85" fill-rule="nonzero"></path>
                <path d="M58.8669138,77.8315393 C56.7003837,80.9548002 53.0890329,83 49,83 L0.77533511,83 C5.63357159,75.3133262 15.5400363,70.0103776 24.6141297,70.0103792 L39.4127769,70.0103792 C46.2682756,70.0103792 53.597577,73.0371228 58.8669138,77.8315393 Z" id="Path" fill="#D0F0FE"></path>
                <path d="M12.6212173,83 L12.0352797,81.9847564 C11.9546606,81.8091263 11.9546606,81.6068922 12.0352797,81.4312621 L15.882928,71.7518613 C16.2999807,71.5763631 16.7170335,71.4143648 17.1475396,71.2658663 L17.2820727,71.2658663 C19.6437386,70.4624728 22.1204453,70.0520603 24.6141297,70.0508787 L39.4127769,70.0508787 C41.9064613,70.0520603 44.383168,70.4624728 46.7448338,71.2658663 L46.879367,71.2658663 C47.3098731,71.4143648 47.726926,71.5763631 48.1439787,71.7518613 L51.9243603,81.4312621 C52.0049795,81.6068922 52.0049795,81.8091263 51.9243603,81.9847564 L51.3384228,83 L12.6212173,83 Z" id="Path" fill="#EFFCFF"></path>
                <path d="M19.1892395,83 C18.1654542,79.1641959 17.5528314,75.136918 17.2820727,71.2253667 C19.6437386,70.4219732 22.1204453,70.0115607 24.6141297,70.0103792 L39.4127769,70.0103792 C41.8974312,70.0144989 44.3648136,70.4248722 46.7179273,71.2253667 C46.4473009,75.1350073 45.8351443,79.1630142 44.8122605,83 L19.1892395,83 Z" id="Path" fill="#2A5F85"></path>
                <polygon id="Path" fill="#7D9FF3" fill-rule="nonzero" points="29.2 83 28 79 36 79 34.7240506 83"></polygon>
                <path d="M7.6351542,39.0821962 L56.3763954,39.0821962 C57.591829,39.06415 58.7626165,39.6364731 59.6273408,40.6713753 C60.4920652,41.7062775 60.9787117,43.1175717 60.9786205,44.5901397 C60.9786205,46.0509371 60.4996147,47.4519041 59.6469791,48.4848439 C58.7943434,49.5177837 57.6379213,50.0980832 56.4321124,50.0980832 L7.6351542,50.0980832 C5.12418714,50.0980832 3.08864617,47.6320929 3.08864617,44.5901397 C3.08864622,41.5481865 5.12418717,39.0821963 7.6351542,39.0821962 Z" id="Path" fill="#F4C4B3"></path>
                <polygon id="Path" fill="#F2AC94" points="23.8069308 61.5594658 23.8069308 70.4413645 32 79 40.1930692 70.4413645 40.1930692 61.5594658"></polygon>
                <path d="M56.5926609,24.3538471 L56.5926609,43.2536534 C55.9783995,56.4196762 45.1619053,66.7773397 32.0269066,66.7773397 C18.891908,66.7773397 8.0754138,56.4196762 7.46115242,43.2536534 L7.46115242,27.0538195 C10.1491342,28.2388146 13.0546231,28.8458357 15.9905545,28.8358011 C21.7635066,28.9844504 27.2932408,26.5028466 31.0313612,22.0858703 C32.3019604,22.3807715 33.6017732,22.5302237 34.9059162,22.5313658 C39.2410757,22.6408286 43.4164718,20.8872838 46.3815943,17.7119152 C46.4037625,21.7542234 49.6717729,25.0214842 53.700198,25.0288402 C54.7005798,25.0076546 55.6856191,24.7777832 56.5926609,24.3538471 Z" id="Path" fill="#FFD2C0"></path>
                <path d="M28.0996984,54.4416223 C27.0652741,53.6355599 26.4841406,52.5423047 26.4841406,51.4023603 L26.4841406,49.1484444 C26.4840928,49.0409493 26.5397968,48.9380015 26.6386,48.8629845 C26.7374032,48.7879674 26.8709187,48.7472489 27.00882,48.7500778 L36.99118,48.7500778 C37.1290813,48.7472489 37.2625968,48.7879674 37.3614,48.8629845 C37.4602032,48.9380015 37.5159072,49.0409493 37.5158594,49.1484444 L37.5158594,51.4338104 C37.493684,53.7953305 35.0306328,55.7005891 32,55.7005259 C30.5371031,55.7005259 29.1341227,55.2476847 28.0996984,54.4416223 Z" id="Path" fill="#EC735A"></path>
                <path d="M17,71.131175 L26,80.5 L32,79 L23.8024807,70 C22.5411096,69.9402538 21.3839861,70.0150086 20.3311099,70.2242645 C19.2782338,70.4335204 18.1678639,70.7358239 17,71.131175 Z" id="Path-2" fill="#3B83B2" fill-rule="nonzero"></path>
                <path d="M32,71.131175 L41,80.5 L47,79 L38.8024807,70 C37.5411096,69.9402538 36.3839861,70.0150086 35.3311099,70.2242645 C34.2782338,70.4335204 33.1678639,70.7358239 32,71.131175 Z" id="Path-2" fill="#3B83B2" fill-rule="nonzero" transform="translate(39.500000, 75.240048) scale(-1, 1) translate(-39.500000, -75.240048) "></path>
                <path d="M61,10.425321 L61,24.574679 C58.6231224,28.4301131 54.3616758,31 49.5,31 C46.4270594,31 43.5939211,29.9732839 41.3249133,28.2441798 C38.8204005,29.981744 35.7791135,31 32.5,31 C28.9886274,31 25.7499648,29.8323897 23.1510889,27.8642458 C20.8083353,29.8218617 17.7917521,31 14.5,31 C7.04415588,31 1,24.9558441 1,17.5 C1,10.0441559 7.04415588,4 14.5,4 C16.7219686,4 18.8185594,4.53680662 20.6671594,5.48780709 C23.5103663,2.13095058 27.7563281,0 32.5,0 C37.0826971,0 41.2008902,1.98877841 44.0385803,5.1503364 C45.7083807,4.41080728 47.5562158,4 49.5,4 C54.3616758,4 58.6231224,6.56988691 61,10.425321 Z" id="Path" fill="#34709B" fill-rule="nonzero"></path>
                <path d="M40.4589395,42.8409837 C39.994477,42.5421642 39.8601969,41.9234019 40.1590163,41.4589395 C40.4578358,40.994477 41.0765981,40.8601969 41.5410605,41.1590163 C43.5448432,42.4481825 45.4551568,42.4481825 47.4589395,41.1590163 C47.9234019,40.8601969 48.5421642,40.994477 48.8409837,41.4589395 C49.1398031,41.9234019 49.005523,42.5421642 48.5410605,42.8409837 C45.8781765,44.5541934 43.1218235,44.5541934 40.4589395,42.8409837 Z" id="Path-6" fill="#2B2F52" fill-rule="nonzero"></path>
                <path d="M15.4609706,42.8583304 C14.9965081,42.5595109 14.862228,41.9407486 15.1610475,41.4762862 C15.4598669,41.0118237 16.0786292,40.8775436 16.5430916,41.1763631 C18.5468743,42.4655292 20.4571879,42.4655292 22.4609706,41.1763631 C22.925433,40.8775436 23.5441953,41.0118237 23.8430148,41.4762862 C24.1418342,41.9407486 24.0075541,42.5595109 23.5430916,42.8583304 C20.8802076,44.5715401 18.1238546,44.5715401 15.4609706,42.8583304 Z" id="Path-6" fill="#2B2F52" fill-rule="nonzero"></path>
            </g>
            <g id="Group-6" transform="translate(16.000000, 16.000000)">
                <circle id="Oval" fill="#FFFFFF" fill-rule="nonzero" cx="18" cy="18" r="18"></circle>
                <g id="round-sentiment_satisfied-24px" transform="translate(6.000000, 6.000000)">
                    <polygon id="Path" points="0 0 24 0 24 24 0 24"></polygon>
                    <circle id="Oval" fill="#13D077" cx="15.5" cy="9.5" r="1.5"></circle>
                    <circle id="Oval" fill="#13D077" cx="8.5" cy="9.5" r="1.5"></circle>
                    <path d="M11.99,2 C6.47,2 2,6.48 2,12 C2,17.52 6.47,22 11.99,22 C17.52,22 22,17.52 22,12 C22,6.48 17.52,2 11.99,2 Z M12,20 C7.58,20 4,16.42 4,12 C4,7.58 7.58,4 12,4 C16.42,4 20,7.58 20,12 C20,16.42 16.42,20 12,20 Z M16.41,13.89 C16.06,13.67 15.59,13.78 15.38,14.13 C14.64,15.3 13.38,16 12,16 C10.62,16 9.36,15.3 8.62,14.12 C8.4,13.77 7.94,13.66 7.59,13.88 C7.24,14.1 7.13,14.56 7.35,14.91 C8.37,16.54 10.1,17.5 12,17.5 C13.9,17.5 15.63,16.53 16.65,14.92 C16.87,14.57 16.76,14.11 16.41,13.89 Z" id="Shape" fill="#13D077" fill-rule="nonzero"></path>
                </g>
            </g>
            <path d="M152.560082,142.409819 C150.382863,144.625695 147.351925,146 144,146 L138.899669,146 L138.899669,139.058363 L148.413179,136.506759 L152.560082,142.409819 Z" id="Path" fill="#D0F0FE" fill-rule="nonzero"></path>
            <g id="手" transform="translate(143.332651, 136.403784) scale(-1, 1) rotate(-323.000000) translate(-143.332651, -136.403784) translate(137.332651, 131.903784)"></g>
            <path d="M148.70101,127.560289 C149.445328,128.224011 153.099248,129.883316 153.843566,129.219594 C154.587883,128.4895 152.693257,126.100101 151.881275,125.502751 L147.415372,122.184142 C144.844094,120.259348 141.609624,121.390202 142.678808,122.516003 C143.391597,123.266536 145.398998,124.947965 148.70101,127.560289 Z" id="Path" fill="#FFDFD2" transform="translate(148.241144, 125.259113) scale(-1, 1) rotate(39.000000) translate(-148.241144, -125.259113) "></path>
            <path d="M139.010142,119.215218 C139.280803,117.688658 141.827848,117.292657 142.63983,118.686473 C142.707496,117.09354 144.940447,116.695307 145.955425,117.823634 C146.293751,116.363446 148.594368,116.230702 149.338685,117.757262 L151.842297,124.195365 C152.721945,126.186531 152.78961,129.239651 152.383619,130.633467 C151.165645,134.748543 145.684764,134.881288 143.722473,133.620216 C142.233839,132.624633 141.015866,132.093656 140.542209,131.0317 L132.084059,114.704141 C130.933751,112.24837 133.75998,111.280067 134.639627,113.337605 L139.010142,119.215218 Z" id="Path" fill="#FEE3D8" transform="translate(142.217770, 123.269865) scale(-1, 1) rotate(36.000000) translate(-142.217770, -123.269865) "></path>
            <path d="M147.735585,132.684191 C148.682898,135.339078 149.088889,136.666522 149.088889,136.666522 C149.088889,136.666522 142.4577,138.989549 138.871444,140.648854 L137.315145,136.666522 L147.735585,132.684191 Z" id="Path" fill="#2A5F85"></path>
        </g>
    </g>
</svg>